{"glyphs":{"0":{"ha":814,"x_min":54,"x_max":760,"o":"m 239 536 q 408 122 239 122 q 489 157 456 122 q 541 252 522 191 q 567 382 559 312 q 575 536 575 452 q 567 692 575 621 q 540 823 559 764 q 487 917 521 883 q 407 951 453 951 q 239 536 239 951 m 54 536 q 86 810 54 694 q 172 985 118 925 q 284 1071 227 1044 q 407 1097 342 1097 q 668 949 576 1097 q 760 536 760 802 q 669 126 760 278 q 408 -26 579 -26 q 288 0 346 -26 q 176 85 231 26 q 87 260 121 144 q 54 536 54 376 z "},"1":{"ha":814,"x_min":117,"x_max":541,"o":"m 117 757 l 117 892 l 165 892 q 387 1055 387 892 l 387 1082 l 541 1082 l 541 -12 l 358 -12 l 358 757 l 117 757 z "},"2":{"ha":814,"x_min":61,"x_max":731,"o":"m 61 808 q 178 1020 92 943 q 401 1097 263 1097 q 639 1014 547 1097 q 731 788 731 930 q 689 621 731 696 q 567 469 647 545 q 490 393 552 454 q 405 309 427 332 q 347 238 382 285 q 289 146 311 191 l 728 146 l 728 0 l 72 0 q 93 128 72 64 q 142 240 114 193 q 222 348 170 288 q 309 442 274 408 q 406 536 343 476 q 427 556 420 549 q 547 792 547 670 q 506 909 547 867 q 399 951 465 951 q 213 764 256 951 l 61 808 z "},"3":{"ha":814,"x_min":41,"x_max":758,"o":"m 41 217 l 184 270 q 391 122 248 122 q 521 170 468 122 q 574 307 574 218 q 515 437 574 387 q 368 487 457 487 q 270 481 319 487 l 270 628 q 362 625 305 625 q 485 670 434 625 q 536 793 536 715 q 492 907 536 863 q 382 951 449 951 q 212 796 266 951 l 65 842 q 180 1026 94 955 q 393 1097 266 1097 q 631 1017 543 1097 q 719 811 719 936 q 676 663 719 728 q 571 566 633 598 q 702 474 646 540 q 758 307 758 408 q 659 63 758 151 q 392 -24 559 -24 q 165 46 258 -24 q 41 217 72 117 z "},"4":{"ha":814,"x_min":30,"x_max":788,"o":"m 30 368 l 502 1082 l 655 1082 l 655 370 l 788 370 l 788 224 l 655 224 l 655 -9 l 479 -9 l 479 224 l 30 224 l 30 368 m 198 370 l 479 370 l 479 671 q 484 814 479 745 l 477 814 q 404 690 448 762 l 198 370 z "},"5":{"ha":814,"x_min":54,"x_max":746,"o":"m 54 199 l 202 252 q 274 159 227 195 q 378 122 321 122 q 513 180 464 122 q 563 334 563 237 q 510 487 563 427 q 376 547 457 547 q 201 449 275 547 l 88 492 l 145 1073 l 688 1073 l 688 925 l 309 925 l 277 644 q 438 692 343 692 q 661 596 575 692 q 746 338 746 500 q 725 206 746 269 q 663 91 704 144 q 549 7 621 38 q 385 -24 477 -24 q 179 37 262 -24 q 54 199 96 99 z "},"6":{"ha":814,"x_min":60,"x_max":762,"o":"m 245 342 q 293 182 245 241 q 415 122 340 122 q 534 181 488 122 q 581 342 581 240 q 534 505 581 446 q 414 563 488 563 q 293 502 340 563 q 245 342 245 441 m 60 487 q 82 717 60 610 q 149 910 104 823 q 271 1047 194 997 q 448 1097 347 1097 q 757 876 663 1097 l 617 827 q 449 951 551 951 q 260 724 311 951 q 241 601 248 670 q 319 678 267 647 q 439 709 370 709 q 672 606 582 709 q 762 343 762 502 q 671 79 762 183 q 420 -24 581 -24 q 164 90 252 -24 q 60 487 60 218 z "},"7":{"ha":814,"x_min":62,"x_max":743,"o":"m 62 921 l 62 1073 l 743 1073 l 743 952 q 365 -9 490 548 l 180 -9 q 536 921 271 461 l 62 921 z "},"8":{"ha":814,"x_min":47,"x_max":768,"o":"m 264 793 q 304 680 264 723 q 407 636 345 636 q 509 680 469 636 q 548 793 548 724 q 509 905 548 860 q 407 951 471 951 q 304 905 343 951 q 264 793 264 860 m 47 294 q 104 469 47 401 q 235 566 160 536 q 80 802 80 646 q 174 1014 80 930 q 407 1097 267 1097 q 640 1014 547 1097 q 732 802 732 930 q 578 566 732 644 q 713 465 658 533 q 768 294 768 397 q 667 64 768 152 q 407 -24 566 -24 q 152 60 256 -24 q 47 294 47 144 m 232 304 q 281 174 232 225 q 407 122 330 122 q 533 174 484 122 q 582 304 582 225 q 533 435 582 380 q 407 491 484 491 q 281 436 331 491 q 232 304 232 381 z "},"9":{"ha":814,"x_min":50,"x_max":745,"o":"m 231 734 q 277 576 231 636 q 396 517 324 517 q 515 577 469 517 q 560 734 560 637 q 516 889 560 827 q 396 951 472 951 q 277 890 323 951 q 231 734 231 829 m 50 198 l 194 245 q 362 122 256 122 q 459 153 418 122 q 524 237 500 184 q 557 348 547 290 q 570 472 568 406 q 370 372 503 372 q 143 470 236 372 q 50 732 50 568 q 147 996 50 894 q 395 1097 244 1097 q 608 1016 522 1097 q 724 802 693 935 q 745 586 745 713 q 650 135 745 294 q 361 -24 555 -24 q 165 43 248 -24 q 50 198 83 111 z "}," ":{"ha":339,"x_min":0,"x_max":0,"o":""},"!":{"ha":453,"x_min":113,"x_max":342,"o":"m 113 -7 l 113 199 l 342 199 l 342 -7 l 113 -7 m 311 304 l 144 304 l 130 1080 l 321 1080 l 311 304 z "},"#":{"ha":1070,"x_min":73,"x_max":1000,"o":"m 73 269 l 73 401 l 251 401 l 283 644 l 118 644 l 118 776 l 300 776 l 336 1043 l 494 1043 l 458 776 l 681 776 l 716 1043 l 875 1043 l 840 776 l 1000 776 l 1000 644 l 822 644 l 791 401 l 955 401 l 955 269 l 773 269 l 739 3 l 579 3 l 614 269 l 392 269 l 357 3 l 198 3 l 233 269 l 73 269 m 410 401 l 632 401 l 665 644 l 441 644 l 410 401 z "},"$":{"ha":850,"x_min":65,"x_max":779,"o":"m 65 224 l 195 286 q 299 184 236 221 q 435 148 362 148 q 552 186 505 148 q 600 294 600 224 q 586 357 600 331 q 539 406 572 384 q 475 441 506 427 q 383 481 444 456 q 281 528 323 507 q 99 791 99 616 q 162 961 99 880 q 349 1063 225 1042 l 349 1181 l 511 1181 l 511 1061 q 661 995 590 1053 q 761 872 732 937 l 628 808 q 430 924 551 924 q 318 886 361 924 q 275 789 275 848 q 281 747 275 766 q 301 713 286 728 q 330 686 316 697 q 374 660 345 674 q 425 637 404 646 q 488 610 445 628 q 557 582 530 593 q 779 309 779 488 q 705 108 779 187 q 511 7 631 28 l 511 -104 l 349 -104 l 349 9 q 184 79 266 18 q 65 224 103 141 z "},"%":{"ha":1461,"x_min":91,"x_max":1371,"o":"m 787 247 q 868 441 787 363 q 1080 519 949 519 q 1290 442 1208 519 q 1371 247 1371 365 q 1289 51 1371 126 q 1080 -24 1206 -24 q 869 52 951 -24 q 787 247 787 129 m 949 247 q 988 143 949 180 q 1080 106 1027 106 q 1171 144 1134 106 q 1208 247 1208 182 q 1172 350 1208 312 q 1080 388 1135 388 q 987 350 1024 388 q 949 247 949 312 m 91 826 q 172 1020 91 943 q 382 1097 252 1097 q 593 1021 511 1097 q 674 826 674 944 q 592 630 674 707 q 382 553 510 553 q 172 631 254 553 q 91 826 91 708 m 254 826 q 292 722 254 760 q 382 685 330 685 q 474 724 437 685 q 511 826 511 762 q 475 929 511 891 q 382 967 438 967 q 290 929 327 967 q 254 826 254 891 m 264 -7 l 1020 1080 l 1199 1080 l 441 -7 l 264 -7 z "},"&":{"ha":987,"x_min":68,"x_max":975,"o":"m 244 286 q 294 166 244 210 q 422 122 343 122 q 608 212 522 122 l 380 510 q 244 286 244 407 m 68 283 q 296 632 68 484 q 214 760 231 719 q 201 834 201 796 q 278 1007 201 941 q 486 1073 355 1073 q 676 1016 598 1073 q 791 873 754 959 l 662 818 q 500 928 598 928 q 411 901 444 928 q 378 829 378 873 q 395 772 378 806 q 452 679 411 738 q 530 572 494 620 q 639 430 567 524 q 694 358 675 382 q 742 530 726 434 l 899 503 q 802 220 875 346 l 975 0 l 768 0 l 703 84 q 419 -26 585 -26 q 160 64 252 -26 q 68 283 68 153 z "},"(":{"ha":646,"x_min":183,"x_max":557,"o":"m 183 517 q 431 1242 183 913 l 557 1171 q 437 952 468 1025 q 355 517 355 761 q 406 162 355 308 q 557 -138 457 16 l 431 -212 q 248 124 312 -50 q 183 517 183 298 z "},")":{"ha":646,"x_min":90,"x_max":464,"o":"m 90 -138 q 243 173 195 22 q 292 515 292 324 q 276 728 292 631 q 228 906 260 825 q 166 1042 195 987 q 90 1171 137 1096 l 216 1242 q 396 918 328 1090 q 464 515 464 745 q 399 120 464 293 q 216 -212 334 -53 l 90 -138 z "},"*":{"ha":814,"x_min":26,"x_max":787,"o":"m 26 586 l 85 727 l 336 629 l 327 891 l 486 891 l 477 629 l 727 727 l 787 586 l 510 502 l 722 275 l 590 178 l 407 426 l 222 178 l 92 275 l 304 502 l 26 586 z "},"+":{"ha":814,"x_min":39,"x_max":774,"o":"m 39 453 l 39 605 l 320 605 l 320 890 l 491 890 l 491 605 l 774 605 l 774 453 l 491 453 l 491 157 l 320 157 l 320 453 l 39 453 z "},",":{"ha":514,"x_min":61,"x_max":389,"o":"m 61 -229 l 191 210 l 389 210 l 201 -229 l 61 -229 z "},"-":{"ha":814,"x_min":71,"x_max":743,"o":"m 71 453 l 71 605 l 743 605 l 743 453 l 71 453 z "},".":{"ha":514,"x_min":144,"x_max":372,"o":"m 144 0 l 144 209 l 372 209 l 372 0 l 144 0 z "},"/":{"ha":549,"x_min":-22,"x_max":572,"o":"m -22 -79 l 392 1142 l 572 1142 l 159 -79 l -22 -79 z "},":":{"ha":514,"x_min":144,"x_max":372,"o":"m 144 92 l 144 304 l 372 304 l 372 92 l 144 92 m 144 667 l 144 879 l 372 879 l 372 667 l 144 667 z "},";":{"ha":514,"x_min":61,"x_max":389,"o":"m 61 -136 l 191 304 l 389 304 l 201 -136 l 61 -136 m 151 667 l 151 879 l 380 879 l 380 667 l 151 667 z "},"<":{"ha":814,"x_min":58,"x_max":745,"o":"m 58 441 l 58 600 l 651 1043 l 745 913 l 228 521 l 745 127 l 651 -3 l 58 441 z "},"=":{"ha":814,"x_min":71,"x_max":743,"o":"m 71 304 l 71 456 l 743 456 l 743 304 l 71 304 m 71 604 l 71 755 l 743 755 l 743 604 l 71 604 z "},">":{"ha":814,"x_min":69,"x_max":755,"o":"m 161 -3 l 69 127 l 585 521 l 69 913 l 161 1043 l 755 600 l 755 441 l 161 -3 z "},"?":{"ha":834,"x_min":87,"x_max":743,"o":"m 87 842 q 206 1028 118 954 q 423 1103 294 1103 q 654 1019 566 1103 q 743 799 743 936 q 718 682 743 734 q 657 596 693 631 q 585 528 621 562 q 524 449 549 495 q 499 347 499 403 l 499 300 l 320 300 l 320 359 q 338 465 320 416 q 382 544 355 513 q 440 607 410 575 q 498 665 471 639 q 543 728 525 692 q 560 807 560 765 q 524 911 560 872 q 426 951 488 951 q 245 789 307 951 l 87 842 m 294 -7 l 294 199 l 524 199 l 524 -7 l 294 -7 z "},"@":{"ha":1363,"x_min":71,"x_max":1293,"o":"m 71 505 q 250 950 71 776 q 709 1124 429 1124 q 1129 970 966 1124 q 1293 582 1293 815 q 1263 387 1293 471 q 1187 256 1234 302 q 1088 188 1139 210 q 982 165 1036 165 q 878 201 924 165 q 822 290 833 236 l 821 290 q 747 205 802 243 q 624 167 692 167 q 446 247 518 167 q 374 458 374 327 q 464 734 374 633 q 678 834 553 834 q 825 764 770 834 l 829 823 l 960 823 l 937 395 q 951 321 936 346 q 993 297 967 297 q 1097 371 1053 297 q 1142 572 1142 445 q 1024 879 1142 761 q 709 997 906 997 q 360 858 496 997 q 224 505 224 719 q 355 145 224 277 q 696 14 487 14 q 998 56 854 14 l 1024 -62 q 696 -113 884 -113 q 241 59 411 -113 q 71 505 71 231 m 536 461 q 566 353 536 399 q 646 307 595 307 q 751 371 704 307 q 798 582 798 435 q 771 671 798 636 q 692 705 745 705 q 585 637 633 705 q 536 461 536 570 z "},"A":{"ha":960,"x_min":-5,"x_max":966,"o":"m 320 410 l 640 410 l 549 688 q 528 754 540 718 q 504 835 517 791 q 484 901 491 879 l 476 901 q 411 688 472 887 l 320 410 m -5 0 l 382 1073 l 579 1073 l 966 0 l 776 0 l 688 266 l 273 266 l 184 0 l -5 0 z "},"B":{"ha":967,"x_min":121,"x_max":907,"o":"m 121 0 l 121 1073 l 528 1073 q 784 997 699 1073 q 869 789 869 921 q 833 654 869 711 q 736 567 796 598 q 856 475 804 543 q 907 312 907 408 q 821 89 907 178 q 581 0 735 0 l 121 0 m 300 152 l 549 152 q 672 194 621 152 q 723 312 723 236 q 676 430 723 384 q 545 476 629 476 l 300 476 l 300 152 m 300 627 l 510 627 q 636 664 587 627 q 685 776 685 701 q 644 881 685 842 q 515 920 602 920 l 300 920 l 300 627 z "},"C":{"ha":967,"x_min":57,"x_max":937,"o":"m 57 537 q 190 946 57 795 q 533 1097 323 1097 q 766 1023 669 1097 q 910 838 863 948 l 757 788 q 530 944 670 944 q 319 833 397 944 q 241 537 241 723 q 320 239 241 349 q 530 129 399 129 q 682 180 616 129 q 777 307 747 232 l 937 256 q 885 162 917 208 q 805 73 853 117 q 686 2 757 28 q 533 -24 616 -24 q 192 125 327 -24 q 57 537 57 275 z "},"D":{"ha":1000,"x_min":121,"x_max":945,"o":"m 121 0 l 121 1073 l 439 1073 q 814 935 682 1073 q 945 537 945 796 q 929 372 945 449 q 876 227 913 296 q 781 108 838 157 q 637 29 724 58 q 438 0 549 0 l 121 0 m 300 151 l 418 151 q 760 537 760 151 q 670 832 760 743 q 420 921 581 921 l 300 921 l 300 151 z "},"E":{"ha":880,"x_min":121,"x_max":838,"o":"m 121 0 l 121 1073 l 825 1073 l 825 920 l 300 920 l 300 629 l 773 629 l 773 479 l 300 479 l 300 152 l 838 152 l 838 0 l 121 0 z "},"F":{"ha":823,"x_min":121,"x_max":804,"o":"m 121 0 l 121 1073 l 804 1073 l 804 920 l 300 920 l 300 613 l 751 613 l 751 463 l 300 463 l 300 0 l 121 0 z "},"G":{"ha":1035,"x_min":57,"x_max":960,"o":"m 57 537 q 189 940 57 783 q 541 1097 320 1097 q 694 1070 624 1097 q 810 1000 764 1043 q 884 919 856 958 q 929 841 911 880 l 776 791 q 724 863 747 834 q 651 918 700 891 q 543 944 602 944 q 321 833 401 944 q 241 537 241 722 q 323 239 241 349 q 534 129 404 129 q 711 194 647 129 q 783 359 774 259 q 787 448 787 420 l 524 448 l 524 600 l 960 600 l 960 0 l 837 0 l 821 110 q 529 -24 732 -24 q 191 128 326 -24 q 57 537 57 281 z "},"H":{"ha":1029,"x_min":121,"x_max":910,"o":"m 121 0 l 121 1073 l 298 1073 l 298 627 l 732 627 l 732 1073 l 910 1073 l 910 0 l 732 0 l 732 476 l 298 476 l 298 0 l 121 0 z "},"I":{"ha":418,"x_min":121,"x_max":300,"o":"m 121 0 l 121 1073 l 300 1073 l 300 0 l 121 0 z "},"J":{"ha":749,"x_min":12,"x_max":629,"o":"m 12 199 l 160 259 q 215 166 176 203 q 309 129 254 129 q 414 180 377 129 q 450 330 450 232 l 450 1073 l 629 1073 l 629 305 q 547 62 629 148 q 313 -24 465 -24 q 115 41 190 -24 q 12 199 39 106 z "},"K":{"ha":949,"x_min":121,"x_max":956,"o":"m 121 0 l 121 1073 l 300 1073 l 300 587 l 302 587 l 719 1073 l 945 1073 l 530 604 l 956 0 l 741 0 l 418 477 l 300 343 l 300 0 l 121 0 z "},"L":{"ha":799,"x_min":121,"x_max":785,"o":"m 121 0 l 121 1073 l 300 1073 l 300 152 l 785 152 l 785 0 l 121 0 z "},"M":{"ha":1246,"x_min":121,"x_max":1127,"o":"m 121 0 l 121 1073 l 339 1073 l 528 574 q 579 422 548 518 q 620 298 610 327 l 625 298 q 722 574 693 495 l 906 1073 l 1127 1073 l 1127 0 l 951 0 l 951 487 q 970 818 951 609 l 964 818 l 887 590 l 690 61 l 557 61 l 363 590 l 283 819 l 277 819 q 298 487 298 624 l 298 0 l 121 0 z "},"N":{"ha":1036,"x_min":121,"x_max":917,"o":"m 121 0 l 121 1073 l 308 1073 l 632 483 l 751 266 l 758 266 q 738 575 738 408 l 738 1073 l 917 1073 l 917 0 l 730 0 l 406 579 l 286 803 l 279 803 q 300 494 300 644 l 300 0 l 121 0 z "},"O":{"ha":1035,"x_min":57,"x_max":978,"o":"m 57 536 q 183 943 57 788 q 518 1097 309 1097 q 852 943 727 1097 q 978 536 978 789 q 852 129 978 282 q 518 -24 726 -24 q 183 129 309 -24 q 57 536 57 282 m 241 536 q 315 238 241 347 q 518 129 389 129 q 720 237 646 129 q 793 536 793 346 q 721 833 793 723 q 518 944 648 944 q 315 833 389 944 q 241 536 241 723 z "},"P":{"ha":944,"x_min":121,"x_max":897,"o":"m 121 0 l 121 1073 l 540 1073 q 802 983 708 1073 q 897 745 897 892 q 800 505 897 593 q 543 416 703 416 l 300 416 l 300 0 l 121 0 m 300 568 l 518 568 q 662 613 610 568 q 713 745 713 658 q 663 875 713 830 q 517 920 613 920 l 300 920 l 300 568 z "},"Q":{"ha":1035,"x_min":57,"x_max":978,"o":"m 57 536 q 184 944 57 791 q 518 1097 311 1097 q 852 943 726 1097 q 978 536 978 788 q 852 130 978 285 q 518 -24 727 -24 q 183 130 309 -24 q 57 536 57 285 m 241 536 q 315 238 241 347 q 518 129 389 129 q 720 238 647 129 q 793 536 793 347 q 720 836 793 727 q 518 944 647 944 q 315 834 389 944 q 241 536 241 724 m 477 338 l 579 430 l 978 16 l 876 -75 l 477 338 z "},"R":{"ha":974,"x_min":121,"x_max":963,"o":"m 300 581 l 525 581 q 665 625 616 581 q 713 754 713 670 q 663 874 713 829 q 521 920 613 920 l 300 920 l 300 581 m 121 0 l 121 1073 l 555 1073 q 809 986 720 1073 q 898 769 898 899 q 849 590 898 659 q 736 496 800 521 q 810 422 788 461 q 846 302 831 382 q 963 0 879 142 l 764 0 q 659 289 697 113 q 615 393 644 358 q 524 429 586 429 l 300 429 l 300 0 l 121 0 z "},"S":{"ha":887,"x_min":37,"x_max":845,"o":"m 37 229 l 194 282 q 304 172 232 214 q 463 129 376 129 q 606 172 552 129 q 661 285 661 216 q 603 399 661 358 q 434 477 545 439 q 220 562 275 530 q 75 802 75 644 q 179 1016 75 935 q 452 1097 283 1097 q 688 1033 590 1097 q 831 868 787 968 l 681 818 q 450 944 594 944 q 311 905 362 944 q 259 802 259 865 q 263 766 259 783 q 279 734 267 749 q 301 708 292 719 q 332 685 311 697 q 367 666 354 673 q 410 648 380 659 q 452 633 439 637 q 500 618 465 629 q 548 602 536 606 q 658 559 610 582 q 751 500 705 536 q 821 411 796 464 q 845 292 845 358 q 737 58 845 141 q 458 -24 629 -24 q 199 44 311 -24 q 37 229 88 113 z "},"T":{"ha":825,"x_min":15,"x_max":812,"o":"m 15 920 l 15 1073 l 812 1073 l 812 920 l 503 920 l 503 0 l 324 0 l 324 920 l 15 920 z "},"U":{"ha":1023,"x_min":115,"x_max":909,"o":"m 115 401 l 115 1073 l 296 1073 l 296 401 q 353 196 296 263 q 511 129 410 129 q 673 199 616 129 q 730 401 730 269 l 730 1073 l 909 1073 l 909 401 q 808 86 909 197 q 511 -24 708 -24 q 218 83 321 -24 q 115 401 115 190 z "},"V":{"ha":894,"x_min":1,"x_max":894,"o":"m 1 1073 l 195 1073 l 376 453 q 445 187 438 212 l 450 186 q 519 453 483 311 l 700 1073 l 894 1073 l 548 0 l 347 0 l 1 1073 z "},"W":{"ha":1276,"x_min":18,"x_max":1260,"o":"m 18 1073 l 206 1073 l 316 481 q 362 194 342 330 l 369 194 q 422 481 410 419 l 548 1073 l 728 1073 l 856 481 q 885 328 865 437 q 909 194 905 218 l 916 194 q 939 338 922 236 q 963 481 956 439 l 1072 1073 l 1260 1073 l 1019 0 l 814 0 l 692 583 q 642 856 644 837 l 636 856 q 586 583 636 852 l 464 0 l 260 0 l 18 1073 z "},"X":{"ha":899,"x_min":3,"x_max":901,"o":"m 3 0 l 346 551 l 20 1073 l 232 1073 l 362 840 q 404 764 374 817 q 448 684 433 712 l 453 684 q 541 840 457 692 l 673 1073 l 883 1073 l 556 551 l 901 0 l 693 0 l 547 251 q 453 414 528 282 l 448 414 q 357 251 369 273 l 212 0 l 3 0 z "},"Y":{"ha":916,"x_min":-3,"x_max":921,"o":"m -3 1073 l 202 1073 l 368 757 q 456 581 430 635 l 461 581 q 551 757 491 637 l 715 1073 l 921 1073 l 549 435 l 549 0 l 370 0 l 370 435 l -3 1073 z "},"Z":{"ha":879,"x_min":46,"x_max":838,"o":"m 46 130 l 602 920 l 91 920 l 91 1073 l 823 1073 l 823 940 l 266 152 l 838 152 l 838 0 l 46 0 l 46 130 z "},"[":{"ha":646,"x_min":180,"x_max":525,"o":"m 180 -175 l 180 1206 l 525 1206 l 525 1065 l 354 1065 l 354 -33 l 525 -33 l 525 -175 l 180 -175 z "},"\\":{"ha":528,"x_min":-22,"x_max":552,"o":"m -22 1142 l 157 1142 l 552 -77 l 373 -77 l -22 1142 z "},"]":{"ha":646,"x_min":121,"x_max":467,"o":"m 121 -33 l 294 -33 l 294 1065 l 121 1065 l 121 1206 l 467 1206 l 467 -175 l 121 -175 l 121 -33 z "},"^":{"ha":773,"x_min":15,"x_max":758,"o":"m 15 671 l 307 1181 l 467 1181 l 758 671 l 581 671 l 435 949 l 388 1044 l 387 1044 l 338 947 l 193 671 l 15 671 z "},"_":{"ha":711,"x_min":8,"x_max":707,"o":"m 8 -12 l 707 -12 l 707 -153 l 8 -153 l 8 -12 z "},"`":{"ha":503,"x_min":56,"x_max":384,"o":"m 244 754 l 56 1192 l 252 1192 l 384 754 l 244 754 z "},"a":{"ha":799,"x_min":47,"x_max":716,"o":"m 221 220 q 256 147 221 176 q 347 118 290 118 q 486 172 429 118 q 544 315 544 227 l 544 387 q 393 358 481 372 q 221 220 221 331 m 47 205 q 376 475 47 426 q 544 507 495 492 l 544 549 q 503 639 544 606 q 395 671 463 671 q 172 566 266 671 l 68 655 q 214 767 129 727 q 392 807 298 807 q 642 722 567 807 q 716 486 716 637 l 716 0 l 549 0 l 549 98 q 465 12 525 47 q 323 -24 404 -24 q 121 39 194 -24 q 47 205 47 103 z "},"b":{"ha":853,"x_min":102,"x_max":804,"o":"m 102 0 l 102 1108 l 271 1108 l 271 694 q 355 774 302 741 q 473 807 407 807 q 711 696 617 807 q 804 392 804 586 q 784 232 804 304 q 731 113 764 160 q 654 35 699 66 q 566 -11 610 3 q 475 -24 521 -24 q 349 13 406 -24 q 269 100 293 50 l 269 0 l 102 0 m 270 392 q 319 195 270 267 q 449 122 369 122 q 578 191 528 122 q 628 392 628 260 q 580 588 628 515 q 449 661 532 661 q 319 587 368 661 q 270 392 270 513 z "},"c":{"ha":753,"x_min":49,"x_max":727,"o":"m 49 391 q 150 693 49 579 q 411 807 251 807 q 608 736 528 807 q 708 575 688 666 l 562 534 q 506 623 545 586 q 412 661 467 661 q 275 583 324 661 q 225 391 225 506 q 278 193 225 263 q 412 122 331 122 q 517 163 472 122 q 581 258 563 205 l 727 216 q 614 48 701 121 q 411 -24 528 -24 q 150 89 251 -24 q 49 391 49 202 z "},"d":{"ha":853,"x_min":49,"x_max":751,"o":"m 49 392 q 143 696 49 585 q 382 807 237 807 q 503 774 452 807 q 581 696 553 741 l 581 1108 l 751 1108 l 751 0 l 586 0 l 586 102 q 505 13 562 50 q 381 -24 449 -24 q 263 -1 320 -24 q 157 69 206 22 q 78 200 107 117 q 49 392 49 283 m 225 392 q 275 193 225 264 q 406 122 324 122 q 534 195 484 122 q 583 392 583 267 q 535 587 583 513 q 406 661 487 661 q 273 587 320 661 q 225 392 225 514 z "},"e":{"ha":815,"x_min":49,"x_max":769,"o":"m 49 395 q 153 695 49 583 q 414 807 256 807 q 669 694 568 807 q 769 401 769 582 q 765 332 769 366 l 222 332 q 276 178 222 243 q 423 114 330 114 q 538 146 488 114 q 613 228 587 178 l 757 179 q 633 34 719 92 q 420 -24 548 -24 q 153 90 256 -24 q 49 395 49 203 m 225 453 l 594 453 q 547 606 594 543 q 414 669 499 669 q 277 604 328 669 q 225 453 227 540 z "},"f":{"ha":506,"x_min":33,"x_max":506,"o":"m 33 636 l 33 783 l 152 783 l 152 867 q 212 1048 152 987 q 382 1108 273 1108 l 506 1108 l 506 963 l 407 963 q 345 937 365 963 q 326 854 326 911 l 326 783 l 488 783 l 488 636 l 326 636 l 326 0 l 152 0 l 152 636 l 33 636 z "},"g":{"ha":830,"x_min":53,"x_max":739,"o":"m 228 406 q 275 220 228 286 q 399 153 321 153 q 521 218 475 153 q 567 407 567 283 q 521 594 567 528 q 400 661 475 661 q 275 591 321 661 q 228 406 228 522 m 53 404 q 144 697 53 587 q 377 807 235 807 q 498 771 449 807 q 568 692 548 735 l 568 783 l 739 783 l 739 109 q 653 -219 739 -113 q 388 -326 567 -326 q 83 -174 191 -326 l 197 -95 q 391 -187 275 -187 q 514 -130 465 -187 q 567 19 563 -73 q 570 109 570 73 q 492 36 544 65 q 382 7 441 7 q 144 116 235 7 q 53 404 53 225 z "},"h":{"ha":823,"x_min":102,"x_max":739,"o":"m 102 0 l 102 1108 l 271 1108 l 271 703 l 275 703 q 361 777 307 747 q 477 807 416 807 q 665 734 590 807 q 739 503 739 662 l 739 0 l 568 0 l 568 481 q 446 661 568 661 q 321 597 372 661 q 271 448 271 533 l 271 0 l 102 0 z "},"i":{"ha":391,"x_min":103,"x_max":288,"o":"m 103 899 l 103 1088 l 288 1088 l 288 899 l 103 899 m 111 0 l 111 783 l 281 783 l 281 0 l 111 0 z "},"j":{"ha":399,"x_min":-16,"x_max":297,"o":"m 110 899 l 110 1088 l 297 1088 l 297 899 l 110 899 m -16 -161 l 11 -161 q 118 -9 118 -161 l 118 783 l 290 783 l 290 -16 q 226 -235 290 -161 q 39 -308 161 -308 l -16 -308 l -16 -161 z "},"k":{"ha":770,"x_min":103,"x_max":785,"o":"m 103 0 l 103 1108 l 274 1108 l 274 471 l 552 783 l 768 783 l 479 464 l 785 0 l 585 0 l 368 343 l 274 240 l 274 0 l 103 0 z "},"l":{"ha":387,"x_min":109,"x_max":279,"o":"m 109 0 l 109 1108 l 279 1108 l 279 0 l 109 0 z "},"m":{"ha":1210,"x_min":94,"x_max":1127,"o":"m 94 0 l 94 783 l 260 783 l 260 692 q 334 769 281 731 q 461 807 387 807 q 651 667 590 807 q 676 705 661 686 q 720 750 692 724 q 791 791 747 776 q 887 807 836 807 q 1127 503 1127 807 l 1127 0 l 954 0 l 954 498 q 930 620 954 579 q 849 661 907 661 q 737 603 780 661 q 694 461 694 545 l 694 0 l 525 0 l 525 502 q 419 661 525 661 q 306 606 346 661 q 266 464 266 552 l 266 0 l 94 0 z "},"n":{"ha":817,"x_min":94,"x_max":734,"o":"m 94 0 l 94 783 l 260 783 l 260 684 l 262 684 q 337 767 282 727 q 479 807 392 807 q 665 735 595 807 q 734 503 734 663 l 734 0 l 562 0 l 562 480 q 439 661 562 661 q 315 601 365 661 q 266 453 266 541 l 266 0 l 94 0 z "},"o":{"ha":819,"x_min":49,"x_max":772,"o":"m 225 391 q 281 189 225 255 q 411 122 336 122 q 540 189 484 122 q 595 391 595 255 q 540 595 595 529 q 411 661 484 661 q 281 595 338 661 q 225 391 225 529 m 49 391 q 141 686 49 566 q 411 807 233 807 q 680 686 587 807 q 772 391 772 566 q 762 282 772 336 q 726 172 751 228 q 661 73 700 115 q 557 3 621 30 q 411 -24 492 -24 q 267 2 331 -24 q 162 70 202 28 q 96 168 122 111 q 59 279 69 224 q 49 391 49 334 z "},"p":{"ha":853,"x_min":102,"x_max":804,"o":"m 271 392 q 318 195 271 269 q 449 122 365 122 q 579 193 529 122 q 629 392 629 264 q 581 588 629 515 q 449 661 533 661 q 319 586 366 661 q 271 392 271 511 m 102 -320 l 102 783 l 267 783 l 267 681 q 473 807 339 807 q 710 695 616 807 q 804 392 804 583 q 774 201 804 285 q 695 71 745 118 q 589 -1 646 23 q 473 -24 533 -24 q 347 10 397 -24 q 273 91 296 45 l 273 -320 l 102 -320 z "},"q":{"ha":852,"x_min":49,"x_max":751,"o":"m 225 392 q 274 193 225 264 q 404 122 323 122 q 534 195 486 122 q 583 392 583 267 q 536 586 583 511 q 406 661 488 661 q 273 586 320 661 q 225 392 225 511 m 49 392 q 142 695 49 583 q 381 807 236 807 q 502 771 449 807 q 586 681 555 735 l 586 783 l 751 783 l 751 -320 l 581 -320 l 581 92 q 503 9 555 43 q 381 -24 452 -24 q 264 -1 321 -24 q 158 71 208 23 q 79 201 109 118 q 49 392 49 285 z "},"r":{"ha":545,"x_min":94,"x_max":549,"o":"m 94 0 l 94 783 l 259 783 l 259 699 q 333 774 285 742 q 448 807 381 807 q 549 789 510 807 l 549 633 q 448 650 498 650 q 313 581 359 650 q 266 399 266 513 l 266 0 l 94 0 z "},"s":{"ha":724,"x_min":35,"x_max":684,"o":"m 35 163 l 159 235 q 370 115 240 115 q 471 140 434 115 q 509 208 509 165 q 478 267 509 241 q 414 306 448 293 q 312 340 380 319 q 294 346 300 345 q 212 378 245 362 q 142 420 179 393 q 87 486 106 446 q 68 579 68 526 q 155 745 68 682 q 370 807 241 807 q 552 756 467 807 q 680 627 637 705 l 566 557 q 372 667 486 667 q 276 642 309 667 q 243 576 243 617 q 272 516 243 543 q 332 477 301 490 q 420 446 363 465 q 442 439 435 442 q 684 206 684 362 q 603 43 684 110 q 374 -24 522 -24 q 172 26 260 -24 q 35 163 83 76 z "},"t":{"ha":537,"x_min":24,"x_max":496,"o":"m 24 636 l 24 783 l 145 783 l 145 1015 l 316 1015 l 316 783 l 495 783 l 495 636 l 316 636 l 316 251 q 338 171 316 195 q 407 146 361 146 l 496 146 l 496 0 l 385 0 q 145 239 145 0 l 145 636 l 24 636 z "},"u":{"ha":814,"x_min":84,"x_max":720,"o":"m 84 283 l 84 783 l 256 783 l 256 305 q 385 122 256 122 q 506 188 463 122 q 549 345 549 254 l 549 783 l 720 783 l 720 0 l 555 0 l 555 91 l 553 91 q 481 12 534 49 q 347 -24 427 -24 q 257 -10 300 -24 q 174 36 214 4 q 109 132 133 68 q 84 283 84 195 z "},"v":{"ha":760,"x_min":12,"x_max":750,"o":"m 12 783 l 199 783 l 317 381 q 349 258 328 340 q 378 145 370 175 l 381 145 q 412 259 389 176 q 446 381 435 342 l 563 783 l 750 783 l 479 0 l 283 0 l 12 783 z "},"w":{"ha":1080,"x_min":12,"x_max":1069,"o":"m 12 783 l 197 783 l 278 389 q 319 167 286 343 l 324 167 q 347 283 331 205 q 368 389 362 362 l 450 783 l 631 783 l 715 387 q 736 281 720 355 q 758 167 751 206 l 764 167 q 786 289 770 205 q 804 389 802 373 l 884 783 l 1069 783 l 857 0 l 666 0 l 583 381 q 544 597 566 468 l 538 597 q 517 477 532 555 q 498 381 502 400 l 415 0 l 224 0 l 12 783 z "},"x":{"ha":776,"x_min":8,"x_max":766,"o":"m 8 0 l 286 401 l 22 783 l 229 783 l 330 613 q 384 518 368 545 l 389 518 q 442 613 411 557 l 543 783 l 751 783 l 487 401 l 766 0 l 563 0 l 448 189 q 418 237 437 206 q 389 286 399 269 l 384 286 q 326 189 378 277 l 210 0 l 8 0 z "},"y":{"ha":760,"x_min":9,"x_max":750,"o":"m 9 783 l 198 783 l 332 380 q 384 199 366 269 l 389 199 q 439 380 396 224 l 563 783 l 750 783 l 426 -103 q 314 -271 382 -222 q 144 -320 245 -320 l 91 -320 l 91 -176 l 115 -176 q 215 -150 176 -176 q 277 -58 254 -123 l 302 19 l 9 783 z "},"z":{"ha":713,"x_min":35,"x_max":680,"o":"m 35 0 l 35 114 l 439 636 l 68 636 l 68 783 l 663 783 l 663 675 l 256 146 l 680 146 l 680 0 l 35 0 z "},"{":{"ha":646,"x_min":84,"x_max":532,"o":"m 84 448 l 84 581 l 130 581 q 186 623 167 581 q 206 736 206 665 l 206 1000 q 262 1152 206 1099 q 410 1206 317 1206 l 532 1206 l 532 1065 l 441 1065 q 395 1042 412 1065 q 378 981 378 1020 l 378 715 q 275 514 378 583 q 378 320 378 450 l 378 54 q 444 -33 378 -33 l 532 -33 l 532 -175 l 410 -175 q 264 -123 321 -175 q 206 30 206 -72 l 206 298 q 186 404 206 361 q 130 448 167 448 l 84 448 z "},"|":{"ha":429,"x_min":129,"x_max":301,"o":"m 129 -228 l 129 1256 l 301 1256 l 301 -228 l 129 -228 z "},"}":{"ha":646,"x_min":115,"x_max":563,"o":"m 115 -33 l 205 -33 q 269 54 269 -33 l 269 320 q 372 515 269 446 q 269 715 269 583 l 269 981 q 252 1042 269 1020 q 206 1065 235 1065 l 115 1065 l 115 1206 l 237 1206 q 385 1152 330 1206 q 441 1000 441 1099 l 441 736 q 517 581 441 581 l 563 581 l 563 448 l 517 448 q 460 404 479 448 q 441 298 441 361 l 441 30 q 383 -123 441 -72 q 237 -175 326 -175 l 115 -175 l 115 -33 z "},"~":{"ha":1152,"x_min":92,"x_max":1061,"o":"m 92 438 q 403 689 190 689 q 516 660 463 689 q 602 596 570 631 q 673 532 633 562 q 747 503 712 503 q 801 515 776 503 q 842 540 826 526 q 872 579 857 553 q 894 619 887 605 q 911 661 901 633 l 1061 595 q 753 343 966 343 q 661 363 705 343 q 585 410 617 382 q 524 465 553 437 q 464 512 495 492 q 403 532 433 532 q 241 373 304 532 l 92 438 z "},"¡":{"ha":453,"x_min":113,"x_max":342,"o":"m 130 -296 l 144 477 l 311 477 l 321 -296 l 130 -296 m 113 582 l 113 788 l 342 788 l 342 582 l 113 582 z "},"¤":{"ha":959,"x_min":31,"x_max":928,"o":"m 31 217 l 191 365 q 141 532 141 435 q 190 700 141 631 l 31 845 l 151 958 l 301 811 q 480 865 388 865 q 659 811 568 865 l 810 958 l 928 845 l 770 700 q 819 532 819 633 q 769 365 819 435 l 928 217 l 810 106 l 659 251 q 480 197 572 197 q 301 251 385 197 l 151 106 l 31 217 m 298 532 q 349 404 298 457 q 480 350 400 350 q 611 403 560 350 q 662 532 662 456 q 610 660 662 608 q 480 712 559 712 q 349 658 400 712 q 298 532 298 604 z "},"§":{"ha":803,"x_min":56,"x_max":747,"o":"m 56 79 l 171 165 q 256 98 203 125 q 372 72 309 72 q 506 145 506 72 q 488 187 506 170 q 430 222 469 205 l 277 294 q 83 524 83 381 q 202 724 83 637 q 121 876 121 789 q 200 1036 121 975 q 438 1097 279 1097 q 747 948 636 1097 l 635 859 q 434 948 552 948 q 334 928 369 948 q 300 875 300 909 q 304 850 300 861 q 320 829 309 840 q 342 810 331 818 q 373 793 353 803 q 408 776 393 783 q 450 758 423 769 q 492 739 476 747 q 654 651 613 684 q 743 476 743 582 q 635 277 743 361 q 685 145 685 218 q 607 -18 685 42 q 372 -79 529 -79 q 182 -32 269 -79 q 56 79 95 15 m 263 529 q 289 462 263 486 q 373 411 315 438 l 498 354 q 564 476 564 415 q 535 539 564 513 q 449 591 506 566 l 336 648 q 263 529 263 594 z "},"¨":{"ha":751,"x_min":140,"x_max":613,"o":"m 140 883 l 140 1073 l 326 1073 l 326 883 l 140 883 m 427 883 l 427 1073 l 613 1073 l 613 883 l 427 883 z "},"©":{"ha":1245,"x_min":53,"x_max":1194,"o":"m 343 544 q 425 794 343 705 q 640 883 507 883 q 800 828 739 883 q 883 694 860 773 l 762 658 q 642 760 719 760 q 528 704 567 760 q 488 544 488 648 q 530 381 488 434 q 642 328 571 328 q 726 361 692 328 q 776 438 761 393 l 898 403 q 809 262 876 319 q 640 205 742 205 q 426 294 509 205 q 343 544 343 382 m 53 543 q 215 965 53 806 q 623 1124 377 1124 q 1033 964 872 1124 q 1194 543 1194 803 q 1033 125 1194 286 q 623 -37 872 -37 q 215 121 377 -37 q 53 543 53 279 m 180 543 q 302 202 180 330 q 623 75 425 75 q 941 199 814 75 q 1067 543 1067 323 q 943 886 1067 758 q 623 1013 819 1013 q 303 885 426 1013 q 180 543 180 757 z "},"ª":{"ha":563,"x_min":35,"x_max":522,"o":"m 42 416 l 42 526 l 522 526 l 522 416 l 42 416 m 159 783 q 182 732 159 753 q 245 712 206 712 q 342 750 302 712 q 382 849 382 788 l 382 901 q 328 890 363 897 q 273 880 292 883 q 229 867 255 876 q 191 848 203 859 q 168 821 178 838 q 159 783 159 804 m 35 773 q 61 865 35 827 q 132 923 87 903 q 218 954 176 943 q 312 972 260 964 q 382 986 363 981 l 382 1015 q 353 1078 382 1055 q 278 1100 324 1100 q 123 1025 189 1100 l 49 1088 q 146 1162 84 1131 q 277 1194 208 1194 q 452 1135 400 1194 q 505 970 505 1077 l 505 628 l 388 628 l 388 697 q 229 612 336 612 q 87 656 140 612 q 35 773 35 701 z "},"­":{"ha":823,"x_min":81,"x_max":742,"o":"m 81 458 l 81 610 l 742 610 l 742 458 l 81 458 z "},"®":{"ha":1245,"x_min":53,"x_max":1194,"o":"m 397 210 l 397 868 l 669 868 q 824 811 769 868 q 879 674 879 754 q 793 515 879 563 q 830 469 819 494 q 850 401 841 445 q 930 210 867 330 l 769 210 q 703 388 726 273 q 677 457 690 446 q 647 468 666 468 l 543 468 l 543 210 l 397 210 m 543 579 l 648 579 q 709 602 688 579 q 731 661 731 624 q 709 716 731 693 q 648 739 686 739 l 543 739 l 543 579 m 53 545 q 215 966 53 808 q 623 1124 377 1124 q 1033 964 872 1124 q 1194 545 1194 803 q 1034 125 1194 288 q 623 -37 873 -37 q 216 123 378 -37 q 53 545 53 282 m 180 545 q 300 205 180 330 q 623 81 420 81 q 943 204 819 81 q 1067 545 1067 327 q 943 885 1067 764 q 623 1006 818 1006 q 302 882 423 1006 q 180 545 180 758 z "},"°":{"ha":628,"x_min":119,"x_max":510,"o":"m 119 890 q 175 1025 119 970 q 315 1081 231 1081 q 453 1027 396 1081 q 510 890 510 974 q 452 753 510 808 q 315 697 395 697 q 176 753 233 697 q 119 890 119 808 m 231 890 q 254 828 231 853 q 315 803 278 803 q 374 828 350 803 q 399 890 399 853 q 375 950 399 925 q 315 975 351 975 q 254 950 277 975 q 231 890 231 925 z "},"±":{"ha":823,"x_min":56,"x_max":766,"o":"m 56 582 l 56 730 l 326 730 l 326 967 l 496 967 l 496 730 l 766 730 l 766 582 l 496 582 l 496 349 l 326 349 l 326 582 l 56 582 m 58 115 l 58 264 l 765 264 l 765 115 l 58 115 z "},"²":{"ha":480,"x_min":35,"x_max":437,"o":"m 35 1013 q 50 1060 42 1042 q 79 1116 57 1078 q 142 1174 100 1153 q 240 1195 183 1195 q 382 1144 327 1195 q 437 1009 437 1093 q 346 826 437 920 q 296 777 338 817 q 232 711 255 738 q 193 655 209 685 l 435 655 l 435 551 l 42 551 q 85 706 42 640 q 247 884 129 772 q 312 1010 312 945 q 292 1069 312 1048 q 239 1090 273 1090 q 140 983 167 1090 l 35 1013 z "},"³":{"ha":480,"x_min":23,"x_max":453,"o":"m 23 690 l 121 727 q 232 640 159 640 q 300 665 273 640 q 327 735 327 689 q 297 801 327 776 q 220 826 267 826 q 155 823 176 826 l 155 928 q 217 925 203 925 q 280 947 255 925 q 305 1010 305 970 q 283 1068 305 1046 q 228 1090 262 1090 q 172 1067 191 1090 q 138 1001 153 1043 l 37 1032 q 74 1117 49 1082 q 130 1167 99 1152 q 184 1188 160 1183 q 233 1194 209 1194 q 376 1145 323 1194 q 430 1021 430 1096 q 359 883 430 932 q 453 735 453 836 q 393 589 453 643 q 233 536 334 536 q 102 576 160 536 q 23 690 45 616 z "},"´":{"ha":557,"x_min":121,"x_max":483,"o":"m 121 944 l 275 1200 l 483 1200 l 266 944 l 121 944 z "},"¶":{"ha":924,"x_min":73,"x_max":807,"o":"m 73 800 q 151 1036 73 947 q 374 1126 228 1126 l 807 1126 l 807 -104 l 666 -104 l 666 968 l 559 968 l 559 -104 l 418 -104 l 418 471 q 354 461 385 461 q 154 549 235 461 q 73 800 73 636 z "},"·":{"ha":509,"x_min":141,"x_max":369,"o":"m 141 411 l 141 620 l 369 620 l 369 411 l 141 411 z "},"¸":{"ha":452,"x_min":62,"x_max":388,"o":"m 62 -194 q 153 -206 119 -206 q 228 -167 228 -206 q 98 -110 228 -117 l 180 58 l 331 58 l 288 -31 q 388 -170 388 -65 q 337 -281 388 -235 q 167 -328 286 -328 q 62 -316 99 -328 l 62 -194 z "},"¹":{"ha":480,"x_min":64,"x_max":326,"o":"m 64 982 l 64 1080 l 100 1080 q 216 1162 216 1080 l 216 1187 l 326 1187 l 326 552 l 201 552 l 201 982 l 64 982 z "},"º":{"ha":572,"x_min":33,"x_max":540,"o":"m 157 903 q 196 762 157 808 q 286 715 235 715 q 377 762 338 715 q 416 903 416 808 q 377 1046 416 1000 q 286 1092 338 1092 q 195 1046 233 1092 q 157 903 157 1000 m 33 903 q 97 1111 33 1027 q 286 1195 161 1195 q 475 1111 410 1195 q 540 903 540 1027 q 528 807 540 854 q 488 714 515 760 q 409 640 461 669 q 286 612 357 612 q 165 639 217 612 q 85 711 113 666 q 45 805 58 757 q 33 903 33 853 m 42 425 l 42 533 l 532 533 l 532 425 l 42 425 z "},"¼":{"ha":1423,"x_min":91,"x_max":1339,"o":"m 91 913 l 91 1034 l 140 1034 q 266 1123 266 1034 l 266 1157 l 399 1157 l 399 423 l 247 423 l 247 913 l 91 913 m 817 193 l 1130 667 l 1255 667 l 1255 206 l 1339 206 l 1339 77 l 1255 77 l 1255 -73 l 1105 -73 l 1105 77 l 817 77 l 817 193 m 970 206 l 1105 206 l 1105 350 q 1106 394 1105 362 q 1107 431 1107 426 l 1065 358 l 970 206 m 245 -75 l 932 1142 l 1093 1142 l 410 -75 l 245 -75 z "},"½":{"ha":1423,"x_min":91,"x_max":1309,"o":"m 91 913 l 91 1034 l 140 1034 q 266 1123 266 1034 l 266 1157 l 399 1157 l 399 423 l 247 423 l 247 913 l 91 913 m 841 460 q 1080 674 888 674 q 1244 616 1180 674 q 1309 458 1309 557 q 1288 362 1309 408 q 1243 288 1267 316 q 1175 217 1219 260 q 1035 61 1061 109 l 1308 61 l 1308 -68 l 850 -68 q 896 109 850 34 q 1084 320 941 184 q 1157 460 1157 389 q 1136 523 1157 500 q 1078 545 1115 545 q 1037 535 1055 545 q 1008 513 1019 525 q 989 480 998 502 q 979 450 981 458 q 971 420 977 441 l 841 460 m 225 -75 l 920 1142 l 1081 1142 l 391 -75 l 225 -75 z "},"¾":{"ha":1423,"x_min":76,"x_max":1345,"o":"m 76 595 l 197 640 q 321 541 239 541 q 394 567 365 541 q 423 643 423 593 q 391 715 423 688 q 307 742 358 742 q 227 738 264 742 l 227 868 q 302 865 256 865 q 370 889 342 865 q 399 956 399 913 q 376 1017 399 993 q 316 1042 353 1042 q 267 1025 288 1042 q 237 989 247 1008 q 217 939 228 970 l 92 978 q 182 1124 117 1078 q 323 1171 247 1171 q 488 1113 426 1171 q 551 968 551 1055 q 473 812 551 872 q 576 643 576 755 q 507 474 576 536 q 323 412 438 412 q 175 455 244 412 q 76 595 106 498 m 823 193 l 1135 667 l 1261 667 l 1261 206 l 1345 206 l 1345 77 l 1261 77 l 1261 -73 l 1112 -73 l 1112 77 l 823 77 l 823 193 m 977 206 l 1112 206 l 1112 345 q 1113 391 1112 357 q 1114 431 1114 426 l 1069 353 l 977 206 m 324 -75 l 1024 1142 l 1185 1142 l 488 -75 l 324 -75 z "},"¿":{"ha":834,"x_min":91,"x_max":747,"o":"m 91 -16 q 116 101 91 49 q 177 188 141 153 q 249 256 213 222 q 310 335 285 289 q 335 438 335 381 l 335 481 l 515 481 l 515 423 q 491 301 515 355 q 431 211 467 247 q 360 142 396 175 q 300 68 324 110 q 275 -24 275 26 q 311 -129 275 -91 q 408 -167 347 -167 q 589 -7 528 -167 l 747 -60 q 627 -245 716 -171 q 410 -320 538 -320 q 180 -237 269 -320 q 91 -16 91 -153 m 309 583 l 309 788 l 538 788 l 538 583 l 309 583 z "},"Å":{"ha":960,"x_min":-5,"x_max":966,"o":"m 320 410 l 640 410 l 549 688 q 528 754 540 718 q 504 835 517 791 q 484 901 491 879 l 476 901 q 411 688 472 887 l 320 410 m -5 0 l 382 1073 l 579 1073 l 966 0 l 776 0 l 688 266 l 273 266 l 184 0 l -5 0 m 269 1308 q 328 1452 269 1392 q 480 1512 388 1512 q 632 1451 572 1512 q 692 1308 692 1390 q 630 1161 692 1221 q 480 1101 568 1101 q 331 1160 393 1101 q 269 1308 269 1219 m 387 1308 q 413 1241 387 1268 q 480 1214 439 1214 q 545 1240 518 1214 q 571 1308 571 1265 q 545 1374 571 1347 q 480 1401 519 1401 q 414 1373 441 1401 q 387 1308 387 1345 z "},"×":{"ha":814,"x_min":52,"x_max":761,"o":"m 52 298 l 300 533 l 52 766 l 163 875 l 407 637 l 650 875 l 761 768 l 514 533 l 761 297 l 650 190 l 407 427 l 163 190 l 52 298 z "},"÷":{"ha":814,"x_min":39,"x_max":774,"o":"m 302 713 l 302 911 l 507 911 l 507 713 l 302 713 m 39 453 l 39 605 l 774 605 l 774 453 l 39 453 m 302 145 l 302 345 l 507 345 l 507 145 l 302 145 z "},"ˇ":{"ha":732,"x_min":95,"x_max":646,"o":"m 95 1196 l 260 1196 l 369 1058 l 479 1196 l 646 1196 l 442 967 l 292 967 l 95 1196 z "},"ː":{"ha":505,"x_min":88,"x_max":418,"o":"m 88 879 l 418 879 l 252 613 l 88 879 m 88 92 l 252 357 l 418 92 l 88 92 z "},"˘":{"ha":745,"x_min":136,"x_max":612,"o":"m 136 1198 l 263 1198 q 297 1129 270 1156 q 373 1103 324 1103 q 483 1198 467 1103 l 612 1198 q 595 1128 608 1161 q 557 1062 583 1095 q 484 1010 532 1029 q 373 990 437 990 q 199 1053 254 990 q 136 1198 144 1116 z "},"˙":{"ha":749,"x_min":278,"x_max":475,"o":"m 278 1009 l 278 1199 l 475 1199 l 475 1009 l 278 1009 z "},"˚":{"ha":692,"x_min":130,"x_max":563,"o":"m 130 1063 q 191 1211 130 1149 q 346 1272 252 1272 q 502 1210 441 1272 q 563 1063 563 1147 q 499 915 563 975 q 346 854 435 854 q 194 914 258 854 q 130 1063 130 974 m 250 1063 q 277 994 250 1021 q 346 967 304 967 q 414 994 387 967 q 442 1063 442 1020 q 415 1133 442 1105 q 346 1160 388 1160 q 277 1131 304 1160 q 250 1063 250 1103 z "},"˛":{"ha":742,"x_min":47,"x_max":365,"o":"m 47 -197 q 94 -91 47 -140 q 198 -11 140 -42 l 365 -11 q 201 -163 201 -100 q 252 -213 201 -213 q 351 -197 289 -213 l 351 -307 q 222 -326 294 -326 q 92 -291 137 -326 q 47 -197 47 -256 z "},"˝":{"ha":723,"x_min":75,"x_max":629,"o":"m 327 958 l 458 1214 l 629 1214 l 461 958 l 327 958 m 75 958 l 205 1214 l 376 1214 l 208 958 l 75 958 z "},"Ω":{"ha":1078,"x_min":57,"x_max":1023,"o":"m 57 623 q 189 962 57 827 q 540 1097 320 1097 q 891 964 760 1097 q 1023 623 1023 830 q 943 361 1023 477 q 727 199 864 245 l 727 153 l 1001 153 l 1001 0 l 594 0 l 594 298 q 774 422 712 328 q 836 623 836 517 q 754 848 836 754 q 540 941 673 941 q 326 848 407 941 q 245 623 245 755 q 305 422 245 515 q 486 298 365 328 l 486 0 l 77 0 l 77 153 l 351 153 l 351 199 q 136 362 214 245 q 57 623 57 479 z "},"―":{"ha":1401,"x_min":52,"x_max":1351,"o":"m 52 441 l 52 593 l 1351 593 l 1351 441 l 52 441 z "},"‘":{"ha":514,"x_min":145,"x_max":389,"o":"m 145 760 l 145 910 q 300 1248 145 1135 l 389 1173 q 311 1084 334 1131 q 289 960 289 1038 l 385 960 l 385 760 l 145 760 z "},"’":{"ha":514,"x_min":126,"x_max":370,"o":"m 130 993 l 130 1192 l 370 1192 l 370 1042 q 216 705 370 818 l 126 780 q 204 869 182 822 q 227 993 227 916 l 130 993 z "},"“":{"ha":803,"x_min":113,"x_max":708,"o":"m 464 760 l 464 910 q 620 1248 464 1135 l 708 1173 q 631 1084 652 1131 q 609 960 609 1038 l 704 960 l 704 760 l 464 760 m 113 760 l 113 910 q 269 1260 113 1147 l 357 1185 q 279 1092 302 1145 q 256 960 256 1039 l 351 960 l 351 760 l 113 760 z "},"”":{"ha":803,"x_min":96,"x_max":693,"o":"m 96 780 q 174 869 152 822 q 195 993 195 916 l 100 993 l 100 1192 l 340 1192 l 340 1042 q 184 705 340 818 l 96 780 m 449 768 q 527 863 505 811 q 549 993 549 914 l 453 993 l 453 1192 l 693 1192 l 693 1042 q 537 692 693 804 l 449 768 z "},"†":{"ha":741,"x_min":5,"x_max":736,"o":"m 5 747 l 5 886 l 294 886 l 294 1181 l 444 1181 l 444 886 l 736 886 l 736 747 l 444 747 l 444 -107 l 294 -107 l 294 747 l 5 747 z "},"‡":{"ha":741,"x_min":5,"x_max":736,"o":"m 5 189 l 5 327 l 294 327 l 294 747 l 5 747 l 5 886 l 294 886 l 294 1181 l 444 1181 l 444 886 l 736 886 l 736 747 l 444 747 l 444 327 l 736 327 l 736 189 l 444 189 l 444 -107 l 294 -107 l 294 189 l 5 189 z "},"‥":{"ha":941,"x_min":121,"x_max":822,"o":"m 593 411 l 593 621 l 822 621 l 822 411 l 593 411 m 121 411 l 121 621 l 350 621 l 350 411 l 121 411 z "},"…":{"ha":1413,"x_min":121,"x_max":1294,"o":"m 1065 411 l 1065 621 l 1294 621 l 1294 411 l 1065 411 m 593 411 l 593 621 l 822 621 l 822 411 l 593 411 m 121 411 l 121 621 l 350 621 l 350 411 l 121 411 z "},"‰":{"ha":1973,"x_min":85,"x_max":1891,"o":"m 1328 248 q 1407 442 1328 365 q 1610 519 1485 519 q 1811 443 1731 519 q 1891 248 1891 366 q 1811 52 1891 129 q 1610 -26 1731 -26 q 1406 52 1484 -26 q 1328 248 1328 130 m 1491 248 q 1525 144 1491 182 q 1610 106 1560 106 q 1693 145 1659 106 q 1728 248 1728 184 q 1694 350 1728 312 q 1610 388 1660 388 q 1524 351 1557 388 q 1491 248 1491 313 m 715 248 q 793 441 715 363 q 997 519 872 519 q 1198 443 1118 519 q 1278 248 1278 366 q 1198 51 1278 127 q 997 -26 1118 -26 q 793 52 872 -26 q 715 248 715 130 m 878 248 q 912 144 878 182 q 997 106 947 106 q 1081 145 1047 106 q 1115 248 1115 184 q 1081 349 1115 311 q 997 388 1047 388 q 911 350 945 388 q 878 248 878 312 m 85 826 q 164 1020 85 943 q 366 1097 243 1097 q 568 1020 490 1097 q 647 826 647 943 q 568 630 647 707 q 366 553 488 553 q 164 631 243 553 q 85 826 85 709 m 247 826 q 281 723 247 761 q 366 685 316 685 q 452 724 418 685 q 486 826 486 764 q 452 928 486 888 q 366 967 418 967 q 281 928 315 967 q 247 826 247 888 m 217 -7 l 972 1080 l 1152 1080 l 395 -7 l 217 -7 z "},"′":{"ha":503,"x_min":121,"x_max":449,"o":"m 121 754 l 251 1192 l 449 1192 l 260 754 l 121 754 z "},"″":{"ha":803,"x_min":98,"x_max":751,"o":"m 423 754 l 555 1192 l 751 1192 l 563 754 l 423 754 m 98 754 l 228 1192 l 426 1192 l 236 754 l 98 754 z "},"※":{"ha":1400,"x_min":133,"x_max":1268,"o":"m 160 81 l 602 521 l 160 959 l 262 1062 l 700 623 l 1139 1062 l 1241 959 l 798 521 l 1241 81 l 1139 -20 l 700 420 l 262 -20 l 160 81 m 585 964 q 618 1047 585 1013 q 701 1081 652 1081 q 784 1047 750 1081 q 818 964 818 1013 q 784 882 818 916 q 701 849 750 849 q 618 882 652 849 q 585 964 585 916 m 133 521 q 167 604 133 570 q 248 637 201 637 q 331 604 297 637 q 365 521 365 570 q 331 439 365 473 q 248 406 297 406 q 167 439 201 406 q 133 521 133 472 m 1035 521 q 1069 604 1035 570 q 1152 637 1103 637 q 1234 604 1200 637 q 1268 521 1268 570 q 1234 440 1268 473 q 1152 407 1200 407 q 1069 439 1103 407 q 1035 521 1035 472 m 585 76 q 618 159 585 125 q 701 193 652 193 q 784 158 750 193 q 818 76 818 123 q 784 -6 818 27 q 701 -39 750 -39 q 618 -6 652 -39 q 585 76 585 27 z "},"⁂":{"ha":1419,"x_min":126,"x_max":1293,"o":"m 126 141 l 286 221 l 126 300 l 190 397 l 327 293 l 311 464 l 427 464 l 411 293 l 549 397 l 612 300 l 452 221 l 613 141 l 545 45 l 411 149 l 427 -23 l 311 -23 l 327 149 l 193 45 l 126 141 m 465 838 l 625 918 l 465 997 l 528 1095 l 666 990 l 650 1161 l 766 1161 l 750 989 l 888 1095 l 951 997 l 792 918 l 952 840 l 884 742 l 750 846 l 766 675 l 650 675 l 666 846 l 532 742 l 465 838 m 806 141 l 966 221 l 807 300 l 869 397 l 1006 293 l 991 464 l 1107 464 l 1090 293 l 1230 397 l 1293 300 l 1133 221 l 1293 141 l 1226 45 l 1090 149 l 1107 -23 l 991 -23 l 1006 149 l 872 45 l 806 141 z "},"⁴":{"ha":481,"x_min":11,"x_max":461,"o":"m 11 774 l 282 1187 l 385 1187 l 385 783 l 461 783 l 461 680 l 385 680 l 385 544 l 263 544 l 263 680 l 11 680 l 11 774 m 133 783 l 263 783 l 263 926 q 264 962 263 939 q 264 991 264 986 l 263 991 q 231 937 237 948 l 133 783 z "},"ⁿ":{"ha":650,"x_min":76,"x_max":582,"o":"m 76 551 l 76 1175 l 199 1175 l 199 1095 l 202 1095 q 264 1160 217 1127 q 382 1194 312 1194 q 532 1133 481 1194 q 582 955 582 1072 l 582 551 l 457 551 l 457 937 q 351 1089 457 1089 q 244 1038 288 1089 q 201 913 201 987 l 201 551 l 76 551 z "},"₁":{"ha":480,"x_min":64,"x_max":326,"o":"m 64 430 l 64 528 l 100 528 q 216 610 216 528 l 216 635 l 326 635 l 326 0 l 201 0 l 201 430 l 64 430 z "},"₂":{"ha":480,"x_min":35,"x_max":437,"o":"m 35 461 q 50 508 42 490 q 79 564 57 526 q 142 622 100 601 q 240 643 183 643 q 382 592 327 643 q 437 457 437 541 q 346 274 437 368 q 296 225 338 264 q 232 159 255 186 q 193 103 209 133 l 435 103 l 435 -1 l 42 -1 q 85 154 42 88 q 247 332 129 220 q 312 458 312 393 q 292 517 312 496 q 239 538 273 538 q 140 431 167 538 l 35 461 z "},"₃":{"ha":480,"x_min":23,"x_max":453,"o":"m 23 138 l 121 175 q 232 88 159 88 q 300 113 273 88 q 327 183 327 137 q 297 249 327 224 q 220 274 267 274 q 155 271 176 274 l 155 376 q 217 373 203 373 q 280 395 255 373 q 305 458 305 418 q 283 516 305 494 q 228 538 262 538 q 172 515 191 538 q 138 449 153 491 l 37 480 q 74 565 49 530 q 130 615 99 600 q 184 636 160 631 q 233 642 209 642 q 376 593 323 642 q 430 469 430 544 q 359 331 430 380 q 453 183 453 283 q 393 37 453 91 q 233 -16 334 -16 q 102 24 160 -16 q 23 138 45 64 z "},"₄":{"ha":480,"x_min":11,"x_max":461,"o":"m 11 224 l 282 636 l 385 636 l 385 232 l 461 232 l 461 129 l 385 129 l 385 -7 l 263 -7 l 263 129 l 11 129 l 11 224 m 133 232 l 263 232 l 263 376 q 264 412 263 388 q 264 441 264 435 l 263 441 q 231 387 237 397 l 133 232 z "},"€":{"ha":1050,"x_min":26,"x_max":1021,"o":"m 26 355 l 26 483 l 142 483 q 140 537 140 521 q 141 564 140 545 q 142 593 142 583 l 27 593 l 27 720 l 161 720 q 325 996 203 895 q 613 1097 446 1097 q 848 1025 751 1097 q 993 838 945 952 l 841 788 q 609 945 755 945 q 448 884 519 945 q 351 720 376 823 l 699 720 l 699 593 l 328 593 q 326 537 326 557 q 328 483 326 521 l 697 483 l 697 355 l 353 355 q 449 189 380 250 q 612 127 518 127 q 768 182 703 127 q 861 307 834 236 l 1021 256 q 873 59 977 144 q 612 -26 769 -26 q 325 77 448 -26 q 163 355 202 179 l 26 355 z "},"℃":{"ha":1364,"x_min":52,"x_max":1333,"o":"m 453 537 q 586 946 453 795 q 929 1097 719 1097 q 1162 1023 1065 1097 q 1306 838 1259 948 l 1153 788 q 926 944 1066 944 q 715 833 793 944 q 637 537 637 723 q 716 239 637 349 q 926 129 795 129 q 1078 180 1012 129 q 1173 307 1143 232 l 1333 256 q 1281 162 1313 208 q 1201 73 1249 117 q 1082 2 1153 28 q 929 -24 1012 -24 q 588 125 723 -24 q 453 537 453 275 m 52 958 q 107 1093 52 1038 q 247 1149 163 1149 q 385 1095 328 1149 q 442 958 442 1042 q 385 821 442 876 q 247 765 327 765 q 109 821 165 765 q 52 958 52 876 m 163 958 q 186 896 163 921 q 247 871 210 871 q 307 896 282 871 q 331 958 331 921 q 307 1018 331 993 q 247 1043 283 1043 q 186 1018 209 1043 q 163 958 163 993 z "},"℉":{"ha":1238,"x_min":52,"x_max":1210,"o":"m 526 0 l 526 1073 l 1210 1073 l 1210 920 l 705 920 l 705 613 l 1157 613 l 1157 463 l 705 463 l 705 0 l 526 0 m 52 958 q 107 1093 52 1038 q 247 1149 163 1149 q 385 1095 328 1149 q 442 958 442 1042 q 385 821 442 876 q 247 765 327 765 q 109 821 165 765 q 52 958 52 876 m 163 958 q 186 896 163 921 q 247 871 210 871 q 307 896 282 871 q 331 958 331 921 q 307 1018 331 993 q 247 1043 283 1043 q 186 1018 209 1043 q 163 958 163 993 z "},"ℓ":{"ha":865,"x_min":58,"x_max":802,"o":"m 58 176 q 184 237 127 203 q 170 422 170 336 q 214 758 170 606 q 351 1004 259 910 q 564 1097 442 1097 q 745 1016 688 1097 q 802 804 802 935 q 691 458 802 636 q 407 176 581 281 q 487 130 429 130 q 574 159 533 130 q 642 232 616 189 l 789 161 q 670 28 746 81 q 487 -24 594 -24 q 245 96 323 -24 q 127 43 212 75 l 58 176 m 350 395 q 353 358 350 385 q 355 330 355 331 q 513 496 449 400 q 600 669 576 591 q 624 811 624 746 q 610 911 624 879 q 559 944 595 944 q 412 785 475 944 q 350 395 350 627 z "},"№":{"ha":1451,"x_min":121,"x_max":1404,"o":"m 1042 463 q 1076 334 1042 376 q 1157 292 1111 292 q 1236 334 1202 292 q 1271 463 1271 376 q 1236 591 1271 551 q 1157 632 1202 632 q 1077 591 1112 632 q 1042 463 1042 551 m 910 463 q 972 663 910 582 q 1157 745 1035 745 q 1341 663 1278 745 q 1404 463 1404 582 q 1392 370 1404 415 q 1354 279 1379 324 q 1277 208 1328 235 q 1157 180 1226 180 q 1039 207 1089 180 q 962 277 989 233 q 922 366 935 320 q 910 463 910 412 m 909 1 l 909 110 l 1404 110 l 1404 1 l 909 1 m 121 0 l 121 1073 l 320 1073 l 583 488 l 662 300 l 665 300 q 658 564 661 373 l 658 1073 l 836 1073 l 836 0 l 633 0 l 355 618 l 296 762 l 292 762 q 300 518 300 648 l 300 0 l 121 0 z "},"℡":{"ha":1389,"x_min":15,"x_max":1771,"o":"m 1048 388 q 1152 684 1048 574 q 1415 793 1256 793 q 1670 683 1569 793 q 1771 395 1771 572 q 1767 327 1771 359 l 1222 327 q 1276 175 1222 239 q 1424 111 1329 111 q 1539 142 1489 111 q 1614 224 1588 174 l 1759 175 q 1635 33 1721 90 q 1421 -23 1549 -23 q 1152 88 1256 -23 q 1048 388 1048 199 m 1225 445 l 1595 445 q 1548 595 1595 533 q 1415 658 1500 658 q 1277 594 1328 658 q 1225 445 1226 530 m 15 905 l 15 1055 l 812 1055 l 812 905 l 503 905 l 503 0 l 324 0 l 324 905 l 15 905 m 1046 0 l 1046 1089 l 1214 1089 l 1214 0 l 1046 0 z "},"™":{"ha":1172,"x_min":7,"x_max":1109,"o":"m 536 552 l 536 1160 l 680 1160 l 784 869 l 822 755 l 861 869 l 964 1160 l 1109 1160 l 1109 552 l 983 552 l 983 838 q 986 914 983 865 l 868 586 l 776 586 l 659 918 q 661 838 661 892 l 661 552 l 536 552 m 7 1047 l 7 1160 l 467 1160 l 467 1047 l 300 1047 l 300 552 l 174 552 l 174 1047 l 7 1047 z "},"⅓":{"ha":1423,"x_min":92,"x_max":1328,"o":"m 92 913 l 92 1034 l 141 1034 q 266 1123 266 1034 l 266 1157 l 400 1157 l 400 423 l 248 423 l 248 913 l 92 913 m 829 100 l 949 145 q 1074 46 991 46 q 1147 72 1118 46 q 1176 148 1176 98 q 1143 220 1176 193 q 1059 247 1111 247 q 981 243 1019 247 l 981 373 q 1057 370 1010 370 q 1123 394 1096 370 q 1150 461 1150 418 q 1128 522 1150 498 q 1069 547 1105 547 q 1020 530 1040 547 q 990 494 1000 513 q 970 444 981 475 l 844 483 q 934 629 868 583 q 1076 675 1000 675 q 1241 618 1179 675 q 1303 473 1303 560 q 1226 317 1303 377 q 1328 148 1328 262 q 1259 -21 1328 41 q 1076 -83 1191 -83 q 928 -40 997 -83 q 829 100 859 3 m 227 -75 l 913 1142 l 1074 1142 l 391 -75 l 227 -75 z "},"⅔":{"ha":1423,"x_min":76,"x_max":1352,"o":"m 76 960 q 315 1176 123 1176 q 480 1117 415 1176 q 545 959 545 1058 q 524 863 545 909 q 478 789 502 817 q 410 718 454 762 q 270 562 296 609 l 543 562 l 543 433 l 85 433 q 132 610 85 534 q 320 822 178 686 q 392 962 392 890 q 371 1025 392 1002 q 313 1047 350 1047 q 272 1037 290 1047 q 243 1015 254 1027 q 224 982 233 1004 q 214 951 216 960 q 206 922 212 943 l 76 960 m 853 100 l 974 145 q 1099 46 1016 46 q 1171 72 1142 46 q 1200 148 1200 98 q 1168 220 1200 193 q 1084 247 1135 247 q 1004 243 1042 247 l 1004 373 q 1080 370 1034 370 q 1147 394 1119 370 q 1175 461 1175 418 q 1152 522 1175 498 q 1093 547 1130 547 q 1044 530 1065 547 q 1015 494 1024 513 q 994 444 1005 475 l 868 483 q 958 629 892 583 q 1100 675 1024 675 q 1265 618 1203 675 q 1326 473 1326 562 q 1251 317 1326 376 q 1352 148 1352 262 q 1284 -21 1352 41 q 1100 -83 1215 -83 q 952 -40 1021 -83 q 853 100 883 3 m 302 -75 l 983 1142 l 1143 1142 l 467 -75 l 302 -75 z "},"⅛":{"ha":1423,"x_min":90,"x_max":1336,"o":"m 90 913 l 90 1034 l 137 1034 q 263 1123 263 1034 l 263 1157 l 397 1157 l 397 423 l 245 423 l 245 913 l 90 913 m 1012 463 q 1033 400 1012 423 q 1086 377 1054 377 q 1141 403 1120 377 q 1161 463 1161 429 q 1141 522 1161 498 q 1086 547 1122 547 q 1032 523 1053 547 q 1012 463 1012 499 m 941 317 q 859 468 859 373 q 924 616 859 557 q 1086 675 989 675 q 1249 616 1184 675 q 1313 468 1313 557 q 1232 317 1313 377 q 1336 140 1336 258 q 1266 -21 1336 41 q 1086 -83 1196 -83 q 911 -24 983 -83 q 838 140 838 35 q 941 317 838 259 m 990 146 q 1017 75 990 103 q 1086 46 1044 46 q 1156 74 1128 46 q 1183 146 1183 102 q 1156 220 1183 190 q 1086 250 1128 250 q 1017 220 1044 250 q 990 146 990 190 m 203 -75 l 907 1142 l 1067 1142 l 368 -75 l 203 -75 z "},"⅜":{"ha":1423,"x_min":61,"x_max":1350,"o":"m 61 594 l 183 640 q 199 608 193 620 q 221 577 206 595 q 258 549 236 559 q 307 540 279 540 q 379 566 350 540 q 408 642 408 593 q 376 714 408 686 q 293 742 345 742 q 213 736 263 742 l 213 867 q 289 864 243 864 q 356 888 328 864 q 384 956 384 913 q 361 1017 384 993 q 302 1042 339 1042 q 254 1025 274 1042 q 223 988 233 1008 q 202 937 213 968 l 77 977 q 168 1123 102 1077 q 309 1169 233 1169 q 474 1112 412 1169 q 536 967 536 1055 q 460 812 536 871 q 532 746 503 789 q 562 642 562 703 q 492 473 562 534 q 308 412 423 412 q 159 454 228 412 q 61 594 91 496 m 1025 463 q 1046 400 1025 423 q 1100 377 1067 377 q 1154 403 1134 377 q 1175 463 1175 429 q 1155 522 1175 498 q 1100 547 1135 547 q 1046 523 1066 547 q 1025 463 1025 499 m 955 317 q 872 468 872 373 q 937 616 872 557 q 1100 675 1002 675 q 1263 616 1198 675 q 1328 468 1328 557 q 1246 317 1328 377 q 1350 140 1350 259 q 1280 -21 1350 41 q 1100 -83 1210 -83 q 924 -24 997 -83 q 852 140 852 35 q 955 317 852 259 m 1005 146 q 1031 75 1005 103 q 1100 46 1058 46 q 1169 74 1142 46 q 1196 146 1196 102 q 1169 220 1196 190 q 1100 250 1142 250 q 1031 220 1058 250 q 1005 146 1005 190 m 289 -75 l 977 1142 l 1138 1142 l 454 -75 l 289 -75 z "},"⅝":{"ha":1423,"x_min":62,"x_max":1350,"o":"m 62 579 l 190 625 q 294 536 220 536 q 369 569 342 536 q 396 656 396 602 q 368 743 396 709 q 293 777 339 777 q 186 709 239 777 l 90 747 l 129 1150 l 510 1150 l 510 1021 l 264 1021 l 250 887 q 332 905 286 905 q 488 838 427 905 q 549 659 549 770 q 486 482 549 556 q 298 408 422 408 q 62 579 133 408 m 1025 463 q 1046 400 1025 423 q 1100 377 1067 377 q 1154 403 1134 377 q 1175 463 1175 429 q 1155 522 1175 498 q 1100 547 1135 547 q 1046 523 1066 547 q 1025 463 1025 499 m 955 317 q 872 468 872 373 q 937 616 872 557 q 1100 675 1002 675 q 1263 616 1198 675 q 1328 468 1328 557 q 1246 317 1328 377 q 1350 140 1350 259 q 1280 -21 1350 41 q 1100 -83 1210 -83 q 924 -24 997 -83 q 852 140 852 35 q 955 317 852 259 m 1005 146 q 1031 75 1005 103 q 1100 46 1058 46 q 1169 74 1142 46 q 1196 146 1196 102 q 1169 220 1196 190 q 1100 250 1142 250 q 1031 220 1058 250 q 1005 146 1005 190 m 283 -75 l 971 1142 l 1131 1142 l 448 -75 l 283 -75 z "},"⅞":{"ha":1423,"x_min":79,"x_max":1344,"o":"m 79 1021 l 79 1153 l 552 1153 l 552 1053 q 305 423 385 788 l 152 423 q 373 1021 212 734 l 79 1021 m 1019 463 q 1040 400 1019 423 q 1095 377 1062 377 q 1149 403 1128 377 q 1169 463 1169 429 q 1149 522 1169 498 q 1095 547 1130 547 q 1040 523 1061 547 q 1019 463 1019 499 m 948 317 q 867 468 867 372 q 932 616 867 557 q 1095 675 997 675 q 1257 616 1192 675 q 1321 468 1321 557 q 1240 317 1321 377 q 1344 140 1344 258 q 1274 -21 1344 41 q 1095 -83 1204 -83 q 918 -24 991 -83 q 845 140 845 35 q 948 317 845 259 m 998 146 q 1025 75 998 103 q 1095 46 1053 46 q 1164 74 1137 46 q 1191 146 1191 102 q 1164 220 1191 190 q 1095 250 1137 250 q 1025 220 1053 250 q 998 146 998 190 m 216 -75 l 897 1142 l 1058 1142 l 381 -75 l 216 -75 z "},"Ⅰ":{"ha":1389,"x_min":605,"x_max":783,"o":"m 605 0 l 605 1073 l 783 1073 l 783 0 l 605 0 z "},"Ⅱ":{"ha":1389,"x_min":404,"x_max":986,"o":"m 807 0 l 807 1073 l 986 1073 l 986 0 l 807 0 m 404 0 l 404 1073 l 583 1073 l 583 0 l 404 0 z "},"Ⅲ":{"ha":1389,"x_min":267,"x_max":1124,"o":"m 267 0 l 267 1073 l 446 1073 l 446 0 l 267 0 m 605 0 l 605 1073 l 784 1073 l 784 0 l 605 0 m 945 0 l 945 1073 l 1124 1073 l 1124 0 l 945 0 z "},"Ⅳ":{"ha":1389,"x_min":189,"x_max":1348,"o":"m 445 1073 l 640 1073 l 823 453 q 894 187 886 212 l 899 186 q 968 453 932 311 l 1152 1073 l 1348 1073 l 997 0 l 795 0 l 445 1073 m 189 0 l 189 1073 l 368 1073 l 368 0 l 189 0 z "},"Ⅴ":{"ha":1389,"x_min":251,"x_max":1154,"o":"m 251 1073 l 446 1073 l 629 453 q 700 187 692 212 l 705 186 q 774 453 738 311 l 958 1073 l 1154 1073 l 803 0 l 601 0 l 251 1073 z "},"Ⅵ":{"ha":1389,"x_min":65,"x_max":1219,"o":"m 65 1073 l 260 1073 l 444 453 q 514 187 506 212 l 519 186 q 589 453 552 311 l 772 1073 l 968 1073 l 617 0 l 415 0 l 65 1073 m 1040 0 l 1040 1073 l 1219 1073 l 1219 0 l 1040 0 z "},"Ⅶ":{"ha":1389,"x_min":33,"x_max":1289,"o":"m 33 1073 l 222 1073 l 354 471 q 407 199 363 412 l 415 199 q 439 323 420 231 q 468 471 458 416 l 598 1073 l 788 1073 l 505 0 l 316 0 l 33 1073 m 1118 0 l 1118 1073 l 1289 1073 l 1289 0 l 1118 0 m 819 0 l 819 1073 l 991 1073 l 991 0 l 819 0 z "},"Ⅷ":{"ha":1389,"x_min":23,"x_max":1309,"o":"m 1154 0 l 1154 1073 l 1309 1073 l 1309 0 l 1154 0 m 918 0 l 918 1073 l 1073 1073 l 1073 0 l 918 0 m 684 0 l 684 1073 l 838 1073 l 838 0 l 684 0 m 23 1073 l 201 1073 l 293 499 q 334 206 315 343 l 339 206 q 359 341 343 237 q 384 498 376 445 l 473 1073 l 652 1073 l 437 0 l 235 0 l 23 1073 z "},"Ⅸ":{"ha":1389,"x_min":178,"x_max":1331,"o":"m 433 0 l 776 551 l 450 1073 l 662 1073 l 792 840 q 833 764 804 817 q 878 684 863 712 l 883 684 q 971 840 887 692 l 1103 1073 l 1313 1073 l 986 551 l 1331 0 l 1123 0 l 977 251 q 883 414 958 282 l 878 414 q 787 251 799 273 l 642 0 l 433 0 m 178 0 l 178 1073 l 357 1073 l 357 0 l 178 0 z "},"ⅰ":{"ha":1389,"x_min":602,"x_max":787,"o":"m 602 899 l 602 1088 l 787 1088 l 787 899 l 602 899 m 610 0 l 610 783 l 780 783 l 780 0 l 610 0 z "},"ⅱ":{"ha":1389,"x_min":389,"x_max":1001,"o":"m 817 899 l 817 1088 l 1001 1088 l 1001 899 l 817 899 m 825 0 l 825 783 l 994 783 l 994 0 l 825 0 m 389 899 l 389 1088 l 574 1088 l 574 899 l 389 899 m 397 0 l 397 783 l 567 783 l 567 0 l 397 0 z "},"ⅲ":{"ha":1389,"x_min":292,"x_max":1097,"o":"m 913 899 l 913 1088 l 1097 1088 l 1097 899 l 913 899 m 921 0 l 921 783 l 1090 783 l 1090 0 l 921 0 m 292 899 l 292 1088 l 476 1088 l 476 899 l 292 899 m 300 0 l 300 783 l 469 783 l 469 0 l 300 0 m 602 899 l 602 1088 l 787 1088 l 787 899 l 602 899 m 610 0 l 610 783 l 780 783 l 780 0 l 610 0 z "},"ⅳ":{"ha":1389,"x_min":267,"x_max":1261,"o":"m 524 783 l 711 783 l 829 381 q 861 258 840 340 q 890 145 882 175 l 892 145 q 924 259 901 176 q 958 381 947 342 l 1074 783 l 1261 783 l 990 0 l 795 0 l 524 783 m 267 899 l 267 1088 l 452 1088 l 452 899 l 267 899 m 275 0 l 275 783 l 445 783 l 445 0 l 275 0 z "},"ⅴ":{"ha":1389,"x_min":330,"x_max":1067,"o":"m 330 783 l 517 783 l 635 381 q 667 258 646 340 q 696 145 688 175 l 699 145 q 730 259 707 176 q 764 381 753 342 l 880 783 l 1067 783 l 796 0 l 601 0 l 330 783 z "},"ⅵ":{"ha":1389,"x_min":165,"x_max":1149,"o":"m 165 783 l 353 783 l 471 381 q 503 258 481 340 q 532 145 524 175 l 534 145 q 566 259 543 176 q 600 381 589 342 l 716 783 l 903 783 l 632 0 l 437 0 l 165 783 m 964 899 l 964 1088 l 1149 1088 l 1149 899 l 964 899 m 972 0 l 972 783 l 1142 783 l 1142 0 l 972 0 z "},"ⅶ":{"ha":1389,"x_min":52,"x_max":1244,"o":"m 52 783 l 239 783 l 357 381 q 389 258 368 340 q 418 145 410 175 l 420 145 q 452 259 429 176 q 486 381 475 342 l 602 783 l 789 783 l 518 0 l 323 0 l 52 783 m 769 899 l 769 1088 l 954 1088 l 954 899 l 769 899 m 777 0 l 777 783 l 947 783 l 947 0 l 777 0 m 1059 899 l 1059 1088 l 1244 1088 l 1244 899 l 1059 899 m 1067 0 l 1067 783 l 1237 783 l 1237 0 l 1067 0 z "},"ⅷ":{"ha":1389,"x_min":26,"x_max":1325,"o":"m 26 783 l 194 783 l 278 415 q 307 279 289 366 q 332 157 324 193 l 338 157 q 366 289 347 199 q 392 415 384 378 l 472 783 l 640 783 l 420 0 l 247 0 l 26 783 m 662 899 l 662 1088 l 836 1088 l 836 899 l 662 899 m 670 0 l 670 783 l 830 783 l 830 0 l 670 0 m 910 899 l 910 1088 l 1082 1088 l 1082 899 l 910 899 m 917 0 l 917 783 l 1076 783 l 1076 0 l 917 0 m 1153 899 l 1153 1088 l 1325 1088 l 1325 899 l 1153 899 m 1160 0 l 1160 783 l 1320 783 l 1320 0 l 1160 0 z "},"ⅸ":{"ha":1389,"x_min":239,"x_max":1245,"o":"m 492 0 l 769 401 l 506 783 l 712 783 l 812 613 q 865 518 849 545 l 871 518 q 924 613 892 557 l 1023 783 l 1230 783 l 968 401 l 1245 0 l 1043 0 l 929 189 q 899 237 918 206 q 871 286 880 269 l 865 286 q 808 189 860 277 l 693 0 l 492 0 m 239 899 l 239 1088 l 423 1088 l 423 899 l 239 899 m 247 0 l 247 783 l 416 783 l 416 0 l 247 0 z "},"ⅹ":{"ha":1389,"x_min":319,"x_max":1077,"o":"m 319 0 l 597 401 l 332 783 l 540 783 l 640 613 q 694 518 678 545 l 700 518 q 753 613 722 557 l 853 783 l 1062 783 l 798 401 l 1077 0 l 873 0 l 758 189 q 728 237 747 206 q 700 286 709 269 l 694 286 q 636 189 689 277 l 521 0 l 319 0 z "},"←":{"ha":1400,"x_min":77,"x_max":1279,"o":"m 77 528 l 519 814 l 563 730 l 408 591 l 1279 591 l 1279 465 l 408 465 l 563 327 l 519 243 l 77 528 z "},"↑":{"ha":882,"x_min":156,"x_max":726,"o":"m 156 749 l 442 1191 l 726 749 l 644 705 l 506 860 l 506 -107 l 380 -107 l 380 860 l 240 705 l 156 749 z "},"→":{"ha":1400,"x_min":121,"x_max":1322,"o":"m 121 465 l 121 591 l 991 591 l 837 730 l 880 814 l 1322 528 l 880 243 l 837 327 l 991 465 l 121 465 z "},"↓":{"ha":882,"x_min":156,"x_max":726,"o":"m 156 324 l 240 368 l 380 213 l 380 1180 l 506 1180 l 506 213 l 644 368 l 726 324 l 442 -118 l 156 324 z "},"↔":{"ha":1400,"x_min":43,"x_max":1356,"o":"m 43 528 l 426 814 l 472 735 l 343 591 l 1058 591 l 928 735 l 974 814 l 1356 528 l 974 243 l 928 321 l 1058 465 l 343 465 l 472 321 l 426 243 l 43 528 z "},"↕":{"ha":882,"x_min":163,"x_max":719,"o":"m 163 241 l 233 296 l 377 164 l 377 909 l 233 777 l 163 831 l 441 1191 l 719 831 l 648 777 l 505 909 l 505 164 l 648 296 l 719 241 l 441 -118 l 163 241 z "},"↖":{"ha":1400,"x_min":110,"x_max":1290,"o":"m 228 564 l 110 1069 l 627 1005 l 625 905 l 393 899 l 1290 98 l 1206 3 l 309 806 l 330 574 l 228 564 z "},"↗":{"ha":1400,"x_min":110,"x_max":1290,"o":"m 110 98 l 1008 899 l 774 905 l 774 1005 l 1290 1069 l 1172 564 l 1070 574 l 1092 806 l 195 3 l 110 98 z "},"↘":{"ha":1400,"x_min":110,"x_max":1290,"o":"m 110 978 l 195 1073 l 1092 270 l 1070 502 l 1172 511 l 1290 7 l 774 71 l 774 171 l 1008 176 l 110 978 z "},"↙":{"ha":1400,"x_min":110,"x_max":1290,"o":"m 110 7 l 228 511 l 330 502 l 309 270 l 1206 1073 l 1290 978 l 393 176 l 625 171 l 627 71 l 110 7 z "},"⇒":{"ha":1400,"x_min":121,"x_max":1322,"o":"m 121 347 l 121 464 l 1081 464 l 1145 529 l 1081 591 l 121 591 l 121 709 l 967 709 l 826 852 l 926 926 l 1322 529 l 926 129 l 826 205 l 967 347 l 121 347 z "},"⇔":{"ha":1400,"x_min":43,"x_max":1356,"o":"m 43 529 l 439 926 l 540 852 l 399 709 l 1001 709 l 860 852 l 960 926 l 1356 529 l 960 129 l 860 205 l 1001 347 l 399 347 l 540 205 l 439 129 l 43 529 m 1115 591 l 285 591 l 221 529 l 285 464 l 1115 464 l 1179 529 l 1115 591 z "},"∀":{"ha":960,"x_min":-5,"x_max":967,"o":"m 320 663 l 411 385 q 476 171 452 252 l 484 171 q 516 272 492 197 q 551 385 540 347 l 642 663 l 320 663 m -5 1073 l 186 1073 l 274 807 l 688 807 l 776 1073 l 967 1073 l 579 0 l 382 0 l -5 1073 z "},"∂":{"ha":928,"x_min":69,"x_max":860,"o":"m 69 286 q 115 507 69 401 q 256 684 160 612 q 480 757 353 757 q 594 732 541 757 q 678 669 647 707 l 678 727 q 623 885 675 827 q 475 943 571 943 q 270 914 381 943 l 270 1070 q 495 1097 384 1097 q 698 1036 613 1097 q 821 879 783 975 q 860 665 860 783 q 831 425 860 543 q 745 205 802 308 q 591 39 689 102 q 368 -24 492 -24 q 153 62 237 -24 q 69 286 69 149 m 256 293 q 291 175 256 220 q 388 130 326 130 q 566 248 486 130 q 661 500 646 365 q 602 571 647 543 q 509 600 557 600 q 331 512 406 600 q 256 293 256 425 z "},"∇":{"ha":1103,"x_min":30,"x_max":1073,"o":"m 30 1073 l 1073 1073 l 540 -50 l 30 1073 m 277 943 l 572 278 l 879 943 l 277 943 z "},"∈":{"ha":972,"x_min":68,"x_max":894,"o":"m 68 446 q 106 661 68 562 q 230 827 144 760 q 437 894 316 894 l 894 894 l 894 755 l 449 755 q 289 679 351 755 q 224 517 227 602 l 892 517 l 892 377 l 222 377 q 291 213 228 288 q 450 138 354 138 l 894 138 l 894 0 l 437 0 q 243 66 330 0 q 113 233 157 132 q 68 446 68 334 z "},"∋":{"ha":972,"x_min":80,"x_max":906,"o":"m 80 0 l 80 138 l 524 138 q 682 214 620 138 q 750 378 745 289 l 80 378 l 80 517 l 749 517 q 684 679 746 602 q 524 755 621 755 l 80 755 l 80 894 l 536 894 q 743 827 656 894 q 867 662 829 761 q 906 448 906 563 q 861 234 906 335 q 730 66 817 133 q 537 0 644 0 l 80 0 z "},"∏":{"ha":1076,"x_min":27,"x_max":1050,"o":"m 153 -170 l 153 1050 l 27 1050 l 27 1200 l 1050 1200 l 1050 1050 l 924 1050 l 924 -170 l 745 -170 l 745 1050 l 332 1050 l 332 -170 l 153 -170 z "},"∑":{"ha":1065,"x_min":95,"x_max":990,"o":"m 95 -165 l 95 -34 l 509 555 l 123 1073 l 123 1198 l 981 1198 l 981 1044 l 373 1044 l 724 557 l 328 -12 l 990 -12 l 990 -165 l 95 -165 z "},"√":{"ha":1112,"x_min":68,"x_max":1070,"o":"m 68 359 l 68 475 l 347 475 l 484 186 l 940 1371 l 1070 1371 l 524 -41 l 416 -41 l 225 359 l 68 359 z "},"∝":{"ha":1242,"x_min":65,"x_max":1202,"o":"m 65 541 q 96 694 65 628 q 178 798 127 761 q 282 854 228 836 q 392 872 336 872 q 504 857 453 872 q 593 810 555 841 q 653 754 631 780 q 701 692 675 728 q 1002 872 815 872 q 1198 819 1118 872 l 1130 697 q 1006 739 1077 739 q 869 677 926 739 q 777 540 811 616 q 1005 342 873 342 q 1128 381 1080 342 l 1202 263 q 1004 208 1118 208 q 703 388 812 208 q 392 208 585 208 q 281 226 336 208 q 177 282 227 244 q 96 387 127 320 q 65 541 65 454 m 214 541 q 264 401 214 460 q 392 343 315 343 q 625 540 532 343 q 392 738 537 738 q 263 680 313 738 q 214 541 213 621 z "},"∞":{"ha":1401,"x_min":65,"x_max":1336,"o":"m 65 540 q 96 692 65 625 q 176 797 126 760 q 281 853 225 834 q 393 872 336 872 q 701 693 581 872 q 830 825 760 777 q 1012 872 901 872 q 1123 853 1069 872 q 1227 797 1177 834 q 1306 693 1276 760 q 1336 540 1336 627 q 1306 387 1336 453 q 1227 283 1276 320 q 1124 227 1179 245 q 1012 208 1069 208 q 827 257 897 208 q 701 388 757 307 q 576 256 647 305 q 393 208 505 208 q 279 227 335 208 q 174 285 224 247 q 95 389 125 323 q 65 540 65 456 m 214 540 q 264 400 214 458 q 393 342 315 342 q 625 541 532 342 q 393 738 537 738 q 264 680 315 738 q 214 540 214 621 m 779 541 q 871 402 812 463 q 1012 342 929 342 q 1139 400 1090 342 q 1188 540 1188 458 q 1139 680 1188 621 q 1012 738 1089 738 q 779 541 871 738 z "},"∠":{"ha":1095,"x_min":81,"x_max":1002,"o":"m 81 28 l 81 115 l 789 975 l 903 892 l 319 171 l 1002 171 l 1002 28 l 81 28 z "},"∥":{"ha":735,"x_min":130,"x_max":605,"o":"m 130 -84 l 130 1073 l 273 1073 l 273 -84 l 130 -84 m 461 -84 l 461 1073 l 605 1073 l 605 -84 l 461 -84 z "},"∧":{"ha":966,"x_min":45,"x_max":921,"o":"m 45 31 l 404 959 l 562 959 l 921 31 l 779 -26 l 483 776 l 187 -26 l 45 31 z "},"∨":{"ha":966,"x_min":45,"x_max":921,"o":"m 45 928 l 187 985 l 483 183 l 779 985 l 921 928 l 562 0 l 404 0 l 45 928 z "},"∩":{"ha":966,"x_min":94,"x_max":872,"o":"m 94 0 l 94 621 q 199 883 94 781 q 483 985 305 985 q 764 885 655 985 q 872 623 872 785 l 872 0 l 708 0 l 708 612 q 646 782 708 719 q 483 845 585 845 q 319 780 378 845 q 259 612 259 715 l 259 0 l 94 0 z "},"∪":{"ha":966,"x_min":94,"x_max":872,"o":"m 94 338 l 94 959 l 259 959 l 259 349 q 319 180 259 245 q 483 115 378 115 q 646 178 585 115 q 708 349 708 241 l 708 959 l 872 959 l 872 336 q 764 74 872 174 q 483 -26 655 -26 q 199 76 305 -26 q 94 338 94 178 z "},"∫":{"ha":675,"x_min":16,"x_max":663,"o":"m 16 -160 q 132 -172 122 -172 q 222 -136 190 -172 q 255 -46 255 -100 l 255 1081 q 326 1266 255 1198 q 525 1335 397 1335 q 663 1325 590 1335 l 663 1175 q 551 1185 587 1185 q 458 1152 490 1185 q 427 1062 427 1118 l 427 -43 q 354 -250 427 -179 q 149 -320 281 -320 q 16 -311 99 -320 l 16 -160 z "},"∬":{"ha":1118,"x_min":16,"x_max":1105,"o":"m 16 -160 q 132 -172 122 -172 q 222 -136 190 -172 q 255 -46 255 -100 l 255 1081 q 326 1266 255 1198 q 525 1335 397 1335 q 663 1325 590 1335 l 663 1175 q 551 1185 587 1185 q 458 1152 490 1185 q 427 1062 427 1118 l 427 -43 q 354 -250 427 -179 q 149 -320 281 -320 q 16 -311 99 -320 l 16 -160 m 458 -160 q 574 -172 560 -172 q 665 -136 632 -172 q 697 -46 697 -100 l 697 1081 q 768 1266 697 1198 q 967 1335 840 1335 q 1105 1325 1032 1335 l 1105 1175 q 993 1185 1029 1185 q 901 1152 932 1185 q 869 1062 869 1118 l 869 -43 q 796 -250 869 -179 q 591 -320 723 -320 q 458 -311 537 -320 l 458 -160 z "},"∮":{"ha":825,"x_min":20,"x_max":804,"o":"m 90 -160 q 203 -172 168 -172 q 294 -136 262 -172 q 327 -46 327 -100 l 327 175 q 107 286 194 195 q 20 515 20 377 q 107 740 20 651 q 327 848 194 829 l 327 1082 q 398 1267 327 1199 q 597 1336 469 1336 q 736 1326 663 1336 l 736 1176 q 623 1187 661 1187 q 531 1154 562 1187 q 500 1063 500 1120 l 500 848 q 718 740 632 830 q 804 515 804 650 q 720 290 804 381 q 500 175 636 199 l 500 -43 q 427 -250 500 -179 q 221 -320 353 -320 q 90 -311 172 -320 l 90 -160 m 500 713 l 500 311 q 615 387 574 330 q 656 515 656 445 q 615 638 656 582 q 500 713 574 694 m 327 713 q 212 645 255 699 q 170 515 170 591 q 213 382 170 438 q 327 309 256 327 l 327 713 z "},"∴":{"ha":987,"x_min":137,"x_max":852,"o":"m 385 665 l 385 873 l 602 873 l 602 665 l 385 665 m 137 187 l 137 396 l 350 396 l 350 187 l 137 187 m 637 187 l 637 396 l 852 396 l 852 187 l 637 187 z "},"∵":{"ha":987,"x_min":137,"x_max":852,"o":"m 137 666 l 137 875 l 350 875 l 350 666 l 137 666 m 385 189 l 385 397 l 602 397 l 602 189 l 385 189 m 637 666 l 637 875 l 852 875 l 852 666 l 637 666 z "},"∼":{"ha":918,"x_min":66,"x_max":853,"o":"m 66 514 q 321 677 174 677 q 471 624 384 677 q 591 571 559 571 q 738 675 671 571 l 853 593 q 744 475 810 524 q 597 427 678 427 q 492 454 545 427 q 395 507 438 480 q 326 534 351 534 q 182 431 251 534 l 66 514 z "},"∽":{"ha":918,"x_min":66,"x_max":853,"o":"m 66 590 l 182 673 q 326 570 251 570 q 395 597 351 570 q 492 650 438 624 q 597 677 545 677 q 744 629 678 677 q 853 510 810 581 l 738 429 q 591 533 671 533 q 471 479 559 533 q 321 426 384 426 q 66 590 175 426 z "},"≒":{"ha":918,"x_min":85,"x_max":834,"o":"m 110 812 l 110 1013 l 312 1013 l 312 812 l 110 812 m 85 586 l 85 723 l 834 723 l 834 586 l 85 586 m 85 335 l 85 472 l 834 472 l 834 335 l 85 335 m 609 43 l 609 244 l 811 244 l 811 43 l 609 43 z "},"≠":{"ha":918,"x_min":85,"x_max":834,"o":"m 85 338 l 85 476 l 359 476 l 429 614 l 85 614 l 85 751 l 499 751 l 600 951 l 709 899 l 635 751 l 834 751 l 834 614 l 566 614 l 495 476 l 834 476 l 834 338 l 426 338 l 320 129 l 213 184 l 290 338 l 85 338 z "},"≡":{"ha":918,"x_min":85,"x_max":834,"o":"m 85 685 l 85 819 l 834 819 l 834 685 l 85 685 m 85 468 l 85 602 l 834 602 l 834 468 l 85 468 m 85 250 l 85 384 l 834 384 l 834 250 l 85 250 z "},"≤":{"ha":918,"x_min":85,"x_max":845,"o":"m 85 578 l 85 708 l 772 1032 l 845 911 l 259 643 l 845 373 l 772 252 l 85 578 m 85 42 l 85 186 l 834 186 l 834 42 l 85 42 z "},"≥":{"ha":918,"x_min":75,"x_max":834,"o":"m 75 373 l 661 643 l 75 911 l 148 1032 l 834 708 l 834 578 l 148 252 l 75 373 m 85 42 l 85 186 l 834 186 l 834 42 l 85 42 z "},"≪":{"ha":1306,"x_min":81,"x_max":1233,"o":"m 81 486 l 81 614 l 715 974 l 789 852 l 248 549 l 789 247 l 715 126 l 81 486 m 526 486 l 526 614 l 1160 970 l 1233 849 l 693 549 l 1233 250 l 1160 129 l 526 486 z "},"≫":{"ha":1306,"x_min":73,"x_max":1225,"o":"m 73 250 l 614 549 l 73 849 l 146 970 l 780 614 l 780 486 l 146 129 l 73 250 m 518 247 l 1059 549 l 518 852 l 591 974 l 1225 614 l 1225 486 l 591 126 l 518 247 z "},"⊂":{"ha":932,"x_min":66,"x_max":852,"o":"m 66 529 q 162 779 66 680 q 414 878 258 878 l 852 878 l 852 739 l 426 739 q 271 683 327 739 q 214 526 214 627 q 272 368 214 423 q 423 313 330 313 l 852 313 l 852 174 l 410 174 q 163 273 260 174 q 66 529 66 372 z "},"⊃":{"ha":932,"x_min":80,"x_max":865,"o":"m 80 174 l 80 313 l 510 313 q 661 368 604 313 q 718 526 718 423 q 662 683 718 627 q 507 739 606 739 l 80 739 l 80 878 l 519 878 q 770 779 674 878 q 865 529 865 680 q 768 273 865 372 q 522 174 671 174 l 80 174 z "},"⊆":{"ha":932,"x_min":66,"x_max":853,"o":"m 66 674 q 152 904 66 810 q 384 998 237 998 l 853 998 l 853 859 l 395 859 q 264 808 309 859 q 220 674 220 758 q 268 537 220 586 q 396 488 316 488 l 853 488 l 853 350 l 385 350 q 153 443 239 350 q 66 674 66 536 m 88 76 l 88 214 l 853 214 l 853 76 l 88 76 z "},"⊇":{"ha":932,"x_min":80,"x_max":865,"o":"m 80 350 l 80 488 l 536 488 q 665 537 616 488 q 713 674 713 586 q 667 809 713 758 q 536 860 621 860 l 80 860 l 80 1000 l 548 1000 q 780 905 694 1000 q 865 675 865 811 q 779 444 865 537 q 547 350 693 350 l 80 350 m 80 76 l 80 214 l 844 214 l 844 76 l 80 76 z "},"⊙":{"ha":1389,"x_min":107,"x_max":1280,"o":"m 107 525 q 273 943 107 773 q 693 1114 439 1114 q 1114 944 948 1114 q 1280 525 1280 774 q 1114 106 1280 275 q 693 -62 947 -62 q 273 106 439 -62 q 107 525 107 275 m 220 525 q 356 180 220 319 q 693 42 492 42 q 1031 180 894 42 q 1168 525 1168 319 q 1031 869 1168 730 q 693 1008 894 1008 q 357 869 494 1008 q 220 525 220 730 m 549 528 q 591 630 549 589 q 694 671 633 671 q 797 630 754 671 q 840 528 840 589 q 797 423 840 465 q 694 381 754 381 q 591 423 633 381 q 549 528 549 465 z "},"⌒":{"ha":1374,"x_min":88,"x_max":1284,"o":"m 88 255 q 258 682 88 509 q 686 854 427 854 q 1115 682 945 854 q 1284 255 1284 509 l 1169 255 q 1030 604 1169 463 q 686 745 891 745 q 342 604 481 745 q 203 255 203 464 l 88 255 z "},"▒":{"ha":1389,"x_min":20,"x_max":1369,"o":"m 1301 -1 q 1349 -20 1329 -1 q 1369 -69 1369 -39 q 1350 -118 1369 -99 q 1301 -137 1331 -137 q 1252 -118 1271 -137 q 1233 -69 1233 -99 q 1252 -21 1233 -41 q 1301 -1 1271 -1 m 1099 -1 q 1147 -20 1127 -1 q 1166 -69 1166 -39 q 1147 -118 1166 -99 q 1099 -137 1128 -137 q 1050 -118 1069 -137 q 1031 -69 1031 -99 q 1050 -21 1031 -41 q 1099 -1 1069 -1 m 897 -1 q 945 -20 925 -1 q 964 -69 964 -39 q 945 -118 964 -99 q 897 -137 926 -137 q 848 -118 867 -137 q 829 -69 829 -99 q 848 -21 829 -41 q 897 -1 867 -1 m 694 -1 q 743 -20 723 -1 q 762 -69 762 -39 q 743 -118 762 -99 q 694 -137 724 -137 q 646 -118 665 -137 q 627 -69 627 -99 q 646 -21 627 -41 q 694 -1 665 -1 m 492 -1 q 541 -20 521 -1 q 560 -69 560 -39 q 541 -118 560 -99 q 492 -137 522 -137 q 444 -118 463 -137 q 425 -69 425 -99 q 444 -21 425 -41 q 492 -1 463 -1 m 290 -1 q 338 -20 319 -1 q 358 -69 358 -39 q 339 -118 358 -99 q 290 -137 320 -137 q 241 -118 260 -137 q 222 -69 222 -99 q 241 -21 222 -41 q 290 -1 260 -1 m 88 -1 q 136 -20 117 -1 q 156 -69 156 -39 q 137 -118 156 -99 q 88 -137 118 -137 q 39 -118 58 -137 q 20 -69 20 -99 q 39 -21 20 -41 q 88 -1 58 -1 m 1301 201 q 1349 182 1329 201 q 1369 133 1369 163 q 1350 84 1369 103 q 1301 65 1331 65 q 1252 84 1271 65 q 1233 133 1233 103 q 1252 181 1233 161 q 1301 201 1271 201 m 1099 201 q 1147 182 1127 201 q 1166 133 1166 163 q 1147 84 1166 103 q 1099 65 1128 65 q 1050 84 1069 65 q 1031 133 1031 103 q 1050 181 1031 161 q 1099 201 1069 201 m 897 201 q 945 182 925 201 q 964 133 964 163 q 945 84 964 103 q 897 65 926 65 q 848 84 867 65 q 829 133 829 103 q 848 181 829 161 q 897 201 867 201 m 694 201 q 743 182 723 201 q 762 133 762 163 q 743 84 762 103 q 694 65 724 65 q 646 84 665 65 q 627 133 627 103 q 646 181 627 161 q 694 201 665 201 m 492 201 q 541 182 521 201 q 560 133 560 163 q 541 84 560 103 q 492 65 522 65 q 444 84 463 65 q 425 133 425 103 q 444 181 425 161 q 492 201 463 201 m 290 201 q 338 182 319 201 q 358 133 358 163 q 339 84 358 103 q 290 65 320 65 q 241 84 260 65 q 222 133 222 103 q 241 181 222 161 q 290 201 260 201 m 88 201 q 136 182 117 201 q 156 133 156 163 q 137 84 156 103 q 88 65 118 65 q 39 84 58 65 q 20 133 20 103 q 39 181 20 161 q 88 201 58 201 m 1301 403 q 1349 384 1329 403 q 1369 335 1369 365 q 1350 286 1369 305 q 1301 267 1331 267 q 1252 286 1271 267 q 1233 335 1233 305 q 1252 383 1233 363 q 1301 403 1271 403 m 1099 403 q 1147 384 1127 403 q 1166 335 1166 365 q 1147 286 1166 305 q 1099 267 1128 267 q 1050 286 1069 267 q 1031 335 1031 305 q 1050 383 1031 363 q 1099 403 1069 403 m 897 403 q 945 384 925 403 q 964 335 964 365 q 945 286 964 305 q 897 267 926 267 q 848 286 867 267 q 829 335 829 305 q 848 383 829 363 q 897 403 867 403 m 694 403 q 743 384 723 403 q 762 335 762 365 q 743 286 762 305 q 694 267 724 267 q 646 286 665 267 q 627 335 627 305 q 646 383 627 363 q 694 403 665 403 m 492 403 q 541 384 521 403 q 560 335 560 365 q 541 286 560 305 q 492 267 522 267 q 444 286 463 267 q 425 335 425 305 q 444 383 425 363 q 492 403 463 403 m 290 403 q 338 384 319 403 q 358 335 358 365 q 339 286 358 305 q 290 267 320 267 q 241 286 260 267 q 222 335 222 305 q 241 383 222 363 q 290 403 260 403 m 88 403 q 136 384 117 403 q 156 335 156 365 q 137 286 156 305 q 88 267 118 267 q 39 286 58 267 q 20 335 20 305 q 39 383 20 363 q 88 403 58 403 m 1301 605 q 1349 586 1329 605 q 1369 537 1369 567 q 1350 488 1369 507 q 1301 469 1331 469 q 1252 488 1271 469 q 1233 537 1233 507 q 1252 585 1233 566 q 1301 605 1271 605 m 1099 605 q 1147 586 1127 605 q 1166 537 1166 567 q 1147 488 1166 507 q 1099 469 1128 469 q 1050 488 1069 469 q 1031 537 1031 507 q 1050 585 1031 566 q 1099 605 1069 605 m 897 605 q 945 586 925 605 q 964 537 964 567 q 945 488 964 507 q 897 469 926 469 q 848 488 867 469 q 829 537 829 507 q 848 585 829 566 q 897 605 867 605 m 694 605 q 743 586 723 605 q 762 537 762 567 q 743 488 762 507 q 694 469 724 469 q 646 488 665 469 q 627 537 627 507 q 646 585 627 566 q 694 605 665 605 m 492 605 q 541 586 521 605 q 560 537 560 567 q 541 488 560 507 q 492 469 522 469 q 444 488 463 469 q 425 537 425 507 q 444 585 425 566 q 492 605 463 605 m 290 605 q 338 586 319 605 q 358 537 358 567 q 339 488 358 507 q 290 469 320 469 q 241 488 260 469 q 222 537 222 507 q 241 585 222 566 q 290 605 260 605 m 88 605 q 136 586 117 605 q 156 537 156 567 q 137 488 156 507 q 88 469 118 469 q 39 488 58 469 q 20 537 20 507 q 39 585 20 566 q 88 605 58 605 m 1301 807 q 1349 788 1329 807 q 1369 739 1369 769 q 1350 690 1369 709 q 1301 671 1331 671 q 1252 690 1271 671 q 1233 739 1233 709 q 1252 787 1233 768 q 1301 807 1271 807 m 1099 807 q 1147 788 1127 807 q 1166 739 1166 769 q 1147 690 1166 709 q 1099 671 1128 671 q 1050 690 1069 671 q 1031 739 1031 709 q 1050 787 1031 768 q 1099 807 1069 807 m 897 807 q 945 788 925 807 q 964 739 964 769 q 945 690 964 709 q 897 671 926 671 q 848 690 867 671 q 829 739 829 709 q 848 787 829 768 q 897 807 867 807 m 694 807 q 743 788 723 807 q 762 739 762 769 q 743 690 762 709 q 694 671 724 671 q 646 690 665 671 q 627 739 627 709 q 646 787 627 768 q 694 807 665 807 m 492 807 q 541 788 521 807 q 560 739 560 769 q 541 690 560 709 q 492 671 522 671 q 444 690 463 671 q 425 739 425 709 q 444 787 425 768 q 492 807 463 807 m 290 807 q 338 788 319 807 q 358 739 358 769 q 339 690 358 709 q 290 671 320 671 q 241 690 260 671 q 222 739 222 709 q 241 787 222 768 q 290 807 260 807 m 88 807 q 136 788 117 807 q 156 739 156 769 q 137 690 156 709 q 88 671 118 671 q 39 690 58 671 q 20 739 20 709 q 39 787 20 768 q 88 807 58 807 m 1301 1009 q 1349 990 1329 1009 q 1369 941 1369 971 q 1350 892 1369 911 q 1301 873 1331 873 q 1252 892 1271 873 q 1233 941 1233 911 q 1252 989 1233 970 q 1301 1009 1271 1009 m 1099 1009 q 1147 990 1127 1009 q 1166 941 1166 971 q 1147 892 1166 911 q 1099 873 1128 873 q 1050 892 1069 873 q 1031 941 1031 911 q 1050 989 1031 970 q 1099 1009 1069 1009 m 897 1009 q 945 990 925 1009 q 964 941 964 971 q 945 892 964 911 q 897 873 926 873 q 848 892 867 873 q 829 941 829 911 q 848 989 829 970 q 897 1009 867 1009 m 694 1009 q 743 990 723 1009 q 762 941 762 971 q 743 892 762 911 q 694 873 724 873 q 646 892 665 873 q 627 941 627 911 q 646 989 627 970 q 694 1009 665 1009 m 492 1009 q 541 990 521 1009 q 560 941 560 971 q 541 892 560 911 q 492 873 522 873 q 444 892 463 873 q 425 941 425 911 q 444 989 425 970 q 492 1009 463 1009 m 290 1009 q 338 990 319 1009 q 358 941 358 971 q 339 892 358 911 q 290 873 320 873 q 241 892 260 873 q 222 941 222 911 q 241 989 222 970 q 290 1009 260 1009 m 88 1009 q 136 990 117 1009 q 156 941 156 971 q 137 892 156 911 q 88 873 118 873 q 39 892 58 873 q 20 941 20 911 q 39 989 20 970 q 88 1009 58 1009 m 1301 1211 q 1349 1192 1329 1211 q 1369 1143 1369 1173 q 1350 1095 1369 1114 q 1301 1076 1331 1076 q 1252 1095 1271 1076 q 1233 1143 1233 1114 q 1252 1192 1233 1172 q 1301 1211 1271 1211 m 1099 1211 q 1147 1192 1127 1211 q 1166 1143 1166 1173 q 1147 1095 1166 1114 q 1099 1076 1128 1076 q 1050 1095 1069 1076 q 1031 1143 1031 1114 q 1050 1192 1031 1172 q 1099 1211 1069 1211 m 897 1211 q 945 1192 925 1211 q 964 1143 964 1173 q 945 1095 964 1114 q 897 1076 926 1076 q 848 1095 867 1076 q 829 1143 829 1114 q 848 1192 829 1172 q 897 1211 867 1211 m 694 1211 q 743 1192 723 1211 q 762 1143 762 1173 q 743 1095 762 1114 q 694 1076 724 1076 q 646 1095 665 1076 q 627 1143 627 1114 q 646 1192 627 1172 q 694 1211 665 1211 m 492 1211 q 541 1192 521 1211 q 560 1143 560 1173 q 541 1095 560 1114 q 492 1076 522 1076 q 444 1095 463 1076 q 425 1143 425 1114 q 444 1192 425 1172 q 492 1211 463 1211 m 290 1211 q 338 1192 319 1211 q 358 1143 358 1173 q 339 1095 358 1114 q 290 1076 320 1076 q 241 1095 260 1076 q 222 1143 222 1114 q 241 1192 222 1172 q 290 1211 260 1211 m 88 1211 q 136 1192 117 1211 q 156 1143 156 1173 q 137 1095 156 1114 q 88 1076 118 1076 q 39 1095 58 1076 q 20 1143 20 1114 q 39 1192 20 1172 q 88 1211 58 1211 z "},"■":{"ha":1400,"x_min":178,"x_max":1222,"o":"m 178 9 l 178 1053 l 1222 1053 l 1222 9 l 178 9 z "},"□":{"ha":1400,"x_min":148,"x_max":1252,"o":"m 148 -22 l 148 1084 l 1252 1084 l 1252 -22 l 148 -22 m 264 90 l 1137 90 l 1137 972 l 264 972 l 264 90 z "},"▣":{"ha":1400,"x_min":148,"x_max":1252,"o":"m 148 -22 l 148 1084 l 1252 1084 l 1252 -22 l 148 -22 m 264 90 l 1137 90 l 1137 972 l 264 972 l 264 90 m 414 237 l 414 825 l 987 825 l 987 237 l 414 237 z "},"▤":{"ha":1400,"x_min":148,"x_max":1252,"o":"m 148 -22 l 148 1084 l 1252 1084 l 1252 -22 l 148 -22 m 264 826 l 1137 826 l 1137 972 l 264 972 l 264 826 m 264 581 l 1137 581 l 1137 728 l 264 728 l 264 581 m 264 334 l 1137 334 l 1137 483 l 264 483 l 264 334 m 264 90 l 1137 90 l 1137 236 l 264 236 l 264 90 z "},"▥":{"ha":1400,"x_min":148,"x_max":1252,"o":"m 148 -20 l 148 1084 l 1252 1084 l 1252 -20 l 148 -20 m 264 90 l 408 90 l 408 972 l 264 972 l 264 90 m 506 90 l 651 90 l 651 972 l 506 972 l 506 90 m 749 90 l 894 90 l 894 972 l 749 972 l 749 90 m 991 90 l 1137 90 l 1137 972 l 991 972 l 991 90 z "},"▦":{"ha":1400,"x_min":148,"x_max":1252,"o":"m 148 -22 l 148 1084 l 1252 1084 l 1252 -22 l 148 -22 m 252 827 l 404 827 l 404 983 l 252 983 l 252 827 m 499 827 l 651 827 l 651 983 l 499 983 l 499 827 m 252 578 l 404 578 l 404 735 l 252 735 l 252 578 m 499 578 l 651 578 l 651 735 l 499 735 l 499 578 m 747 827 l 901 827 l 901 983 l 747 983 l 747 827 m 997 827 l 1149 827 l 1149 983 l 997 983 l 997 827 m 747 578 l 901 578 l 901 735 l 747 735 l 747 578 m 997 578 l 1149 578 l 1149 735 l 997 735 l 997 578 m 252 327 l 404 327 l 404 486 l 252 486 l 252 327 m 499 327 l 651 327 l 651 486 l 499 486 l 499 327 m 252 79 l 404 79 l 404 235 l 252 235 l 252 79 m 499 79 l 651 79 l 651 235 l 499 235 l 499 79 m 747 327 l 901 327 l 901 486 l 747 486 l 747 327 m 997 327 l 1149 327 l 1149 486 l 997 486 l 997 327 m 747 79 l 901 79 l 901 235 l 747 235 l 747 79 m 997 79 l 1149 79 l 1149 235 l 997 235 l 997 79 z "},"▧":{"ha":1400,"x_min":148,"x_max":1252,"o":"m 148 -22 l 148 1084 l 1252 1084 l 1252 -22 l 148 -22 m 323 972 l 1137 156 l 1137 500 l 665 972 l 323 972 m 264 563 l 736 90 l 1080 90 l 264 907 l 264 563 m 789 972 l 1137 624 l 1137 972 l 789 972 m 264 90 l 613 90 l 264 439 l 264 90 z "},"▨":{"ha":1400,"x_min":148,"x_max":1252,"o":"m 148 -22 l 148 1084 l 1252 1084 l 1252 -22 l 148 -22 m 264 156 l 1077 972 l 735 972 l 264 500 l 264 156 m 320 90 l 663 90 l 1137 563 l 1137 907 l 320 90 m 264 624 l 610 972 l 264 972 l 264 624 m 787 90 l 1137 90 l 1137 439 l 787 90 z "},"▩":{"ha":1400,"x_min":148,"x_max":1252,"o":"m 148 -22 l 148 1084 l 1252 1084 l 1252 -22 l 148 -22 m 311 981 l 461 830 l 612 981 l 311 981 m 256 624 l 404 772 l 256 921 l 256 624 m 519 772 l 700 590 l 882 772 l 700 955 l 519 772 m 788 981 l 939 830 l 1089 981 l 788 981 m 996 772 l 1143 624 l 1143 921 l 996 772 m 281 533 l 461 351 l 643 533 l 461 715 l 281 533 m 256 145 l 404 293 l 256 442 l 256 145 m 308 81 l 614 81 l 461 236 l 308 81 m 519 293 l 700 111 l 882 293 l 700 475 l 519 293 m 758 533 l 939 351 l 1120 533 l 939 715 l 758 533 m 997 293 l 1143 145 l 1143 442 l 997 293 m 785 81 l 1092 81 l 939 236 l 785 81 z "},"▲":{"ha":1400,"x_min":68,"x_max":1332,"o":"m 68 9 l 700 1188 l 1332 9 l 68 9 z "},"△":{"ha":1400,"x_min":30,"x_max":1370,"o":"m 30 -22 l 700 1218 l 1370 -22 l 30 -22 m 217 90 l 1183 90 l 700 985 l 217 90 z "},"▶":{"ha":1400,"x_min":178,"x_max":1318,"o":"m 178 -114 l 178 1175 l 1318 530 l 178 -114 z "},"▷":{"ha":1400,"x_min":148,"x_max":1341,"o":"m 148 -151 l 148 1211 l 1341 530 l 148 -151 m 264 42 l 1107 530 l 264 1020 l 264 42 z "},"▼":{"ha":1400,"x_min":68,"x_max":1332,"o":"m 68 1053 l 1332 1053 l 700 -126 l 68 1053 z "},"▽":{"ha":1400,"x_min":30,"x_max":1370,"o":"m 30 1084 l 1370 1084 l 700 -163 l 30 1084 m 217 972 l 700 71 l 1183 972 l 217 972 z "},"◀":{"ha":1400,"x_min":81,"x_max":1222,"o":"m 81 530 l 1222 1175 l 1222 -114 l 81 530 z "},"◁":{"ha":1400,"x_min":58,"x_max":1252,"o":"m 58 530 l 1252 1211 l 1252 -151 l 58 530 m 293 530 l 1137 42 l 1137 1020 l 293 530 z "},"◆":{"ha":1400,"x_min":19,"x_max":1381,"o":"m 19 532 l 700 1213 l 1381 532 l 700 -151 l 19 532 z "},"◇":{"ha":1400,"x_min":-12,"x_max":1412,"o":"m -12 532 l 700 1242 l 1412 532 l 700 -180 l -12 532 m 148 532 l 700 -22 l 1252 532 l 700 1084 l 148 532 z "},"◈":{"ha":1400,"x_min":-12,"x_max":1412,"o":"m 357 532 l 700 875 l 1043 532 l 700 189 l 357 532 m -12 532 l 700 1242 l 1412 532 l 700 -180 l -12 532 m 148 532 l 700 -22 l 1252 532 l 700 1084 l 148 532 z "},"○":{"ha":1400,"x_min":85,"x_max":1316,"o":"m 201 530 q 343 172 201 317 q 700 26 486 26 q 1057 172 914 26 q 1199 530 1199 317 q 1057 890 1199 743 q 700 1036 914 1036 q 343 890 486 1036 q 201 530 201 743 m 85 530 q 262 968 85 789 q 700 1146 438 1146 q 1139 968 962 1146 q 1316 530 1316 789 q 1139 94 1316 271 q 700 -84 962 -84 q 262 94 438 -84 q 85 530 85 271 z "},"◎":{"ha":1400,"x_min":85,"x_max":1316,"o":"m 477 530 q 540 370 477 434 q 700 305 602 305 q 859 370 796 305 q 922 530 922 435 q 859 692 922 627 q 700 757 796 757 q 541 692 604 757 q 477 530 477 627 m 368 530 q 462 768 368 671 q 700 864 556 864 q 938 768 842 864 q 1034 530 1034 671 q 938 294 1034 391 q 700 198 842 198 q 463 294 557 198 q 368 530 368 391 m 201 530 q 343 172 201 317 q 700 26 486 26 q 1057 172 914 26 q 1199 530 1199 317 q 1057 890 1199 743 q 700 1036 914 1036 q 343 890 486 1036 q 201 530 201 743 m 85 530 q 262 968 85 789 q 700 1146 438 1146 q 1139 968 962 1146 q 1316 530 1316 789 q 1139 94 1316 271 q 700 -84 962 -84 q 262 94 438 -84 q 85 530 85 271 z "},"●":{"ha":1400,"x_min":110,"x_max":1290,"o":"m 110 530 q 277 949 110 779 q 700 1120 444 1120 q 1122 949 955 1120 q 1290 530 1290 779 q 1122 113 1290 283 q 700 -58 955 -58 q 277 112 444 -58 q 110 530 110 282 z "},"◐":{"ha":1400,"x_min":85,"x_max":1316,"o":"m 700 26 q 1057 172 914 26 q 1199 530 1199 317 q 1057 890 1199 743 q 700 1036 914 1036 l 700 26 m 85 530 q 262 968 85 789 q 700 1146 438 1146 q 1139 968 962 1146 q 1316 530 1316 789 q 1139 94 1316 271 q 700 -84 962 -84 q 262 94 438 -84 q 85 530 85 271 z "},"◑":{"ha":1400,"x_min":85,"x_max":1316,"o":"m 201 530 q 343 172 201 317 q 700 26 486 26 l 700 1036 q 343 890 486 1036 q 201 530 201 743 m 85 530 q 262 968 85 789 q 700 1146 438 1146 q 1139 968 962 1146 q 1316 530 1316 789 q 1139 94 1316 271 q 700 -84 962 -84 q 262 94 438 -84 q 85 530 85 271 z "},"★":{"ha":1400,"x_min":24,"x_max":1375,"o":"m 24 776 l 494 776 l 700 1244 l 905 776 l 1375 776 l 1002 431 l 1157 -66 l 700 209 l 245 -66 l 397 431 l 24 776 z "},"☆":{"ha":1400,"x_min":-33,"x_max":1432,"o":"m -33 803 l 477 803 l 700 1301 l 922 803 l 1432 803 l 1031 426 l 1199 -114 l 700 172 l 201 -114 l 370 426 l -33 803 m 243 700 l 495 460 l 384 117 l 701 302 l 1017 117 l 906 460 l 1157 700 l 846 700 l 701 1034 l 555 700 l 243 700 z "},"☎":{"ha":1400,"x_min":45,"x_max":1355,"o":"m 45 674 q 138 872 45 792 q 374 985 231 952 q 700 1019 517 1019 q 1027 985 884 1019 q 1263 872 1171 952 q 1355 674 1355 792 q 1339 597 1355 623 q 1280 572 1324 572 q 1229 576 1261 572 q 1145 591 1196 581 q 1060 629 1095 602 q 1025 694 1025 656 q 1035 732 1025 713 q 1044 766 1044 751 q 1031 792 1044 781 q 1006 807 1019 803 q 971 817 994 811 q 968 781 970 795 q 965 759 966 766 q 964 741 964 751 q 987 633 964 682 q 1032 559 1009 583 q 1097 496 1055 534 q 1109 486 1105 490 q 1192 373 1169 429 q 1219 276 1215 317 q 1232 221 1222 235 q 1240 210 1233 218 q 1250 195 1246 201 q 1257 177 1253 189 q 1260 152 1260 165 q 1236 87 1260 114 q 1161 61 1213 61 l 239 61 q 163 87 186 61 q 140 152 140 114 q 143 177 140 165 q 150 195 146 189 q 160 210 153 201 q 168 221 167 218 q 182 261 178 233 q 190 319 186 289 q 219 395 194 349 q 290 486 244 441 q 319 512 294 488 q 351 542 345 536 q 376 570 357 548 q 402 605 396 591 q 419 641 408 618 q 433 688 430 663 q 437 739 437 712 q 430 818 437 751 q 355 766 355 804 q 365 731 355 751 q 374 694 374 711 q 340 628 374 655 q 254 591 305 601 q 171 576 203 581 q 119 572 138 572 q 60 597 75 572 q 45 674 45 623 m 536 793 q 558 736 536 762 q 635 711 581 711 l 765 711 q 840 735 815 711 q 864 791 864 760 l 864 878 q 697 856 789 856 q 536 878 606 856 l 536 793 m 480 415 q 540 265 480 327 q 700 203 600 203 q 861 265 800 203 q 921 415 921 327 q 861 567 921 503 q 700 631 800 631 q 540 568 600 631 q 480 415 480 505 z "},"☏":{"ha":1400,"x_min":30,"x_max":1371,"o":"m 114 700 q 125 635 114 635 q 233 654 148 635 q 319 682 319 674 q 315 696 319 685 q 308 728 312 708 q 304 774 304 749 q 476 887 304 875 q 487 844 479 873 q 498 791 495 814 q 502 741 502 769 q 492 651 502 692 q 461 576 483 610 q 422 519 439 541 q 372 461 404 496 q 324 407 340 426 q 262 277 273 349 q 235 178 252 206 q 214 141 214 142 q 250 130 214 130 l 1153 130 q 1184 141 1184 130 q 1164 178 1184 142 q 1137 277 1146 206 q 1076 407 1127 349 q 1027 461 1059 426 q 978 519 996 496 q 939 576 960 541 q 907 651 917 610 q 898 741 898 692 q 901 791 898 769 q 912 844 905 812 q 922 887 920 876 q 1095 774 1095 875 q 1091 728 1095 749 q 1084 696 1088 708 q 1081 682 1081 685 q 1166 654 1081 674 q 1274 635 1251 635 q 1286 703 1286 635 q 1255 786 1286 745 q 1160 866 1225 827 q 977 929 1096 905 q 700 954 857 954 q 471 937 574 954 q 302 894 368 920 q 194 833 237 868 q 132 766 151 799 q 114 700 114 732 m 30 674 q 125 878 30 796 q 366 995 220 960 q 700 1029 513 1029 q 1036 996 890 1029 q 1276 880 1181 962 q 1371 677 1371 799 q 1301 557 1371 557 q 1209 564 1256 557 q 1116 584 1162 571 q 1041 623 1070 597 q 1012 682 1012 648 q 1020 730 1012 705 q 1028 770 1028 755 q 1015 803 1028 793 q 977 819 1002 812 q 971 743 971 787 q 979 677 971 708 q 993 627 986 646 q 1019 583 1000 608 q 1047 549 1039 557 q 1084 515 1055 541 q 1119 484 1114 490 q 1203 368 1180 426 q 1230 269 1226 311 q 1244 213 1233 227 q 1252 201 1245 212 q 1262 186 1259 191 q 1269 168 1265 180 q 1272 142 1272 156 q 1162 52 1272 52 l 237 52 q 126 142 126 52 q 130 168 126 156 q 137 186 133 180 q 148 201 141 193 q 156 213 155 210 q 170 269 167 227 q 197 368 174 311 q 281 484 220 426 q 315 515 285 488 q 353 551 346 543 q 382 585 361 559 q 410 629 403 610 q 424 678 416 647 q 431 743 431 709 q 423 819 431 770 q 383 804 396 814 q 370 770 370 793 q 379 730 370 755 q 388 682 388 705 q 358 623 388 648 q 282 585 328 598 q 189 565 236 571 q 98 559 142 559 q 44 589 58 559 q 30 674 30 620 m 533 776 l 533 897 q 700 875 604 875 q 867 897 796 875 l 867 776 q 844 718 867 743 q 766 692 821 692 l 632 692 q 555 718 578 692 q 533 776 533 743 m 612 791 q 642 754 612 754 l 758 754 q 788 791 788 754 l 788 829 q 700 819 741 819 q 612 829 659 819 l 612 791 m 473 412 q 536 570 473 505 q 700 636 598 636 q 864 570 803 636 q 925 412 925 505 q 865 258 925 321 q 700 194 804 194 q 535 258 597 194 q 473 412 473 323 m 559 412 q 598 313 559 353 q 700 273 637 273 q 802 312 764 273 q 840 412 840 351 q 802 514 840 472 q 700 556 765 556 q 597 514 636 556 q 559 412 559 472 z "},"☜":{"ha":1491,"x_min":41,"x_max":1450,"o":"m 41 670 q 63 714 41 694 q 132 748 85 734 q 220 772 178 762 q 333 789 263 781 q 443 801 403 798 q 551 810 483 804 q 882 829 791 829 q 993 819 944 829 q 1069 797 1042 808 q 1151 758 1096 785 q 1248 712 1206 730 l 1248 779 l 1450 779 l 1450 256 l 1248 256 l 1248 296 q 1207 286 1213 289 q 1156 265 1199 283 q 1086 237 1114 247 q 1005 218 1058 228 q 898 208 952 208 q 760 222 861 208 q 674 210 712 210 q 581 238 620 210 q 533 308 541 266 q 447 352 471 326 q 423 401 423 378 q 427 425 423 416 q 374 477 393 446 q 355 534 355 507 q 374 591 355 566 q 203 586 263 586 q 41 670 41 586 m 109 666 q 193 647 109 647 q 242 648 212 647 q 365 651 273 648 q 564 656 457 654 q 707 724 637 704 q 944 751 776 743 q 887 766 930 766 q 559 747 837 766 q 109 666 109 712 m 416 532 q 465 460 416 495 q 571 425 513 425 q 694 450 637 425 q 777 499 751 475 q 803 534 803 524 q 791 548 803 548 q 751 526 781 548 q 675 482 722 505 q 578 460 628 460 q 475 521 475 460 q 500 595 475 559 l 449 594 q 416 532 416 582 m 490 389 q 608 346 507 346 q 772 395 688 346 q 854 486 857 445 q 845 498 854 498 q 831 485 844 498 q 795 454 818 472 q 744 419 773 437 q 671 389 715 401 q 578 376 627 376 q 490 389 522 376 m 1318 327 l 1381 327 l 1381 703 l 1318 703 l 1318 327 m 604 296 q 685 264 627 264 q 814 309 750 264 q 879 396 879 354 q 872 408 879 406 q 761 332 831 365 q 604 296 690 298 m 536 532 q 576 509 536 509 q 700 553 633 509 q 817 598 766 598 l 943 598 q 974 571 974 598 q 962 555 974 562 q 1020 486 986 514 q 1080 446 1054 457 q 1124 422 1105 435 q 1143 392 1143 410 q 1119 372 1143 372 q 1003 428 1080 372 q 913 540 926 484 l 882 540 q 913 491 913 517 q 899 448 913 471 q 937 392 937 437 q 917 336 937 369 q 863 275 897 302 q 907 273 895 273 q 1199 354 1043 273 q 1248 363 1219 362 l 1248 640 q 1135 693 1200 656 q 1039 743 1069 730 q 1039 718 1046 730 q 1017 707 1032 707 q 909 706 941 707 q 821 698 876 705 q 715 674 766 690 q 593 605 650 655 q 536 532 537 555 z "},"☞":{"ha":1491,"x_min":42,"x_max":1450,"o":"m 42 256 l 42 779 l 243 779 l 243 712 q 339 758 283 730 q 422 797 395 785 q 498 819 449 808 q 610 829 548 829 q 941 810 701 829 q 1049 801 1009 804 q 1158 789 1089 798 q 1271 772 1227 781 q 1360 748 1314 762 q 1428 714 1405 734 q 1450 670 1450 694 q 1289 586 1450 586 q 1118 591 1229 586 q 1135 534 1135 568 q 1116 477 1135 507 q 1065 425 1097 446 q 1067 401 1067 419 q 1061 373 1067 388 q 1029 339 1055 358 q 959 308 1002 320 q 911 238 951 266 q 818 210 872 210 q 732 222 780 210 q 594 208 631 208 q 486 218 540 208 q 405 237 433 228 q 334 265 377 247 q 283 286 290 283 q 243 296 278 289 l 243 256 l 42 256 m 1382 666 q 933 747 1382 712 q 605 766 655 766 q 547 751 560 766 q 785 724 715 743 q 928 656 856 704 q 1091 652 1015 654 q 1200 649 1168 650 q 1259 648 1233 648 q 1299 647 1284 647 q 1365 651 1348 647 q 1382 666 1382 655 m 1076 532 q 1043 594 1076 582 l 991 595 q 1016 521 1016 562 q 914 460 1016 460 q 817 482 864 460 q 741 526 770 505 q 701 548 711 548 q 688 534 688 548 q 698 517 688 529 q 728 489 708 505 q 775 459 749 473 q 841 435 802 445 q 921 425 880 425 q 1027 460 979 425 q 1076 532 1076 495 m 1002 389 q 914 376 970 376 q 821 389 865 376 q 748 419 777 401 q 696 454 719 437 q 661 485 674 472 q 647 498 648 498 q 636 486 636 498 q 719 395 633 445 q 884 346 804 346 q 1002 389 985 346 m 172 327 l 172 703 l 110 703 l 110 327 l 172 327 m 887 296 q 730 331 800 298 q 620 408 661 363 q 612 396 612 406 q 677 309 612 354 q 807 264 742 264 q 887 296 864 264 m 955 532 q 898 605 954 555 q 777 674 842 655 q 671 698 726 690 q 583 706 616 705 q 475 707 551 707 q 453 718 460 707 q 453 743 446 730 q 357 693 423 730 q 243 640 290 656 l 243 363 q 292 354 271 362 q 583 273 448 273 q 629 275 597 273 q 575 336 595 302 q 555 392 555 369 q 591 448 555 437 q 579 491 579 468 q 610 540 579 517 l 579 540 q 489 428 566 484 q 373 372 412 372 q 349 392 349 372 q 368 422 349 410 q 412 446 387 435 q 472 486 438 457 q 530 555 506 514 q 517 571 517 562 q 549 598 517 598 l 675 598 q 791 553 726 598 q 914 509 857 509 q 955 532 955 509 z "},"♀":{"ha":1063,"x_min":107,"x_max":956,"o":"m 107 167 l 107 279 l 468 279 l 468 476 q 260 586 342 496 q 179 808 179 675 q 279 1050 179 955 q 532 1146 378 1146 q 785 1050 685 1146 q 886 808 886 954 q 804 587 886 677 q 597 476 723 496 l 597 279 l 956 279 l 956 167 l 597 167 l 597 -114 l 468 -114 l 468 167 l 107 167 m 307 808 q 369 648 307 712 q 532 583 431 583 q 696 648 633 583 q 758 808 758 713 q 696 969 758 906 q 532 1032 633 1032 q 370 968 433 1032 q 307 808 307 905 z "},"♂":{"ha":1126,"x_min":49,"x_max":1054,"o":"m 49 224 q 151 466 49 372 q 401 560 252 560 q 507 548 471 560 l 727 929 l 408 844 l 374 960 l 891 1092 l 1054 600 l 939 559 l 838 872 l 623 492 q 755 224 755 396 q 654 -19 755 77 q 401 -115 552 -115 q 154 -22 259 -115 q 49 224 49 71 m 176 224 q 239 64 176 129 q 401 -1 301 -1 q 569 66 510 -1 q 628 224 628 134 q 568 381 628 313 q 401 449 509 449 q 239 383 301 449 q 176 224 176 317 z "},"♠":{"ha":1253,"x_min":87,"x_max":1168,"o":"m 456 -96 l 456 -31 q 557 198 544 94 q 541 252 562 252 q 507 233 526 252 q 468 191 487 214 q 409 148 449 167 q 319 129 369 129 q 143 204 199 129 q 87 384 87 279 q 117 519 87 444 q 186 661 146 595 q 295 814 227 726 q 409 957 363 903 q 530 1096 454 1010 q 628 1207 605 1181 q 724 1097 652 1179 q 844 959 796 1015 q 960 816 892 903 q 1067 662 1027 728 q 1138 519 1108 595 q 1168 384 1168 444 q 1112 204 1168 279 q 936 129 1055 129 q 846 148 886 129 q 787 191 806 167 q 748 233 768 214 q 713 252 728 252 q 696 198 692 252 q 799 -31 709 96 l 799 -96 l 456 -96 z "},"♡":{"ha":1333,"x_min":62,"x_max":1272,"o":"m 667 -138 q 516 36 608 -68 q 370 201 425 140 q 250 349 316 263 q 149 500 184 435 q 87 643 113 564 q 62 798 62 722 q 151 1029 62 932 q 381 1127 240 1127 q 667 944 575 1127 q 951 1127 757 1127 q 1185 1030 1097 1127 q 1272 798 1272 933 q 1247 643 1272 722 q 1186 499 1222 564 q 1084 348 1150 434 q 963 200 1017 262 q 817 35 909 138 q 667 -138 726 -69 m 178 798 q 189 706 178 753 q 215 620 201 659 q 264 526 229 581 q 322 436 300 471 q 398 336 345 401 q 478 240 452 271 q 572 131 505 209 q 667 20 639 53 q 763 131 696 53 q 857 240 830 209 q 937 336 883 271 q 1013 436 990 401 q 1070 526 1035 471 q 1120 620 1105 581 q 1145 706 1134 659 q 1157 798 1157 753 q 1102 954 1157 891 q 951 1016 1047 1016 q 851 992 897 1016 q 772 924 806 968 q 713 833 738 880 q 667 726 689 787 q 550 937 624 857 q 381 1016 476 1016 q 233 954 288 1016 q 178 798 178 891 z "},"♣":{"ha":1381,"x_min":84,"x_max":1295,"o":"m 519 -96 l 519 -30 q 601 118 574 43 q 628 241 628 193 q 621 266 628 266 q 608 252 618 266 q 578 217 597 237 q 534 176 560 197 q 464 142 507 156 q 370 127 420 127 q 164 208 244 127 q 84 411 84 289 q 159 620 84 537 q 362 703 235 703 q 515 651 444 703 l 517 652 q 519 654 518 654 q 433 764 467 699 q 400 899 400 829 q 485 1096 400 1021 q 689 1171 570 1171 q 894 1096 808 1171 q 979 899 979 1021 q 945 764 979 829 q 859 654 911 699 q 860 652 860 654 l 863 651 q 1017 703 936 703 q 1220 620 1145 703 q 1295 411 1295 537 q 1215 208 1295 289 q 1009 127 1135 127 q 916 142 959 127 q 846 176 872 156 q 800 217 819 197 q 771 252 781 237 q 758 266 761 266 q 751 241 751 266 q 779 119 751 194 q 860 -30 806 45 l 860 -96 l 519 -96 z "},"♤":{"ha":1253,"x_min":53,"x_max":1202,"o":"m 53 372 q 136 628 53 481 q 298 869 220 774 q 560 1165 377 963 q 628 1241 605 1215 q 721 1137 655 1210 q 812 1034 787 1063 q 893 941 838 1005 q 970 848 948 878 q 1034 765 993 819 q 1094 680 1076 711 q 1138 602 1112 648 q 1174 522 1164 556 q 1193 448 1184 488 q 1202 372 1202 408 q 1131 180 1202 259 q 945 100 1059 100 q 768 168 856 100 q 787 103 772 141 q 827 12 802 65 q 857 -49 853 -41 l 857 -123 l 396 -123 l 396 -49 q 487 170 473 99 q 309 100 399 100 q 124 180 195 100 q 53 372 53 259 m 165 381 q 210 255 165 301 q 334 209 254 209 q 418 231 376 209 q 492 275 461 252 q 537 297 524 297 q 585 218 585 297 q 507 -16 585 152 l 507 -39 l 747 -39 l 747 -16 q 669 218 669 145 q 678 278 669 259 q 716 297 688 297 q 761 275 730 297 q 836 231 792 252 q 921 209 879 209 q 1044 255 1001 209 q 1088 381 1088 301 q 628 1082 1088 590 q 165 381 165 587 z "},"♥":{"ha":1333,"x_min":90,"x_max":1244,"o":"m 90 788 q 171 1003 90 910 q 373 1096 252 1096 q 488 1072 437 1096 q 569 1019 540 1048 q 621 944 598 990 q 652 874 644 898 q 667 817 659 850 q 683 874 677 852 q 713 944 689 897 q 765 1020 736 991 q 845 1072 793 1048 q 960 1096 897 1096 q 1163 1003 1082 1096 q 1244 788 1244 910 q 1219 640 1244 716 q 1162 503 1195 564 q 1063 357 1128 442 q 949 216 997 271 q 809 60 901 161 q 666 -102 718 -42 q 519 65 612 -38 q 378 224 426 168 q 265 363 330 279 q 169 507 201 448 q 113 642 137 567 q 90 788 90 716 z "},"♧":{"ha":1381,"x_min":56,"x_max":1326,"o":"m 574 -38 l 806 -38 l 806 -16 q 758 104 784 14 q 731 244 731 194 q 770 301 731 301 q 823 277 791 301 q 900 227 854 252 q 997 202 945 202 q 1162 268 1105 202 q 1219 427 1219 334 q 1165 590 1219 525 q 1001 655 1111 655 q 838 620 909 655 l 836 624 q 924 853 924 734 q 884 995 924 939 q 795 1072 845 1051 q 690 1092 745 1092 q 586 1072 636 1092 q 496 995 536 1051 q 457 853 457 939 q 548 625 457 741 l 545 621 q 380 655 477 655 q 216 590 270 655 q 163 427 163 525 q 219 268 163 334 q 384 202 275 202 q 481 227 435 202 q 558 277 526 252 q 610 301 590 301 q 650 244 650 301 q 623 104 650 194 q 576 -14 597 14 l 574 -38 m 827 171 q 837 140 830 164 q 846 111 844 117 q 854 85 848 104 q 862 60 860 66 q 870 38 864 53 q 880 15 876 23 q 889 -5 883 7 q 901 -28 895 -18 q 913 -50 906 -39 l 913 -123 l 468 -123 l 468 -50 q 553 171 506 11 q 359 102 460 102 q 143 194 231 102 q 56 427 56 286 q 135 651 56 557 q 354 745 214 745 q 377 742 361 745 l 395 739 q 355 888 355 806 q 450 1106 355 1019 q 690 1194 545 1194 q 932 1105 837 1194 q 1027 888 1027 1017 q 985 738 1027 796 q 1004 741 987 738 q 1027 745 1020 745 q 1247 651 1168 745 q 1326 427 1326 557 q 1239 195 1326 288 q 1023 102 1152 102 q 827 171 921 102 z "},"♨":{"ha":1301,"x_min":71,"x_max":1233,"o":"m 372 774 q 416 904 372 821 q 471 1058 460 987 l 498 1058 q 510 1000 509 1025 q 496 886 511 962 q 481 768 481 810 q 514 621 481 720 q 547 464 547 521 q 525 366 547 408 q 474 273 503 324 q 433 155 445 221 l 408 155 q 389 231 391 195 q 410 356 388 273 q 431 483 431 439 q 401 639 431 537 q 372 774 372 741 m 564 774 q 609 947 564 857 q 661 1120 654 1036 l 694 1120 q 726 1009 723 1058 q 704 910 727 987 q 681 781 681 833 q 718 659 681 755 q 755 481 755 562 q 732 372 755 425 q 673 257 709 320 q 620 142 637 194 l 585 142 q 574 203 576 179 q 601 343 571 263 q 631 472 631 423 q 597 632 631 522 q 564 774 564 742 m 764 773 q 807 903 764 819 q 861 1057 850 986 l 888 1057 q 903 1002 902 1020 q 888 887 905 963 q 872 768 872 811 q 905 621 872 720 q 937 464 937 521 q 916 366 937 408 q 865 271 894 323 q 825 152 837 218 l 800 152 q 780 222 783 187 q 801 350 779 266 q 823 479 823 434 q 793 636 823 534 q 764 773 764 738 m 71 224 q 148 370 71 304 q 384 468 225 435 l 391 425 q 190 251 190 349 q 233 172 190 206 q 347 120 277 138 q 492 93 416 102 q 644 84 567 84 q 991 132 863 84 q 1119 251 1119 179 q 1078 338 1119 300 q 964 412 1036 376 l 977 454 q 1167 362 1101 426 q 1233 224 1233 298 q 1217 147 1233 184 q 1161 71 1202 110 q 1057 2 1120 31 q 886 -46 993 -27 q 644 -65 780 -65 q 447 -50 543 -65 q 264 -3 351 -35 q 123 87 176 28 q 71 224 71 145 z "},"♩":{"ha":693,"x_min":141,"x_max":475,"o":"m 141 43 q 147 85 141 65 q 163 121 153 106 q 186 149 174 136 q 215 173 199 163 q 244 191 231 183 q 273 203 258 198 q 298 212 289 209 q 317 218 308 216 l 327 221 q 338 225 330 222 q 351 229 347 228 q 362 234 355 231 q 372 240 369 237 q 377 248 374 243 q 380 260 380 254 l 380 1107 l 475 1107 l 475 193 q 404 34 475 113 q 252 -45 334 -45 q 168 -20 195 -45 q 141 43 141 4 z "},"♪":{"ha":972,"x_min":141,"x_max":838,"o":"m 141 43 q 182 145 141 94 q 328 220 224 197 q 368 233 357 225 q 380 259 380 240 l 380 1111 l 438 1111 q 612 903 511 986 q 648 873 617 898 q 688 841 678 849 q 725 808 699 833 q 762 770 751 784 q 791 730 773 755 q 817 682 810 704 q 831 630 825 659 q 838 571 838 601 q 812 452 838 511 q 747 347 787 392 q 670 271 707 302 q 598 218 633 239 l 593 225 q 630 287 605 243 q 686 410 655 331 q 716 543 716 488 q 690 623 716 585 q 633 685 665 661 q 552 747 601 709 q 475 811 503 784 l 475 194 q 404 34 475 113 q 251 -45 334 -45 q 168 -20 194 -45 q 141 43 141 4 z "},"♬":{"ha":1309,"x_min":138,"x_max":1130,"o":"m 138 30 q 206 164 138 110 q 283 210 243 193 q 349 230 324 227 q 389 248 373 233 q 406 293 406 263 l 406 944 l 1130 1096 l 1130 328 q 1059 167 1130 254 q 906 80 989 80 q 824 110 853 80 q 795 184 795 140 q 929 361 795 309 q 977 378 944 368 q 1021 395 1009 388 q 1034 414 1034 403 l 1034 655 l 502 537 l 502 237 q 419 39 502 132 q 224 -53 336 -53 q 161 -28 184 -53 q 138 30 138 -4 m 502 688 l 1034 810 l 1034 914 l 502 798 l 502 688 z "},"♭":{"ha":825,"x_min":184,"x_max":699,"o":"m 184 3 l 184 1074 l 281 1074 l 281 617 q 465 693 369 693 q 632 629 566 693 q 699 469 699 566 q 688 385 699 430 q 642 279 677 339 q 553 169 608 220 q 404 72 499 118 q 184 3 308 26 m 281 129 q 453 271 382 186 q 524 453 524 355 q 499 547 524 507 q 427 586 475 586 q 281 494 350 586 l 281 129 z "},"、":{"ha":1389,"x_min":72,"x_max":487,"o":"m 72 201 l 189 297 q 349 154 270 241 q 487 -24 429 66 l 369 -118 q 231 56 312 -31 q 72 201 149 142 z "},"。":{"ha":1389,"x_min":77,"x_max":471,"o":"m 77 99 q 134 236 77 178 q 275 294 191 294 q 414 236 357 294 q 471 99 471 178 q 414 -39 471 19 q 275 -98 357 -98 q 134 -39 191 -98 q 77 99 77 19 m 190 99 q 214 39 190 64 q 275 14 239 14 q 333 38 309 14 q 357 99 357 62 q 333 159 357 134 q 275 183 309 183 q 214 159 239 183 q 190 99 190 134 z "},"〃":{"ha":1389,"x_min":410,"x_max":983,"o":"m 410 301 l 562 863 l 720 831 l 524 270 l 410 301 m 666 296 l 826 863 l 983 831 l 785 269 l 666 296 z "},"〈":{"ha":796,"x_min":208,"x_max":680,"o":"m 208 519 l 521 1211 l 680 1211 l 373 519 l 680 -175 l 521 -175 l 208 519 z "},"〉":{"ha":796,"x_min":117,"x_max":589,"o":"m 117 -175 l 423 519 l 117 1211 l 277 1211 l 589 519 l 277 -175 l 117 -175 z "},"《":{"ha":789,"x_min":83,"x_max":716,"o":"m 83 518 l 309 1211 l 450 1211 l 225 518 l 450 -175 l 309 -175 l 83 518 m 349 518 l 576 1211 l 716 1211 l 490 518 l 716 -175 l 576 -175 l 349 518 z "},"》":{"ha":789,"x_min":75,"x_max":707,"o":"m 340 -175 l 564 518 l 340 1211 l 480 1211 l 707 518 l 480 -175 l 340 -175 m 75 -175 l 300 518 l 75 1211 l 213 1211 l 441 518 l 213 -175 l 75 -175 z "},"「":{"ha":774,"x_min":282,"x_max":680,"o":"m 282 591 l 282 1211 l 680 1211 l 680 1073 l 430 1073 l 430 591 l 282 591 z "},"」":{"ha":774,"x_min":95,"x_max":491,"o":"m 95 -37 l 343 -37 l 343 445 l 491 445 l 491 -175 l 95 -175 l 95 -37 z "},"『":{"ha":781,"x_min":193,"x_max":688,"o":"m 193 557 l 193 1211 l 688 1211 l 688 967 l 464 967 l 464 557 l 193 557 m 294 648 l 363 648 l 363 1058 l 587 1058 l 587 1120 l 294 1120 l 294 648 z "},"』":{"ha":781,"x_min":95,"x_max":590,"o":"m 95 -175 l 95 71 l 317 71 l 317 480 l 590 480 l 590 -175 l 95 -175 m 195 -83 l 488 -83 l 488 388 l 419 388 l 419 -22 l 195 -22 l 195 -83 z "},"【":{"ha":808,"x_min":258,"x_max":700,"o":"m 258 -175 l 258 1211 l 700 1211 q 507 918 578 1107 q 435 519 435 728 q 507 119 435 309 q 700 -175 578 -71 l 258 -175 z "},"】":{"ha":808,"x_min":109,"x_max":552,"o":"m 109 -175 q 302 119 231 -71 q 374 519 374 309 q 302 918 374 728 q 109 1211 231 1107 l 552 1211 l 552 -175 l 109 -175 z "},"〓":{"ha":1081,"x_min":113,"x_max":970,"o":"m 113 650 l 113 945 l 970 945 l 970 650 l 113 650 m 113 107 l 113 401 l 970 401 l 970 107 l 113 107 z "},"〔":{"ha":746,"x_min":283,"x_max":655,"o":"m 283 -30 l 283 1067 l 655 1268 l 655 1123 l 431 1001 l 431 37 l 655 -85 l 655 -231 l 283 -30 z "},"〕":{"ha":746,"x_min":92,"x_max":463,"o":"m 92 -85 l 316 37 l 316 1001 l 92 1123 l 92 1268 l 463 1067 l 463 -30 l 92 -231 l 92 -85 z "},"ㄱ":{"ha":1389,"x_min":214,"x_max":1162,"o":"m 214 781 l 214 940 l 1162 940 q 1078 79 1162 472 l 902 79 q 966 452 943 256 q 989 781 989 647 l 214 781 z "},"ㄲ":{"ha":1389,"x_min":172,"x_max":1210,"o":"m 172 803 l 172 960 l 693 960 q 663 522 693 773 q 583 81 633 271 l 411 81 q 489 461 458 244 q 519 803 519 678 l 172 803 m 749 803 l 749 960 l 1210 960 q 1186 518 1210 768 q 1119 81 1162 269 l 947 81 q 1012 465 987 259 q 1036 803 1036 671 l 749 803 z "},"ㄳ":{"ha":1389,"x_min":130,"x_max":1326,"o":"m 616 170 q 806 450 724 277 q 887 812 887 624 l 887 972 l 1062 972 l 1062 814 q 1150 451 1062 632 q 1326 176 1238 270 l 1198 80 q 1069 263 1134 153 q 979 464 1005 373 q 888 257 951 366 q 751 69 825 148 l 616 170 m 130 799 l 130 958 l 635 958 l 635 81 l 463 81 l 463 799 l 130 799 z "},"ㄴ":{"ha":1389,"x_min":266,"x_max":1188,"o":"m 266 145 l 266 972 l 439 972 l 439 304 l 1188 304 l 1188 145 l 266 145 z "},"ㄵ":{"ha":1389,"x_min":132,"x_max":1345,"o":"m 600 179 q 692 277 652 232 q 781 392 731 321 q 858 543 830 463 q 886 705 886 624 l 886 807 l 669 807 l 669 962 l 1283 962 l 1283 807 l 1062 807 l 1062 707 q 1345 186 1062 454 l 1218 84 q 1074 245 1147 146 q 975 415 1000 343 q 873 238 949 342 q 727 77 796 134 l 600 179 m 132 114 l 132 981 l 292 981 l 292 271 l 319 271 q 620 296 449 271 l 620 145 q 164 114 415 114 l 132 114 z "},"ㄶ":{"ha":1389,"x_min":134,"x_max":1332,"o":"m 134 109 l 134 981 l 294 981 l 294 267 l 323 267 q 625 289 473 267 l 625 140 q 168 109 420 109 l 134 109 m 772 850 l 772 990 l 1180 990 l 1180 850 l 772 850 m 617 608 l 617 749 l 1332 749 l 1332 608 l 617 608 m 651 301 q 742 473 651 410 q 974 537 833 537 q 1206 473 1115 537 q 1298 301 1298 410 q 1206 129 1298 194 q 974 64 1114 64 q 743 128 834 64 q 651 301 651 193 m 823 301 q 867 224 823 252 q 974 197 910 197 q 1082 224 1038 197 q 1127 301 1127 252 q 1082 378 1127 350 q 974 407 1036 407 q 866 378 909 407 q 823 301 823 350 z "},"ㄷ":{"ha":1389,"x_min":259,"x_max":1177,"o":"m 259 123 l 259 939 l 1154 939 l 1154 781 l 433 781 l 433 281 l 1177 281 l 1177 123 l 259 123 z "},"ㄸ":{"ha":1389,"x_min":199,"x_max":1233,"o":"m 199 104 l 199 958 l 669 958 l 669 799 l 369 799 l 369 263 l 393 263 q 682 279 552 263 l 682 126 q 259 104 487 104 l 199 104 m 741 104 l 741 958 l 1221 958 l 1221 799 l 910 799 l 910 263 l 1233 263 l 1233 104 l 741 104 z "},"ㄹ":{"ha":1389,"x_min":222,"x_max":1190,"o":"m 231 88 l 231 610 l 983 610 l 983 814 l 222 814 l 222 972 l 1158 972 l 1158 452 l 404 452 l 404 245 l 1190 245 l 1190 88 l 231 88 z "},"ㄺ":{"ha":1389,"x_min":106,"x_max":1255,"o":"m 777 802 l 777 960 l 1255 960 l 1255 81 l 1080 81 l 1080 802 l 777 802 m 114 95 l 114 605 l 524 605 l 524 812 l 106 812 l 106 964 l 697 964 l 697 457 l 288 457 l 288 248 l 334 248 q 788 271 598 248 l 788 121 q 172 95 563 95 l 114 95 z "},"ㄻ":{"ha":1389,"x_min":119,"x_max":1263,"o":"m 127 95 l 127 605 l 479 605 l 479 812 l 119 812 l 119 966 l 652 966 l 652 457 l 302 457 l 302 248 l 340 248 q 688 270 499 248 l 688 118 q 183 95 446 95 l 127 95 m 739 95 l 739 962 l 1263 962 l 1263 95 l 739 95 m 907 254 l 1093 254 l 1093 803 l 907 803 l 907 254 z "},"ㄼ":{"ha":1389,"x_min":119,"x_max":1271,"o":"m 127 95 l 127 605 l 473 605 l 473 812 l 119 812 l 119 966 l 647 966 l 647 457 l 302 457 l 302 248 l 336 248 q 682 270 494 248 l 682 118 q 180 95 441 95 l 127 95 m 736 95 l 736 966 l 907 966 l 907 697 l 1101 697 l 1101 966 l 1271 966 l 1271 95 l 736 95 m 907 254 l 1101 254 l 1101 538 l 907 538 l 907 254 z "},"ㄽ":{"ha":1389,"x_min":153,"x_max":1345,"o":"m 646 175 q 833 454 754 282 q 913 817 913 627 l 913 975 l 1088 975 l 1088 818 q 1174 450 1088 635 q 1345 176 1260 266 l 1219 81 q 1091 267 1156 153 q 1004 469 1027 381 q 916 264 979 378 q 781 73 853 151 l 646 175 m 161 95 l 161 605 l 515 605 l 515 812 l 153 812 l 153 966 l 688 966 l 688 457 l 335 457 l 335 248 l 381 248 q 718 270 529 248 l 718 119 q 220 95 463 95 l 161 95 z "},"ㄾ":{"ha":1389,"x_min":151,"x_max":1271,"o":"m 159 95 l 159 605 l 509 605 l 509 812 l 151 812 l 151 966 l 682 966 l 682 457 l 332 457 l 332 248 l 373 248 q 718 270 529 248 l 718 119 q 208 95 463 95 l 159 95 m 768 95 l 768 962 l 1253 962 l 1253 803 l 941 803 l 941 608 l 1244 608 l 1244 452 l 941 452 l 941 254 l 1271 254 l 1271 95 l 768 95 z "},"ㄿ":{"ha":1389,"x_min":117,"x_max":1306,"o":"m 123 95 l 123 605 l 453 605 l 453 812 l 117 812 l 117 966 l 627 966 l 627 457 l 298 457 l 298 248 l 338 248 q 651 267 495 248 l 651 117 q 179 95 425 95 l 123 95 m 677 95 l 677 254 l 773 254 l 773 803 l 690 803 l 690 962 l 1291 962 l 1291 803 l 1207 803 l 1207 254 l 1306 254 l 1306 95 l 677 95 m 921 254 l 1059 254 l 1059 803 l 921 803 l 921 254 z "},"ㅀ":{"ha":1389,"x_min":92,"x_max":1326,"o":"m 795 850 l 795 990 l 1175 990 l 1175 850 l 795 850 m 640 608 l 640 749 l 1326 749 l 1326 608 l 640 608 m 677 301 q 764 474 677 410 q 983 538 852 538 q 1204 474 1116 538 q 1291 301 1291 410 q 1204 128 1291 193 q 983 64 1118 64 q 764 128 850 64 q 677 301 677 193 m 846 301 q 886 223 846 252 q 983 194 925 194 q 1081 223 1042 194 q 1120 301 1120 252 q 1081 380 1120 351 q 983 408 1042 408 q 886 379 925 408 q 846 301 846 350 m 100 95 l 100 605 l 426 605 l 426 812 l 92 812 l 92 966 l 600 966 l 600 457 l 274 457 l 274 248 l 308 248 q 642 267 476 248 l 642 117 q 170 95 415 95 l 100 95 z "},"ㅁ":{"ha":1389,"x_min":239,"x_max":1150,"o":"m 239 100 l 239 962 l 1150 962 l 1150 100 l 239 100 m 412 259 l 975 259 l 975 803 l 412 803 l 412 259 z "},"ㅂ":{"ha":1389,"x_min":235,"x_max":1153,"o":"m 235 100 l 235 972 l 410 972 l 410 693 l 979 693 l 979 972 l 1153 972 l 1153 100 l 235 100 m 410 259 l 979 259 l 979 534 l 410 534 l 410 259 z "},"ㅃ":{"ha":1389,"x_min":129,"x_max":1256,"o":"m 736 100 l 736 964 l 903 964 l 903 699 l 1090 699 l 1090 964 l 1256 964 l 1256 100 l 736 100 m 903 259 l 1090 259 l 1090 540 l 903 540 l 903 259 m 129 100 l 129 964 l 294 964 l 294 699 l 481 699 l 481 964 l 647 964 l 647 100 l 129 100 m 294 259 l 481 259 l 481 540 l 294 540 l 294 259 z "},"ㅄ":{"ha":1389,"x_min":117,"x_max":1355,"o":"m 659 170 q 845 450 766 275 q 924 814 924 624 l 924 972 l 1097 972 l 1097 815 q 1183 450 1097 632 q 1355 174 1268 267 l 1229 77 q 1104 260 1166 148 q 1016 465 1042 373 q 925 255 986 366 q 793 68 864 144 l 659 170 m 117 100 l 117 968 l 289 968 l 289 700 l 529 700 l 529 968 l 701 968 l 701 100 l 117 100 m 289 259 l 529 259 l 529 541 l 289 541 l 289 259 z "},"ㅅ":{"ha":1389,"x_min":133,"x_max":1255,"o":"m 133 206 q 307 309 227 251 q 458 446 388 368 q 568 624 528 524 q 608 836 608 724 l 608 982 l 781 982 l 781 837 q 823 626 781 727 q 934 447 864 525 q 1084 310 1004 369 q 1255 209 1164 251 l 1147 84 q 881 268 1015 146 q 696 510 747 389 q 509 262 648 388 q 243 80 369 136 l 133 206 z "},"ㅆ":{"ha":1389,"x_min":107,"x_max":1283,"o":"m 107 179 q 290 453 216 290 q 365 806 365 616 l 365 968 l 538 968 l 538 836 q 589 529 538 677 q 697 316 640 381 q 804 534 755 392 q 853 834 853 675 l 853 968 l 1027 968 l 1027 817 q 1103 456 1027 627 q 1283 183 1180 286 l 1156 87 q 1027 262 1095 149 q 937 465 960 374 q 831 246 910 363 q 697 91 751 129 q 563 243 640 129 q 456 465 486 357 q 366 264 430 373 q 236 87 302 155 l 107 179 z "},"ㅇ":{"ha":1389,"x_min":189,"x_max":1198,"o":"m 189 530 q 335 872 189 746 q 694 998 481 998 q 1052 871 906 998 q 1198 530 1198 745 q 1057 192 1198 323 q 694 61 916 61 q 333 189 477 61 q 189 530 189 316 m 372 530 q 460 297 372 387 q 694 208 549 208 q 932 298 845 208 q 1020 530 1020 388 q 931 763 1020 674 q 694 852 842 852 q 460 764 548 852 q 372 530 372 677 z "},"ㅈ":{"ha":1389,"x_min":149,"x_max":1236,"o":"m 694 480 q 524 264 644 370 q 247 81 403 157 l 149 212 q 304 299 231 250 q 447 413 377 349 q 558 557 517 477 q 600 720 600 637 l 600 796 l 243 796 l 243 960 l 1146 960 l 1146 796 l 788 796 l 788 720 q 829 559 788 639 q 939 415 871 480 q 1082 300 1008 350 q 1236 213 1157 251 l 1137 84 q 875 260 1005 145 q 694 480 745 374 z "},"ㅉ":{"ha":1389,"x_min":121,"x_max":1270,"o":"m 121 184 q 294 419 217 275 q 374 715 370 563 l 374 807 l 184 807 l 184 962 l 674 962 l 674 807 l 548 807 l 548 745 q 598 490 552 610 q 697 308 644 370 q 796 490 750 369 q 844 742 842 610 l 844 807 l 716 807 l 716 962 l 1204 962 l 1204 807 l 1016 807 l 1016 715 q 1097 418 1020 560 q 1270 190 1175 275 l 1147 88 q 1020 245 1085 144 q 932 420 955 347 q 830 233 899 327 q 693 90 761 140 q 560 233 628 137 q 460 419 492 328 q 371 240 435 345 q 250 87 307 136 l 121 184 z "},"ㅊ":{"ha":1389,"x_min":159,"x_max":1233,"o":"m 430 878 l 430 1025 l 963 1025 l 963 878 l 430 878 m 159 198 q 353 284 259 235 q 522 406 446 334 q 597 543 597 477 l 597 578 l 217 578 l 217 738 l 1176 738 l 1176 578 l 795 578 l 795 543 q 840 440 795 494 q 958 340 886 387 q 1099 260 1029 294 q 1233 201 1168 225 l 1142 69 q 886 198 1027 111 q 697 359 746 285 q 517 202 648 285 q 251 66 385 119 l 159 198 z "},"ㅋ":{"ha":1389,"x_min":201,"x_max":1164,"o":"m 201 448 l 201 597 l 979 597 q 991 812 991 719 l 224 812 l 224 962 l 1164 962 q 1141 507 1164 750 q 1078 79 1118 263 l 906 79 q 964 448 933 199 l 201 448 z "},"ㅌ":{"ha":1389,"x_min":245,"x_max":1177,"o":"m 245 100 l 245 962 l 1162 962 l 1162 800 l 425 800 l 425 610 l 1145 610 l 1145 453 l 425 453 l 425 266 l 1177 266 l 1177 100 l 245 100 z "},"ㅍ":{"ha":1389,"x_min":182,"x_max":1204,"o":"m 182 106 l 182 269 l 376 269 l 376 796 l 208 796 l 208 956 l 1177 956 l 1177 796 l 1009 796 l 1009 269 l 1204 269 l 1204 106 l 182 106 m 541 269 l 844 269 l 844 796 l 541 796 l 541 269 z "},"ㅎ":{"ha":1389,"x_min":164,"x_max":1225,"o":"m 404 875 l 404 1025 l 985 1025 l 985 875 l 404 875 m 164 616 l 164 765 l 1225 765 l 1225 616 l 164 616 m 239 290 q 363 475 239 407 q 693 544 488 544 q 1022 474 895 544 q 1149 289 1149 404 q 1022 104 1149 174 q 693 35 895 35 q 363 104 487 35 q 239 290 239 172 m 431 290 q 473 218 431 247 q 570 180 514 190 q 693 170 625 170 q 783 176 739 170 q 867 195 827 182 q 932 233 907 209 q 956 290 956 258 q 877 381 956 353 q 693 410 798 410 q 570 399 625 410 q 473 361 514 389 q 431 290 431 334 z "},"ㅏ":{"ha":1389,"x_min":529,"x_max":1116,"o":"m 529 -107 l 529 1161 l 701 1161 l 701 627 l 1116 627 l 1116 461 l 701 461 l 701 -107 l 529 -107 z "},"ㅐ":{"ha":1389,"x_min":444,"x_max":1032,"o":"m 444 -53 l 444 1126 l 609 1126 l 609 639 l 861 639 l 861 1161 l 1032 1161 l 1032 -107 l 861 -107 l 861 476 l 609 476 l 609 -53 l 444 -53 z "},"ㅑ":{"ha":1389,"x_min":529,"x_max":1111,"o":"m 529 -107 l 529 1161 l 701 1161 l 701 827 l 1111 827 l 1111 674 l 701 674 l 701 425 l 1111 425 l 1111 271 l 701 271 l 701 -107 l 529 -107 z "},"ㅒ":{"ha":1389,"x_min":385,"x_max":978,"o":"m 385 -53 l 385 1126 l 552 1126 l 552 837 l 806 837 l 806 1161 l 978 1161 l 978 -107 l 806 -107 l 806 271 l 552 271 l 552 -53 l 385 -53 m 552 426 l 806 426 l 806 682 l 552 682 l 552 426 z "},"ㅓ":{"ha":1389,"x_min":319,"x_max":894,"o":"m 319 461 l 319 627 l 720 627 l 720 1161 l 894 1161 l 894 -107 l 720 -107 l 720 461 l 319 461 z "},"ㅔ":{"ha":1389,"x_min":214,"x_max":1066,"o":"m 214 467 l 214 629 l 525 629 l 525 1126 l 692 1126 l 692 -53 l 525 -53 l 525 467 l 214 467 m 897 -107 l 897 1161 l 1066 1161 l 1066 -107 l 897 -107 z "},"ㅕ":{"ha":1389,"x_min":319,"x_max":890,"o":"m 319 270 l 319 423 l 719 423 l 719 685 l 319 685 l 319 838 l 719 838 l 719 1161 l 890 1161 l 890 -107 l 719 -107 l 719 270 l 319 270 z "},"ㅖ":{"ha":1389,"x_min":218,"x_max":1066,"o":"m 218 270 l 218 418 l 526 418 l 526 673 l 218 673 l 218 823 l 526 823 l 526 1126 l 693 1126 l 693 -53 l 526 -53 l 526 270 l 218 270 m 897 -107 l 897 1161 l 1066 1161 l 1066 -107 l 897 -107 z "},"ㅗ":{"ha":1389,"x_min":79,"x_max":1308,"o":"m 79 248 l 79 399 l 606 399 l 606 834 l 781 834 l 781 399 l 1308 399 l 1308 248 l 79 248 z "},"ㅘ":{"ha":1389,"x_min":95,"x_max":1343,"o":"m 977 -107 l 977 1161 l 1150 1161 l 1150 613 l 1343 613 l 1343 460 l 1150 460 l 1150 -107 l 977 -107 m 95 68 l 95 213 l 209 213 q 408 214 330 213 l 408 613 l 581 613 l 581 218 q 929 243 829 229 l 929 102 q 208 68 644 68 l 95 68 z "},"ㅙ":{"ha":1389,"x_min":87,"x_max":1271,"o":"m 802 -60 l 802 1133 l 959 1133 l 959 623 l 1107 623 l 1107 1161 l 1271 1161 l 1271 -107 l 1107 -107 l 1107 468 l 959 468 l 959 -60 l 802 -60 m 87 68 l 87 214 l 180 214 q 345 216 283 214 l 345 530 l 507 530 l 507 220 q 765 239 616 222 l 765 96 q 179 68 532 68 l 87 68 z "},"ㅚ":{"ha":1389,"x_min":95,"x_max":1207,"o":"m 1034 -107 l 1034 1161 l 1207 1161 l 1207 -107 l 1034 -107 m 95 68 l 95 214 l 225 214 q 438 216 353 214 l 438 618 l 610 618 l 610 218 q 987 241 848 225 l 987 99 q 224 68 686 68 l 95 68 z "},"ㅛ":{"ha":1389,"x_min":79,"x_max":1308,"o":"m 79 241 l 79 392 l 382 392 l 382 837 l 552 837 l 552 392 l 838 392 l 838 837 l 1006 837 l 1006 392 l 1308 392 l 1308 241 l 79 241 z "},"ㅜ":{"ha":1389,"x_min":79,"x_max":1308,"o":"m 79 595 l 79 746 l 1308 746 l 1308 595 l 781 595 l 781 111 l 608 111 l 608 595 l 79 595 z "},"ㅝ":{"ha":1389,"x_min":95,"x_max":1207,"o":"m 762 146 l 762 285 l 1034 285 l 1034 1161 l 1207 1161 l 1207 -107 l 1034 -107 l 1034 146 l 762 146 m 95 389 l 95 536 l 217 536 q 971 568 704 536 l 971 423 q 590 396 802 404 l 590 -69 l 418 -69 l 418 391 q 216 389 338 389 l 95 389 z "},"ㅞ":{"ha":1389,"x_min":88,"x_max":1259,"o":"m 628 156 l 628 296 l 834 296 l 834 1139 l 993 1139 l 993 -64 l 834 -64 l 834 156 l 628 156 m 1095 -107 l 1095 1161 l 1259 1161 l 1259 -107 l 1095 -107 m 88 420 l 88 564 l 182 564 q 783 594 540 564 l 783 453 q 506 430 644 438 l 506 -38 l 339 -38 l 339 422 q 180 420 275 420 l 88 420 z "},"ㅟ":{"ha":1389,"x_min":84,"x_max":1196,"o":"m 1023 -107 l 1023 1161 l 1196 1161 l 1196 -107 l 1023 -107 m 84 366 l 84 511 l 220 511 q 977 541 726 511 l 977 400 q 602 374 802 382 l 602 -83 l 430 -83 l 430 369 q 218 366 262 366 l 84 366 z "},"ㅠ":{"ha":1389,"x_min":79,"x_max":1308,"o":"m 79 612 l 79 761 l 1308 761 l 1308 612 l 1017 612 l 1017 114 l 848 114 l 848 612 l 541 612 l 541 114 l 372 114 l 372 612 l 79 612 z "},"ㅡ":{"ha":1389,"x_min":79,"x_max":1308,"o":"m 79 437 l 79 586 l 1308 586 l 1308 437 l 79 437 z "},"ㅢ":{"ha":1389,"x_min":95,"x_max":1207,"o":"m 95 80 l 95 225 l 224 225 q 987 258 696 225 l 987 118 q 222 80 671 80 l 95 80 m 1034 -107 l 1034 1161 l 1207 1161 l 1207 -107 l 1034 -107 z "},"ㅣ":{"ha":1389,"x_min":608,"x_max":780,"o":"m 608 -107 l 608 1161 l 780 1161 l 780 -107 l 608 -107 z "},"ㅥ":{"ha":1389,"x_min":194,"x_max":1225,"o":"m 194 100 l 194 977 l 353 977 l 353 259 l 382 259 q 689 282 528 259 l 689 133 q 228 100 475 100 l 194 100 m 735 100 l 735 978 l 907 978 l 907 259 l 1225 259 l 1225 100 l 735 100 z "},"ㅦ":{"ha":1389,"x_min":176,"x_max":1248,"o":"m 176 100 l 176 974 l 335 974 l 335 259 l 365 259 q 678 282 517 259 l 678 133 q 210 100 464 100 l 176 100 m 738 100 l 738 962 l 1234 962 l 1234 791 l 907 791 l 907 271 l 1248 271 l 1248 100 l 738 100 z "},"ㅧ":{"ha":1389,"x_min":167,"x_max":1337,"o":"m 629 168 q 819 448 739 277 q 899 810 899 620 l 899 975 l 1073 975 l 1073 811 q 1162 445 1073 628 q 1337 171 1251 262 l 1210 75 q 1082 258 1146 146 q 991 461 1017 370 q 900 255 963 365 q 764 66 837 145 l 629 168 m 167 107 l 167 974 l 326 974 l 326 264 l 355 264 q 647 288 486 264 l 647 138 q 202 107 442 107 l 167 107 z "},"ㅨ":{"ha":1389,"x_min":133,"x_max":1358,"o":"m 827 241 l 1138 241 l 983 681 l 827 241 m 609 100 l 983 1040 l 1358 100 l 609 100 m 133 100 l 133 974 l 301 974 l 301 254 l 315 254 q 621 279 449 254 l 621 133 q 161 100 410 100 l 133 100 z "},"ㅩ":{"ha":1389,"x_min":45,"x_max":1383,"o":"m 821 151 q 962 441 902 260 q 1023 812 1023 623 l 1023 972 l 1185 972 l 1185 814 q 1248 448 1185 632 q 1383 157 1310 264 l 1255 76 q 1163 256 1204 153 q 1111 438 1122 358 q 1053 250 1096 354 q 952 66 1009 146 l 821 151 m 50 95 l 50 606 l 275 606 l 275 812 l 45 812 l 45 964 l 449 964 l 449 460 l 224 460 l 224 248 l 245 248 q 500 266 342 248 l 500 114 q 92 95 326 95 l 50 95 m 483 780 l 483 960 l 859 960 l 859 84 l 681 84 l 681 780 l 483 780 z "},"ㅪ":{"ha":1389,"x_min":159,"x_max":1260,"o":"m 167 95 l 167 606 l 510 606 l 510 812 l 159 812 l 159 964 l 684 964 l 684 458 l 340 458 l 340 248 l 378 248 q 722 269 545 248 l 722 118 q 221 95 480 95 l 167 95 m 783 95 l 783 962 l 1242 962 l 1242 789 l 954 789 l 954 266 l 1260 266 l 1260 95 l 783 95 z "},"ㅫ":{"ha":1389,"x_min":39,"x_max":1393,"o":"m 840 151 q 979 441 920 260 q 1039 812 1039 621 l 1039 972 l 1199 972 l 1199 814 q 1260 449 1199 632 q 1393 159 1321 266 l 1261 76 q 1174 254 1214 151 q 1123 438 1134 357 q 1066 250 1107 350 q 970 68 1025 149 l 840 151 m 483 95 l 483 968 l 632 968 l 632 693 l 758 693 l 758 968 l 907 968 l 907 95 l 483 95 m 632 243 l 758 243 l 758 541 l 632 541 l 632 243 m 47 95 l 47 605 l 260 605 l 260 818 l 39 818 l 39 964 l 422 964 l 422 467 l 199 467 l 199 245 l 221 245 q 454 259 355 245 l 454 110 q 79 95 315 95 l 47 95 z "},"ㅬ":{"ha":1389,"x_min":99,"x_max":1370,"o":"m 838 236 l 1149 236 l 996 680 l 838 236 m 620 95 l 996 1038 l 1370 95 l 620 95 m 109 95 l 109 606 l 458 606 l 458 812 l 99 812 l 99 964 l 632 964 l 632 458 l 282 458 l 282 248 l 319 248 q 655 270 467 248 l 655 118 q 161 95 414 95 l 109 95 z "},"ㅭ":{"ha":1389,"x_min":118,"x_max":1326,"o":"m 126 95 l 126 606 l 461 606 l 461 812 l 118 812 l 118 964 l 633 964 l 633 458 l 301 458 l 301 248 l 340 248 q 684 270 495 248 l 684 118 q 182 95 442 95 l 126 95 m 731 406 q 809 640 731 545 q 1021 735 887 735 q 1232 640 1154 735 q 1310 406 1310 545 q 1233 170 1310 264 q 1021 76 1156 76 q 808 171 886 76 q 731 406 731 266 m 903 406 q 934 276 903 326 q 1021 227 964 227 q 1108 277 1077 227 q 1139 406 1139 327 q 1108 535 1139 486 q 1021 585 1077 585 q 934 535 964 585 q 903 406 903 486 m 726 811 l 726 962 l 1326 962 l 1326 811 l 726 811 z "},"ㅮ":{"ha":1389,"x_min":111,"x_max":1278,"o":"m 735 100 l 735 968 l 902 968 l 902 696 l 1109 696 l 1109 968 l 1278 968 l 1278 100 l 735 100 m 902 252 l 1109 252 l 1109 543 l 902 543 l 902 252 m 111 100 l 111 962 l 648 962 l 648 100 l 111 100 m 275 244 l 483 244 l 483 817 l 275 817 l 275 244 z "},"ㅯ":{"ha":1389,"x_min":111,"x_max":1341,"o":"m 639 171 q 826 451 746 277 q 906 815 906 625 l 906 972 l 1081 972 l 1081 817 q 1168 451 1081 633 q 1341 175 1255 269 l 1215 79 q 1088 263 1152 151 q 998 467 1024 376 q 908 257 970 368 q 774 69 846 146 l 639 171 m 111 100 l 111 962 l 655 962 l 655 100 l 111 100 m 279 244 l 488 244 l 488 817 l 279 817 l 279 244 z "},"ㅰ":{"ha":1389,"x_min":84,"x_max":1370,"o":"m 838 241 l 1149 241 l 996 681 l 838 241 m 620 100 l 996 1038 l 1370 100 l 620 100 m 84 100 l 84 962 l 620 962 l 620 100 l 84 100 m 251 244 l 453 244 l 453 817 l 251 817 l 251 244 z "},"ㅱ":{"ha":1389,"x_min":263,"x_max":1126,"o":"m 380 239 q 469 416 380 349 q 694 484 557 484 q 921 416 833 484 q 1009 239 1009 349 q 920 61 1009 127 q 694 -5 831 -5 q 468 62 556 -5 q 380 239 380 129 m 547 239 q 588 157 547 190 q 694 125 629 125 q 802 157 762 125 q 842 239 842 190 q 802 320 842 286 q 694 354 761 354 q 587 320 627 354 q 547 239 547 286 m 263 541 l 263 1073 l 1126 1073 l 1126 541 l 263 541 m 434 682 l 955 682 l 955 933 l 434 933 l 434 682 z "},"ㅲ":{"ha":1389,"x_min":151,"x_max":1263,"o":"m 811 803 l 811 962 l 1263 962 q 1238 518 1263 770 q 1171 79 1214 266 l 1000 79 q 1063 467 1039 248 q 1088 803 1088 686 l 811 803 m 151 100 l 151 968 l 317 968 l 317 696 l 567 696 l 567 968 l 735 968 l 735 100 l 151 100 m 317 252 l 567 252 l 567 543 l 317 543 l 317 252 z "},"ㅳ":{"ha":1389,"x_min":136,"x_max":1265,"o":"m 136 100 l 136 968 l 302 968 l 302 696 l 549 696 l 549 968 l 719 968 l 719 100 l 136 100 m 302 252 l 549 252 l 549 543 l 302 543 l 302 252 m 806 100 l 806 962 l 1246 962 l 1246 791 l 975 791 l 975 273 l 1265 273 l 1265 100 l 806 100 z "},"ㅴ":{"ha":1389,"x_min":56,"x_max":1344,"o":"m 943 798 l 943 960 l 1344 960 q 1321 515 1344 765 q 1256 79 1298 266 l 1084 79 q 1146 467 1122 251 q 1171 798 1171 682 l 943 798 m 505 151 q 648 442 587 263 q 708 812 708 621 l 708 974 l 871 974 l 871 814 q 934 450 871 633 q 1072 155 997 266 l 940 71 q 848 252 890 146 q 795 438 806 357 q 737 254 781 355 q 635 68 693 152 l 505 151 m 56 100 l 56 968 l 217 968 l 217 697 l 377 697 l 377 968 l 538 968 l 538 100 l 56 100 m 217 251 l 377 251 l 377 545 l 217 545 l 217 251 z "},"ㅵ":{"ha":1389,"x_min":57,"x_max":1359,"o":"m 476 151 q 619 446 557 262 q 681 821 681 629 l 681 974 l 842 974 l 842 822 q 907 453 842 640 q 1044 155 971 266 l 913 71 q 821 254 864 145 q 768 445 779 362 q 710 256 754 361 q 608 68 666 152 l 476 151 m 57 100 l 57 968 l 217 968 l 217 697 l 366 697 l 366 968 l 526 968 l 526 100 l 57 100 m 217 250 l 366 250 l 366 545 l 217 545 l 217 250 m 996 100 l 996 962 l 1344 962 l 1344 789 l 1158 789 l 1158 273 l 1359 273 l 1359 100 l 996 100 z "},"ㅶ":{"ha":1389,"x_min":88,"x_max":1344,"o":"m 88 100 l 88 968 l 255 968 l 255 696 l 484 696 l 484 968 l 652 968 l 652 100 l 88 100 m 255 252 l 484 252 l 484 543 l 255 543 l 255 252 m 651 179 q 911 704 911 439 l 911 807 l 715 807 l 715 962 l 1283 962 l 1283 807 l 1086 807 l 1086 705 q 1164 418 1086 552 q 1344 184 1241 283 l 1217 81 q 1083 245 1143 153 q 998 410 1023 338 q 913 244 972 335 q 777 77 853 153 l 651 179 z "},"ㅷ":{"ha":1389,"x_min":134,"x_max":1276,"o":"m 134 100 l 134 968 l 301 968 l 301 696 l 532 696 l 532 968 l 700 968 l 700 100 l 134 100 m 301 252 l 532 252 l 532 543 l 301 543 l 301 252 m 785 100 l 785 962 l 1259 962 l 1259 803 l 959 803 l 959 605 l 1249 605 l 1249 457 l 959 457 l 959 259 l 1276 259 l 1276 100 l 785 100 z "},"ㅸ":{"ha":1389,"x_min":263,"x_max":1126,"o":"m 380 239 q 469 416 380 349 q 694 484 557 484 q 920 416 831 484 q 1009 239 1009 347 q 921 61 1009 127 q 694 -5 833 -5 q 468 61 556 -5 q 380 239 380 127 m 547 239 q 587 157 547 190 q 694 125 628 125 q 802 157 762 125 q 842 239 842 190 q 802 320 842 286 q 694 354 761 354 q 587 320 627 354 q 547 239 547 286 m 263 541 l 263 1089 l 433 1089 l 433 952 l 956 952 l 956 1089 l 1126 1089 l 1126 541 l 263 541 m 433 682 l 956 682 l 956 817 l 433 817 l 433 682 z "},"ㅹ":{"ha":1389,"x_min":168,"x_max":1222,"o":"m 380 239 q 470 417 380 350 q 694 484 560 484 q 920 416 831 484 q 1009 239 1009 349 q 920 61 1009 127 q 694 -5 831 -5 q 469 60 557 -5 q 380 239 380 126 m 547 239 q 588 157 547 189 q 694 125 629 125 q 800 157 758 125 q 842 239 842 189 q 801 321 842 288 q 694 354 760 354 q 587 321 628 354 q 547 239 547 288 m 168 541 l 168 1086 l 321 1086 l 321 943 l 509 943 l 509 1086 l 662 1086 l 662 541 l 168 541 m 321 681 l 509 681 l 509 811 l 321 811 l 321 681 m 728 541 l 728 1086 l 880 1086 l 880 943 l 1069 943 l 1069 1086 l 1222 1086 l 1222 541 l 728 541 m 882 681 l 1069 681 l 1069 811 l 882 811 l 882 681 z "},"ㅺ":{"ha":1389,"x_min":100,"x_max":1199,"o":"m 719 803 l 719 962 l 1199 962 q 1175 517 1199 769 q 1108 79 1152 264 l 936 79 q 1001 469 977 250 q 1025 803 1025 688 l 719 803 m 100 171 q 292 453 210 279 q 374 815 374 627 l 374 974 l 548 974 l 548 817 q 637 453 548 635 q 817 175 727 271 l 688 79 q 557 264 623 152 q 465 468 491 377 q 372 258 435 369 q 236 69 308 148 l 100 171 z "},"ㅻ":{"ha":1389,"x_min":90,"x_max":1294,"o":"m 90 171 q 279 452 198 278 q 361 815 361 625 l 361 972 l 536 972 l 536 817 q 564 615 536 720 q 637 425 593 510 q 722 277 681 340 q 800 175 764 214 l 673 79 q 544 264 609 151 q 453 468 479 378 q 361 259 425 370 q 225 69 297 148 l 90 171 m 808 100 l 808 971 l 981 971 l 981 259 l 1294 259 l 1294 100 l 808 100 z "},"ㅼ":{"ha":1389,"x_min":81,"x_max":1286,"o":"m 81 171 q 271 452 190 278 q 351 815 351 625 l 351 972 l 526 972 l 526 817 q 576 550 526 690 q 682 320 627 410 q 789 175 738 231 l 663 79 q 534 264 600 151 q 444 468 469 378 q 351 259 415 370 q 216 69 288 148 l 81 171 m 793 100 l 793 962 l 1268 962 l 1268 792 l 963 792 l 963 270 l 1286 270 l 1286 100 l 793 100 z "},"ㅽ":{"ha":1389,"x_min":46,"x_max":1291,"o":"m 46 171 q 233 451 153 277 q 313 815 313 625 l 313 971 l 488 971 l 488 817 q 575 451 488 633 q 749 175 662 269 l 623 79 q 495 263 559 151 q 406 467 431 376 q 315 257 377 368 q 182 69 254 146 l 46 171 m 746 100 l 746 968 l 913 968 l 913 696 l 1123 696 l 1123 968 l 1291 968 l 1291 100 l 746 100 m 913 252 l 1123 252 l 1123 543 l 913 543 l 913 252 z "},"ㅾ":{"ha":1389,"x_min":72,"x_max":1298,"o":"m 72 171 q 259 449 179 281 q 339 815 339 617 l 339 972 l 514 972 l 514 818 q 567 537 514 677 q 693 309 620 397 q 812 486 764 380 q 860 716 860 593 l 860 808 l 665 808 l 665 962 l 1240 962 l 1240 808 l 1046 808 l 1046 719 q 1298 189 1046 450 l 1169 87 q 1043 247 1104 152 q 955 426 982 342 q 838 231 914 330 q 692 76 762 132 q 546 236 633 111 q 431 468 458 361 q 342 258 410 374 q 206 69 275 142 l 72 171 z "},"ㅿ":{"ha":1389,"x_min":130,"x_max":1259,"o":"m 130 100 l 694 1044 l 1259 100 l 130 100 m 407 256 l 982 256 l 694 753 l 407 256 z "},"ㆀ":{"ha":1389,"x_min":109,"x_max":1282,"o":"m 109 530 q 182 863 109 734 q 393 993 256 993 q 604 864 530 993 q 678 530 678 735 q 604 195 678 324 q 393 66 530 66 q 182 195 256 66 q 109 530 109 324 m 281 530 q 307 305 281 393 q 393 217 334 217 q 480 306 453 217 q 507 530 507 395 q 480 754 507 666 q 393 842 453 842 q 281 530 281 842 m 712 530 q 786 863 712 734 q 996 993 860 993 q 1207 863 1133 993 q 1282 530 1282 734 q 1207 195 1282 324 q 996 66 1133 66 q 785 195 859 66 q 712 530 712 324 m 883 530 q 909 305 883 393 q 996 217 936 217 q 1082 306 1055 217 q 1109 530 1109 395 q 1082 754 1109 666 q 996 842 1055 842 q 883 530 883 842 z "},"ㆁ":{"ha":1389,"x_min":202,"x_max":1187,"o":"m 382 530 q 469 307 382 393 q 694 220 555 220 q 922 307 836 220 q 1008 530 1008 395 q 920 753 1008 667 q 694 840 833 840 q 471 755 559 840 q 382 530 382 670 m 780 982 q 1070 839 954 958 q 1187 530 1187 720 q 1045 197 1187 324 q 694 71 903 71 q 346 197 490 71 q 202 530 202 323 q 318 838 202 719 q 610 982 434 958 l 610 1147 l 780 1147 l 780 982 z "},"ㆂ":{"ha":1389,"x_min":130,"x_max":1358,"o":"m 654 171 q 842 452 762 278 q 922 815 922 625 l 922 974 l 1096 974 l 1096 817 q 1183 452 1096 633 q 1358 175 1271 270 l 1230 79 q 1104 263 1168 151 q 1015 467 1040 376 q 924 258 986 368 q 789 69 861 148 l 654 171 m 301 530 q 330 312 301 397 q 420 227 359 227 q 511 312 481 227 q 540 530 540 397 q 511 748 540 663 q 420 833 483 833 q 351 789 378 833 q 312 681 323 746 q 301 530 301 616 m 496 971 q 655 821 600 940 q 711 530 711 701 q 635 201 711 327 q 420 76 560 76 q 206 201 282 76 q 130 530 130 326 q 186 819 130 700 q 345 971 241 939 l 345 1131 l 496 1131 l 496 971 z "},"ㆃ":{"ha":1389,"x_min":95,"x_max":1366,"o":"m 617 100 l 991 1038 l 1366 100 l 617 100 m 836 241 l 1147 241 l 991 682 l 836 241 m 266 530 q 295 312 266 397 q 385 227 324 227 q 475 312 446 227 q 505 530 505 397 q 476 748 505 663 q 385 833 448 833 q 315 789 343 833 q 277 681 288 746 q 266 530 266 616 m 461 971 q 620 821 564 940 q 675 530 675 701 q 600 201 675 327 q 385 76 525 76 q 171 201 247 76 q 95 530 95 326 q 151 819 95 700 q 309 971 206 939 l 309 1131 l 461 1131 l 461 971 z "},"ㆄ":{"ha":1389,"x_min":175,"x_max":1213,"o":"m 380 239 q 469 416 380 349 q 694 484 557 484 q 920 416 831 484 q 1009 239 1009 347 q 920 61 1009 127 q 694 -5 831 -5 q 468 62 556 -5 q 380 239 380 129 m 547 239 q 589 157 547 190 q 694 125 631 125 q 802 157 761 125 q 842 239 842 190 q 801 320 842 286 q 694 354 760 354 q 587 320 628 354 q 547 239 547 286 m 175 544 l 175 685 l 376 685 l 376 930 l 203 930 l 203 1072 l 1185 1072 l 1185 930 l 1013 930 l 1013 685 l 1213 685 l 1213 544 l 175 544 m 540 685 l 849 685 l 849 930 l 540 930 l 540 685 z "},"ㆅ":{"ha":1389,"x_min":53,"x_max":1337,"o":"m 182 888 l 182 1028 l 543 1028 l 543 888 l 182 888 m 53 628 l 53 772 l 670 772 l 670 628 l 53 628 m 77 296 q 159 484 77 412 q 361 555 240 555 q 564 484 481 555 q 646 297 646 414 q 564 111 646 182 q 361 41 483 41 q 158 111 239 41 q 77 296 77 180 m 241 297 q 275 209 241 244 q 361 174 309 174 q 445 209 410 174 q 480 297 480 244 q 446 387 480 353 q 361 420 412 420 q 274 386 307 420 q 241 297 241 351 m 849 888 l 849 1028 l 1210 1028 l 1210 888 l 849 888 m 719 628 l 719 772 l 1337 772 l 1337 628 l 719 628 m 743 297 q 825 484 743 414 q 1028 555 907 555 q 1230 484 1149 555 q 1312 297 1312 414 q 1232 111 1312 180 q 1028 41 1152 41 q 825 111 907 41 q 743 297 743 182 m 909 297 q 943 209 909 244 q 1028 174 977 174 q 1112 209 1078 174 q 1146 297 1146 244 q 1112 386 1146 351 q 1028 420 1078 420 q 942 386 975 420 q 909 297 909 351 z "},"ㆆ":{"ha":1389,"x_min":208,"x_max":1181,"o":"m 208 829 l 208 981 l 1181 981 l 1181 829 l 208 829 m 309 396 q 417 631 309 537 q 696 726 525 726 q 973 631 867 726 q 1080 396 1080 537 q 972 159 1080 254 q 696 64 865 64 q 418 159 526 64 q 309 396 309 255 m 484 396 q 542 267 484 319 q 696 214 600 214 q 848 267 791 214 q 905 396 905 319 q 848 524 905 472 q 696 575 791 575 q 542 524 600 575 q 484 396 484 472 z "},"ㆇ":{"ha":1389,"x_min":73,"x_max":1362,"o":"m 985 -107 l 985 1161 l 1156 1161 l 1156 827 l 1362 827 l 1362 678 l 1156 678 l 1156 416 l 1362 416 l 1362 267 l 1156 267 l 1156 -107 l 985 -107 m 73 66 l 73 210 l 269 210 l 269 635 l 437 635 l 437 213 q 576 216 476 213 l 576 635 l 745 635 l 745 222 q 937 236 808 224 l 937 96 q 186 66 633 66 l 73 66 z "},"ㆈ":{"ha":1389,"x_min":87,"x_max":1276,"o":"m 966 415 l 1111 415 l 1111 686 l 966 686 l 966 415 m 808 -60 l 808 1133 l 966 1133 l 966 841 l 1111 841 l 1111 1161 l 1276 1161 l 1276 -107 l 1111 -107 l 1111 260 l 966 260 l 966 -60 l 808 -60 m 87 66 l 87 212 l 195 212 l 195 694 l 354 694 l 354 213 q 476 217 422 216 l 476 694 l 635 694 l 635 227 q 769 237 724 232 l 769 95 q 179 66 477 66 l 87 66 z "},"ㆉ":{"ha":1389,"x_min":87,"x_max":1221,"o":"m 1048 -107 l 1048 1161 l 1221 1161 l 1221 -107 l 1048 -107 m 87 66 l 87 212 l 289 212 l 289 633 l 461 633 l 461 213 q 627 217 597 217 l 627 633 l 799 633 l 799 224 q 1001 239 894 227 l 1001 96 q 237 66 678 66 l 87 66 z "},"ㆊ":{"ha":1389,"x_min":84,"x_max":1230,"o":"m 822 46 l 822 189 l 1059 189 l 1059 300 l 822 300 l 822 439 l 1059 439 l 1059 1161 l 1230 1161 l 1230 -107 l 1059 -107 l 1059 46 l 822 46 m 84 518 l 84 662 l 255 662 q 1005 693 643 662 l 1005 551 q 705 530 888 538 l 705 -72 l 540 -72 l 540 522 q 412 519 453 519 l 412 -72 l 245 -72 l 245 518 l 84 518 z "},"ㆋ":{"ha":1389,"x_min":64,"x_max":1264,"o":"m 1100 -107 l 1100 1161 l 1264 1161 l 1264 -107 l 1100 -107 m 663 75 l 663 220 l 834 220 l 834 319 l 663 319 l 663 463 l 834 463 l 834 1139 l 993 1139 l 993 -64 l 834 -64 l 834 75 l 663 75 m 64 536 l 64 680 l 164 680 q 785 704 481 680 l 785 560 q 590 545 644 547 l 590 -26 l 435 -26 l 435 538 q 374 537 415 538 q 317 536 334 536 l 317 -26 l 163 -26 l 163 536 l 64 536 z "},"ㆌ":{"ha":1389,"x_min":73,"x_max":1217,"o":"m 1044 -107 l 1044 1161 l 1217 1161 l 1217 -107 l 1044 -107 m 73 442 l 73 587 l 187 587 q 998 612 742 587 l 998 469 q 766 453 897 460 l 766 -35 l 600 -35 l 600 448 q 419 444 506 444 l 419 -35 l 251 -35 l 251 442 l 73 442 z "},"ㆍ":{"ha":1389,"x_min":571,"x_max":818,"o":"m 571 549 q 606 636 571 601 q 694 671 642 671 q 783 636 747 671 q 818 549 818 601 q 782 461 818 499 q 694 423 746 423 q 606 460 642 423 q 571 549 571 498 z "},"ㆎ":{"ha":1389,"x_min":388,"x_max":1099,"o":"m 388 548 q 423 636 388 600 q 511 673 458 673 q 600 636 564 673 q 635 548 635 600 q 600 460 635 496 q 511 423 564 423 q 423 460 458 423 q 388 548 388 496 m 926 -107 l 926 1161 l 1099 1161 l 1099 -107 l 926 -107 z "},"㈜":{"ha":1626,"x_min":34,"x_max":1592,"o":"m 330 624 q 496 677 412 643 q 652 768 581 711 q 727 884 724 825 l 727 918 l 408 918 l 408 1046 l 1222 1046 l 1222 918 l 907 918 l 907 884 q 978 770 910 826 q 1131 678 1046 713 q 1302 624 1217 643 l 1236 518 q 991 607 1107 548 q 817 739 876 666 q 642 608 760 670 q 397 515 525 547 l 330 624 m 264 323 l 264 450 l 1359 450 l 1359 323 l 890 323 l 890 -38 l 739 -38 l 739 323 l 264 323 m 34 526 q 279 1204 34 920 l 410 1204 q 385 1171 407 1200 q 355 1129 363 1141 q 325 1084 347 1118 q 292 1029 302 1050 q 262 968 282 1008 q 232 897 243 928 q 208 819 221 865 q 187 730 194 773 q 175 634 180 688 q 170 526 170 581 q 187 307 170 406 q 245 121 205 208 q 317 -16 286 35 q 410 -153 349 -66 l 279 -153 q 34 526 34 134 m 1217 -153 q 1291 -45 1267 -83 q 1354 63 1316 -8 q 1411 194 1393 134 q 1444 341 1430 254 q 1459 526 1459 429 q 1454 644 1459 587 q 1436 753 1449 701 q 1413 845 1424 804 q 1382 930 1402 886 q 1350 1001 1362 974 q 1312 1067 1337 1028 q 1278 1119 1287 1105 q 1244 1167 1270 1133 q 1217 1204 1219 1202 l 1348 1204 q 1592 526 1592 921 q 1348 -153 1592 133 l 1217 -153 z "},"㉿":{"ha":1424,"x_min":38,"x_max":1386,"o":"m 472 151 l 472 887 l 613 887 l 613 578 l 899 883 l 1082 883 l 799 582 l 1070 151 l 913 151 l 703 491 l 613 395 l 613 151 l 472 151 m 41 468 q 39 521 39 486 q 119 861 38 708 q 356 1107 201 1015 q 713 1199 511 1199 q 966 1156 849 1199 q 1161 1042 1082 1114 q 1291 888 1240 971 q 1363 718 1343 806 l 1242 718 q 1185 840 1225 779 q 1084 960 1146 901 q 924 1055 1021 1019 q 712 1092 827 1092 q 332 952 484 1092 q 157 593 179 812 l 396 593 l 396 468 l 41 468 m 64 334 l 182 334 q 241 207 201 269 q 345 87 282 145 q 505 -5 408 30 q 715 -41 601 -41 q 1101 104 949 -41 q 1267 465 1252 250 l 1047 465 l 1047 590 l 1383 590 q 1386 528 1386 547 q 1198 41 1386 231 q 715 -148 1010 -148 q 461 -105 578 -148 q 267 8 345 -62 q 138 161 189 79 q 64 334 87 244 z "},"㎀":{"ha":1758,"x_min":102,"x_max":1763,"o":"m 271 392 q 318 195 271 269 q 449 122 365 122 q 579 193 529 122 q 629 392 629 264 q 581 588 629 515 q 449 661 533 661 q 319 586 366 661 q 271 392 271 511 m 102 -320 l 102 783 l 267 783 l 267 681 q 473 807 339 807 q 710 695 616 807 q 804 392 804 583 q 774 201 804 285 q 695 71 745 118 q 589 -1 646 23 q 473 -24 533 -24 q 347 10 397 -24 q 273 91 296 45 l 273 -320 l 102 -320 m 1118 410 l 1438 410 l 1347 688 q 1326 754 1337 718 q 1301 835 1314 791 q 1282 901 1289 879 l 1274 901 q 1208 688 1270 887 l 1118 410 m 792 0 l 1180 1073 l 1377 1073 l 1763 0 l 1573 0 l 1485 266 l 1070 266 l 982 0 l 792 0 z "},"㎁":{"ha":1747,"x_min":94,"x_max":1752,"o":"m 1107 410 l 1427 410 l 1336 688 q 1315 754 1326 718 q 1291 835 1303 791 q 1271 901 1278 879 l 1263 901 q 1198 688 1259 887 l 1107 410 m 781 0 l 1169 1073 l 1366 1073 l 1752 0 l 1563 0 l 1474 266 l 1059 266 l 971 0 l 781 0 m 94 0 l 94 783 l 260 783 l 260 684 l 262 684 q 337 767 282 727 q 479 807 392 807 q 665 735 595 807 q 734 503 734 663 l 734 0 l 562 0 l 562 480 q 439 661 562 661 q 315 601 365 661 q 266 453 266 541 l 266 0 l 94 0 z "},"㎂":{"ha":1930,"x_min":4,"x_max":1935,"o":"m 1290 410 l 1610 410 l 1519 688 q 1498 754 1510 718 q 1474 835 1487 791 q 1454 901 1461 879 l 1446 901 q 1381 688 1442 887 l 1290 410 m 964 0 l 1352 1073 l 1549 1073 l 1935 0 l 1746 0 l 1657 266 l 1242 266 l 1154 0 l 964 0 m 4 -302 l 217 784 l 401 784 l 308 293 q 318 170 294 218 q 406 122 342 122 q 548 271 518 122 l 646 784 l 827 784 l 716 212 q 726 150 709 176 q 779 123 743 123 q 846 186 822 123 l 987 126 q 789 -23 913 -23 q 694 5 732 -23 q 650 60 656 34 l 648 64 q 441 -24 581 -24 q 264 45 321 -24 l 260 45 l 189 -302 l 4 -302 z "},"㎃":{"ha":2150,"x_min":94,"x_max":2155,"o":"m 1510 410 l 1830 410 l 1739 688 q 1718 754 1729 718 q 1693 835 1706 791 q 1674 901 1681 879 l 1666 901 q 1600 688 1662 887 l 1510 410 m 1184 0 l 1572 1073 l 1769 1073 l 2155 0 l 1965 0 l 1877 266 l 1462 266 l 1374 0 l 1184 0 m 94 0 l 94 783 l 260 783 l 260 692 q 334 769 281 731 q 461 807 387 807 q 651 667 590 807 q 676 705 661 686 q 720 750 692 724 q 791 791 747 776 q 887 807 836 807 q 1127 503 1127 807 l 1127 0 l 954 0 l 954 498 q 930 620 954 579 q 849 661 907 661 q 737 603 780 661 q 694 461 694 545 l 694 0 l 525 0 l 525 502 q 419 661 525 661 q 306 606 346 661 q 266 464 266 552 l 266 0 l 94 0 z "},"㎄":{"ha":1767,"x_min":103,"x_max":1773,"o":"m 1127 410 l 1447 410 l 1356 688 q 1335 754 1347 718 q 1311 835 1324 791 q 1291 901 1298 879 l 1283 901 q 1218 688 1279 887 l 1127 410 m 802 0 l 1190 1073 l 1386 1073 l 1773 0 l 1583 0 l 1495 266 l 1080 266 l 991 0 l 802 0 m 103 0 l 103 1108 l 274 1108 l 274 471 l 552 783 l 768 783 l 479 464 l 785 0 l 585 0 l 368 343 l 274 240 l 274 0 l 103 0 z "},"㎈":{"ha":1866,"x_min":49,"x_max":1758,"o":"m 49 391 q 150 693 49 579 q 411 807 251 807 q 608 736 528 807 q 708 575 688 666 l 562 534 q 506 623 545 586 q 412 661 467 661 q 275 583 324 661 q 225 391 225 506 q 278 193 225 263 q 412 122 331 122 q 517 163 472 122 q 581 258 563 205 l 727 216 q 614 48 701 121 q 411 -24 528 -24 q 150 89 251 -24 q 49 391 49 202 m 958 220 q 992 147 958 176 q 1084 118 1027 118 q 1223 172 1165 118 q 1280 315 1280 227 l 1280 387 q 1130 358 1218 372 q 958 220 958 331 m 784 205 q 1112 475 784 426 q 1280 507 1232 492 l 1280 549 q 1240 639 1280 606 q 1131 671 1199 671 q 909 566 1002 671 l 804 655 q 950 767 865 727 q 1128 807 1035 807 q 1378 722 1303 807 q 1453 486 1453 637 l 1453 0 l 1286 0 l 1286 98 q 1201 12 1261 47 q 1059 -24 1141 -24 q 857 39 930 -24 q 784 205 784 103 m 1587 0 l 1587 1108 l 1758 1108 l 1758 0 l 1587 0 z "},"㎉":{"ha":2535,"x_min":103,"x_max":2426,"o":"m 103 0 l 103 1108 l 274 1108 l 274 471 l 552 783 l 768 783 l 479 464 l 785 0 l 585 0 l 368 343 l 274 240 l 274 0 l 103 0 m 732 391 q 833 693 732 579 q 1095 807 935 807 q 1291 736 1211 807 q 1392 575 1371 666 l 1245 534 q 1190 623 1229 586 q 1096 661 1150 661 q 958 583 1008 661 q 909 391 909 506 q 962 193 909 263 q 1096 122 1015 122 q 1201 163 1156 122 q 1264 258 1246 205 l 1411 216 q 1298 48 1385 121 q 1095 -24 1211 -24 q 833 89 935 -24 q 732 391 732 202 m 1633 220 q 1668 147 1633 176 q 1759 118 1702 118 q 1898 172 1841 118 q 1956 315 1956 227 l 1956 387 q 1805 358 1893 372 q 1633 220 1633 331 m 1459 205 q 1788 475 1459 426 q 1956 507 1907 492 l 1956 549 q 1915 639 1956 606 q 1807 671 1874 671 q 1584 566 1678 671 l 1480 655 q 1626 767 1541 727 q 1804 807 1710 807 q 2053 722 1979 807 q 2128 486 2128 637 l 2128 0 l 1961 0 l 1961 98 q 1876 12 1937 47 q 1735 -24 1816 -24 q 1533 39 1606 -24 q 1459 205 1459 103 m 2256 0 l 2256 1108 l 2426 1108 l 2426 0 l 2256 0 z "},"㎊":{"ha":1595,"x_min":102,"x_max":1576,"o":"m 271 392 q 318 195 271 269 q 449 122 365 122 q 579 193 529 122 q 629 392 629 264 q 581 588 629 515 q 449 661 533 661 q 319 586 366 661 q 271 392 271 511 m 102 -320 l 102 783 l 267 783 l 267 681 q 473 807 339 807 q 710 695 616 807 q 804 392 804 583 q 774 201 804 285 q 695 71 745 118 q 589 -1 646 23 q 473 -24 533 -24 q 347 10 397 -24 q 273 91 296 45 l 273 -320 l 102 -320 m 892 0 l 892 1073 l 1576 1073 l 1576 920 l 1072 920 l 1072 613 l 1523 613 l 1523 463 l 1072 463 l 1072 0 l 892 0 z "},"㎋":{"ha":1569,"x_min":94,"x_max":1550,"o":"m 867 0 l 867 1073 l 1550 1073 l 1550 920 l 1046 920 l 1046 613 l 1497 613 l 1497 463 l 1046 463 l 1046 0 l 867 0 m 94 0 l 94 783 l 260 783 l 260 684 l 262 684 q 337 767 282 727 q 479 807 392 807 q 665 735 595 807 q 734 503 734 663 l 734 0 l 562 0 l 562 480 q 439 661 562 661 q 315 601 365 661 q 266 453 266 541 l 266 0 l 94 0 z "},"㎌":{"ha":1727,"x_min":4,"x_max":1708,"o":"m 1024 0 l 1024 1073 l 1708 1073 l 1708 920 l 1203 920 l 1203 613 l 1655 613 l 1655 463 l 1203 463 l 1203 0 l 1024 0 m 4 -302 l 217 784 l 401 784 l 308 293 q 318 170 294 218 q 406 122 342 122 q 548 271 518 122 l 646 784 l 827 784 l 716 212 q 726 150 709 176 q 779 123 743 123 q 846 186 822 123 l 987 126 q 789 -23 913 -23 q 694 5 732 -23 q 650 60 656 34 l 648 64 q 441 -24 581 -24 q 264 45 321 -24 l 260 45 l 189 -302 l 4 -302 z "},"㎍":{"ha":1761,"x_min":4,"x_max":1670,"o":"m 1158 406 q 1205 220 1158 286 q 1329 153 1252 153 q 1451 218 1405 153 q 1497 407 1497 283 q 1451 594 1497 528 q 1331 661 1405 661 q 1205 591 1252 661 q 1158 406 1158 522 m 983 404 q 1074 697 983 587 q 1308 807 1165 807 q 1429 771 1379 807 q 1499 692 1478 735 l 1499 783 l 1670 783 l 1670 109 q 1584 -219 1670 -113 q 1318 -326 1497 -326 q 1013 -174 1122 -326 l 1127 -95 q 1321 -187 1206 -187 q 1444 -130 1396 -187 q 1497 19 1493 -73 q 1500 109 1500 73 q 1423 36 1474 65 q 1313 7 1371 7 q 1074 116 1165 7 q 983 404 983 225 m 4 -302 l 217 784 l 401 784 l 308 293 q 318 170 294 218 q 406 122 342 122 q 548 271 518 122 l 646 784 l 827 784 l 716 212 q 726 150 709 176 q 779 123 743 123 q 846 186 822 123 l 987 126 q 789 -23 913 -23 q 694 5 732 -23 q 650 60 656 34 l 648 64 q 441 -24 581 -24 q 264 45 321 -24 l 260 45 l 189 -302 l 4 -302 z "},"㎎":{"ha":2009,"x_min":94,"x_max":1918,"o":"m 1407 406 q 1453 220 1407 286 q 1577 153 1500 153 q 1699 218 1653 153 q 1746 407 1746 283 q 1699 594 1746 528 q 1579 661 1653 661 q 1453 591 1500 661 q 1407 406 1407 522 m 1232 404 q 1322 697 1232 587 q 1556 807 1413 807 q 1677 771 1628 807 q 1747 692 1727 735 l 1747 783 l 1918 783 l 1918 109 q 1832 -219 1918 -113 q 1567 -326 1746 -326 q 1261 -174 1370 -326 l 1375 -95 q 1569 -187 1454 -187 q 1693 -130 1644 -187 q 1746 19 1742 -73 q 1748 109 1748 73 q 1671 36 1723 65 q 1561 7 1619 7 q 1322 116 1413 7 q 1232 404 1232 225 m 94 0 l 94 783 l 260 783 l 260 692 q 334 769 281 731 q 461 807 387 807 q 651 667 590 807 q 676 705 661 686 q 720 750 692 724 q 791 791 747 776 q 887 807 836 807 q 1127 503 1127 807 l 1127 0 l 954 0 l 954 498 q 930 620 954 579 q 849 661 907 661 q 737 603 780 661 q 694 461 694 545 l 694 0 l 525 0 l 525 502 q 419 661 525 661 q 306 606 346 661 q 266 464 266 552 l 266 0 l 94 0 z "},"㎏":{"ha":1529,"x_min":103,"x_max":1438,"o":"m 926 406 q 973 220 926 286 q 1097 153 1020 153 q 1219 218 1173 153 q 1265 407 1265 283 q 1219 594 1265 528 q 1099 661 1173 661 q 973 591 1020 661 q 926 406 926 522 m 751 404 q 842 697 751 587 q 1076 807 933 807 q 1197 771 1147 807 q 1267 692 1246 735 l 1267 783 l 1438 783 l 1438 109 q 1352 -219 1438 -113 q 1086 -326 1265 -326 q 781 -174 890 -326 l 895 -95 q 1089 -187 974 -187 q 1213 -130 1164 -187 q 1265 19 1261 -73 q 1268 109 1268 73 q 1191 36 1242 65 q 1081 7 1139 7 q 842 116 933 7 q 751 404 751 225 m 103 0 l 103 1108 l 274 1108 l 274 471 l 552 783 l 768 783 l 479 464 l 785 0 l 585 0 l 368 343 l 274 240 l 274 0 l 103 0 z "},"㎐":{"ha":1683,"x_min":121,"x_max":1649,"o":"m 121 0 l 121 1073 l 298 1073 l 298 627 l 732 627 l 732 1073 l 910 1073 l 910 0 l 732 0 l 732 476 l 298 476 l 298 0 l 121 0 m 1005 0 l 1005 114 l 1409 636 l 1038 636 l 1038 783 l 1633 783 l 1633 675 l 1226 146 l 1649 146 l 1649 0 l 1005 0 z "},"㎑":{"ha":2382,"x_min":103,"x_max":2348,"o":"m 103 0 l 103 1108 l 274 1108 l 274 471 l 552 783 l 768 783 l 479 464 l 785 0 l 585 0 l 368 343 l 274 240 l 274 0 l 103 0 m 830 0 l 830 1073 l 1008 1073 l 1008 627 l 1442 627 l 1442 1073 l 1619 1073 l 1619 0 l 1442 0 l 1442 476 l 1008 476 l 1008 0 l 830 0 m 1704 0 l 1704 114 l 2108 636 l 1736 636 l 1736 783 l 2332 783 l 2332 675 l 1925 146 l 2348 146 l 2348 0 l 1704 0 z "},"㎒":{"ha":2808,"x_min":121,"x_max":2774,"o":"m 121 0 l 121 1073 l 339 1073 l 528 574 q 579 422 548 518 q 620 298 610 327 l 625 298 q 722 574 693 495 l 906 1073 l 1127 1073 l 1127 0 l 951 0 l 951 487 q 970 818 951 609 l 964 818 l 887 590 l 690 61 l 557 61 l 363 590 l 283 819 l 277 819 q 298 487 298 624 l 298 0 l 121 0 m 1256 0 l 1256 1073 l 1434 1073 l 1434 627 l 1868 627 l 1868 1073 l 2045 1073 l 2045 0 l 1868 0 l 1868 476 l 1434 476 l 1434 0 l 1256 0 m 2129 0 l 2129 114 l 2534 636 l 2162 636 l 2162 783 l 2757 783 l 2757 675 l 2351 146 l 2774 146 l 2774 0 l 2129 0 z "},"㎓":{"ha":2629,"x_min":57,"x_max":2595,"o":"m 57 537 q 189 940 57 783 q 541 1097 320 1097 q 694 1070 624 1097 q 810 1000 764 1043 q 884 919 856 958 q 929 841 911 880 l 776 791 q 724 863 747 834 q 651 918 700 891 q 543 944 602 944 q 321 833 401 944 q 241 537 241 722 q 323 239 241 349 q 534 129 404 129 q 711 194 647 129 q 783 359 774 259 q 787 448 787 420 l 524 448 l 524 600 l 960 600 l 960 0 l 837 0 l 821 110 q 529 -24 732 -24 q 191 128 326 -24 q 57 537 57 281 m 1077 0 l 1077 1073 l 1255 1073 l 1255 627 l 1689 627 l 1689 1073 l 1866 1073 l 1866 0 l 1689 0 l 1689 476 l 1255 476 l 1255 0 l 1077 0 m 1950 0 l 1950 114 l 2355 636 l 1983 636 l 1983 783 l 2578 783 l 2578 675 l 2171 146 l 2595 146 l 2595 0 l 1950 0 z "},"㎔":{"ha":2403,"x_min":15,"x_max":2370,"o":"m 15 920 l 15 1073 l 812 1073 l 812 920 l 503 920 l 503 0 l 324 0 l 324 920 l 15 920 m 852 0 l 852 1073 l 1029 1073 l 1029 627 l 1463 627 l 1463 1073 l 1641 1073 l 1641 0 l 1463 0 l 1463 476 l 1029 476 l 1029 0 l 852 0 m 1725 0 l 1725 114 l 2129 636 l 1758 636 l 1758 783 l 2353 783 l 2353 675 l 1946 146 l 2370 146 l 2370 0 l 1725 0 z "},"㎕":{"ha":1679,"x_min":7,"x_max":1611,"o":"m 7 -320 l 222 783 l 406 783 l 312 294 q 323 171 298 220 q 411 122 347 122 q 552 269 525 122 l 650 783 l 831 783 l 728 248 q 739 159 718 194 q 827 123 761 123 q 1006 206 906 123 q 982 419 982 304 q 1090 903 982 708 q 1377 1097 1199 1097 q 1556 1015 1501 1097 q 1611 800 1611 933 q 1503 465 1611 644 q 1217 165 1394 285 q 1297 129 1242 129 q 1451 236 1388 129 l 1599 167 q 1478 29 1554 83 q 1297 -24 1402 -24 q 1167 -4 1221 -24 q 1073 68 1114 16 q 826 -23 954 -23 q 715 3 758 -23 q 655 68 673 30 l 652 68 q 438 -24 579 -24 q 270 45 323 -24 l 264 45 l 191 -320 l 7 -320 m 1161 393 q 1166 319 1161 354 q 1367 566 1297 427 q 1436 808 1436 704 q 1423 911 1436 878 q 1370 945 1409 945 q 1223 785 1284 945 q 1161 393 1161 625 z "},"㎖":{"ha":2010,"x_min":18,"x_max":1942,"o":"m 18 654 q 114 760 50 715 q 259 806 178 806 q 357 779 313 806 q 418 701 400 751 q 505 779 452 753 q 609 806 557 806 q 705 775 667 806 q 751 700 743 745 q 970 806 840 806 q 1123 730 1082 806 q 1141 528 1164 655 l 1082 232 q 1154 123 1061 123 q 1337 205 1241 123 q 1313 419 1313 298 q 1421 903 1313 708 q 1708 1097 1530 1097 q 1887 1015 1832 1097 q 1942 800 1942 933 q 1830 459 1942 637 q 1548 164 1718 281 q 1628 129 1579 129 q 1782 236 1718 129 l 1930 167 q 1809 29 1885 83 q 1628 -24 1733 -24 q 1405 68 1474 -24 q 1126 -26 1260 -26 q 901 227 853 -26 l 956 511 q 963 623 972 587 q 907 659 954 659 q 829 618 869 659 q 777 521 788 576 l 674 0 l 494 0 l 589 483 q 598 614 608 570 q 540 659 589 659 q 463 613 503 659 q 411 515 422 567 l 311 0 l 130 0 l 240 567 q 210 659 256 659 q 126 593 160 659 l 18 654 m 1492 395 q 1497 319 1492 357 q 1693 556 1619 420 q 1767 818 1767 692 q 1752 914 1767 883 q 1701 945 1737 945 q 1554 786 1615 945 q 1492 395 1492 627 z "},"㎗":{"ha":1668,"x_min":49,"x_max":1600,"o":"m 49 286 q 73 473 49 382 q 146 641 98 564 q 274 764 194 718 q 456 811 354 811 q 621 734 560 811 l 627 734 l 699 1108 l 878 1108 l 708 239 q 723 153 697 184 q 810 122 749 122 q 908 149 854 122 q 997 206 962 176 q 972 419 972 304 q 1081 903 972 708 q 1367 1097 1190 1097 q 1546 1015 1492 1097 q 1600 800 1600 933 q 1493 465 1600 644 q 1207 165 1385 285 q 1286 129 1233 129 q 1442 236 1378 129 l 1590 167 q 1468 29 1545 83 q 1286 -24 1392 -24 q 1157 -4 1210 -24 q 1063 68 1104 16 q 929 -1 1004 22 q 795 -24 854 -24 q 552 87 613 -24 l 547 87 q 319 -24 457 -24 q 119 62 189 -24 q 49 286 49 148 m 1150 393 q 1156 320 1150 355 q 1356 566 1286 429 q 1426 808 1426 704 q 1359 945 1426 945 q 1212 785 1274 945 q 1150 393 1150 625 m 227 300 q 357 122 232 122 q 466 161 416 122 q 532 254 515 199 l 585 534 q 552 627 583 589 q 460 665 521 665 q 323 602 380 665 q 245 458 266 538 q 227 300 224 378 z "},"㎘":{"ha":1671,"x_min":87,"x_max":1603,"o":"m 87 0 l 308 1108 l 487 1108 l 366 515 l 368 515 l 667 783 l 886 783 l 521 448 l 656 232 q 791 122 722 122 q 997 205 884 122 q 974 419 974 307 q 1082 903 974 708 q 1369 1097 1191 1097 q 1548 1015 1493 1097 q 1603 800 1603 933 q 1493 463 1603 639 q 1210 165 1383 286 q 1289 129 1240 129 q 1444 236 1381 129 l 1592 167 q 1471 29 1548 83 q 1289 -24 1394 -24 q 1066 69 1139 -24 q 776 -24 925 -24 q 518 137 616 -24 l 392 340 l 321 278 l 267 0 l 87 0 m 1153 393 q 1157 320 1153 353 q 1352 553 1276 418 q 1428 808 1428 689 q 1414 911 1428 876 q 1362 945 1400 945 q 1215 785 1276 945 q 1153 393 1153 625 z "},"㎙":{"ha":1698,"x_min":33,"x_max":1615,"o":"m 33 636 l 33 783 l 152 783 l 152 867 q 212 1048 152 987 q 382 1108 273 1108 l 506 1108 l 506 963 l 407 963 q 345 937 365 963 q 326 854 326 911 l 326 783 l 488 783 l 488 636 l 326 636 l 326 0 l 152 0 l 152 636 l 33 636 m 582 0 l 582 783 l 749 783 l 749 692 q 822 769 769 731 q 949 807 875 807 q 1139 667 1078 807 q 1164 705 1149 686 q 1208 750 1180 724 q 1280 791 1236 776 q 1375 807 1324 807 q 1615 503 1615 807 l 1615 0 l 1442 0 l 1442 498 q 1419 620 1442 579 q 1337 661 1396 661 q 1225 603 1268 661 q 1183 461 1183 545 l 1183 0 l 1013 0 l 1013 502 q 907 661 1013 661 q 794 606 834 661 q 754 464 754 552 l 754 0 l 582 0 z "},"㎚":{"ha":1954,"x_min":94,"x_max":1872,"o":"m 838 0 l 838 783 l 1005 783 l 1005 692 q 1078 769 1025 731 q 1206 807 1131 807 q 1396 667 1335 807 q 1421 705 1405 686 q 1464 750 1436 724 q 1536 791 1492 776 q 1632 807 1580 807 q 1872 503 1872 807 l 1872 0 l 1698 0 l 1698 498 q 1675 620 1698 579 q 1594 661 1652 661 q 1482 603 1525 661 q 1439 461 1439 545 l 1439 0 l 1270 0 l 1270 502 q 1164 661 1270 661 q 1050 606 1090 661 q 1010 464 1010 552 l 1010 0 l 838 0 m 94 0 l 94 783 l 260 783 l 260 684 l 262 684 q 337 767 282 727 q 479 807 392 807 q 665 735 595 807 q 734 503 734 663 l 734 0 l 562 0 l 562 480 q 439 661 562 661 q 315 601 365 661 q 266 453 266 541 l 266 0 l 94 0 z "},"㎛":{"ha":2093,"x_min":4,"x_max":2010,"o":"m 977 0 l 977 783 l 1143 783 l 1143 692 q 1217 769 1164 731 q 1344 807 1270 807 q 1534 667 1473 807 q 1559 705 1544 686 q 1603 750 1575 724 q 1674 791 1630 776 q 1770 807 1718 807 q 2010 503 2010 807 l 2010 0 l 1836 0 l 1836 498 q 1813 620 1836 579 q 1732 661 1790 661 q 1620 603 1663 661 q 1577 461 1577 545 l 1577 0 l 1408 0 l 1408 502 q 1302 661 1408 661 q 1189 606 1229 661 q 1149 464 1149 552 l 1149 0 l 977 0 m 4 -302 l 217 784 l 401 784 l 308 293 q 318 170 294 218 q 406 122 342 122 q 548 271 518 122 l 646 784 l 827 784 l 716 212 q 726 150 709 176 q 779 123 743 123 q 846 186 822 123 l 987 126 q 789 -23 913 -23 q 694 5 732 -23 q 650 60 656 34 l 648 64 q 441 -24 581 -24 q 264 45 321 -24 l 260 45 l 189 -302 l 4 -302 z "},"㎜":{"ha":2371,"x_min":94,"x_max":2288,"o":"m 94 0 l 94 783 l 260 783 l 260 692 q 334 769 281 731 q 461 807 387 807 q 651 667 590 807 q 676 705 661 686 q 720 750 692 724 q 791 791 747 776 q 887 807 836 807 q 1127 503 1127 807 l 1127 0 l 954 0 l 954 498 q 930 620 954 579 q 849 661 907 661 q 737 603 780 661 q 694 461 694 545 l 694 0 l 525 0 l 525 502 q 419 661 525 661 q 306 606 346 661 q 266 464 266 552 l 266 0 l 94 0 m 1255 0 l 1255 783 l 1421 783 l 1421 692 q 1495 769 1442 731 q 1622 807 1548 807 q 1812 667 1751 807 q 1837 705 1822 686 q 1881 750 1853 724 q 1952 791 1908 776 q 2048 807 1997 807 q 2288 503 2288 807 l 2288 0 l 2115 0 l 2115 498 q 2091 620 2115 579 q 2010 661 2068 661 q 1898 603 1941 661 q 1855 461 1855 545 l 1855 0 l 1686 0 l 1686 502 q 1580 661 1686 661 q 1467 606 1507 661 q 1427 464 1427 552 l 1427 0 l 1255 0 z "},"㎝":{"ha":1898,"x_min":49,"x_max":1815,"o":"m 781 0 l 781 783 l 948 783 l 948 692 q 1021 769 968 731 q 1149 807 1074 807 q 1339 667 1278 807 q 1364 705 1348 686 q 1407 750 1379 724 q 1479 791 1435 776 q 1575 807 1523 807 q 1815 503 1815 807 l 1815 0 l 1641 0 l 1641 498 q 1618 620 1641 579 q 1537 661 1595 661 q 1425 603 1468 661 q 1382 461 1382 545 l 1382 0 l 1213 0 l 1213 502 q 1107 661 1213 661 q 994 606 1034 661 q 954 464 954 552 l 954 0 l 781 0 m 49 391 q 150 693 49 579 q 411 807 251 807 q 608 736 528 807 q 708 575 688 666 l 562 534 q 506 623 545 586 q 412 661 467 661 q 275 583 324 661 q 225 391 225 506 q 278 193 225 263 q 412 122 331 122 q 517 163 472 122 q 581 258 563 205 l 727 216 q 614 48 701 121 q 411 -24 528 -24 q 150 89 251 -24 q 49 391 49 202 z "},"㎞":{"ha":1950,"x_min":103,"x_max":1868,"o":"m 834 0 l 834 783 l 1001 783 l 1001 692 q 1074 769 1021 731 q 1202 807 1127 807 q 1392 667 1331 807 q 1417 705 1401 686 q 1460 750 1432 724 q 1532 791 1488 776 q 1628 807 1576 807 q 1868 503 1868 807 l 1868 0 l 1694 0 l 1694 498 q 1671 620 1694 579 q 1590 661 1648 661 q 1478 603 1520 661 q 1435 461 1435 545 l 1435 0 l 1265 0 l 1265 502 q 1160 661 1265 661 q 1046 606 1086 661 q 1006 464 1006 552 l 1006 0 l 834 0 m 103 0 l 103 1108 l 274 1108 l 274 471 l 552 783 l 768 783 l 479 464 l 785 0 l 585 0 l 368 343 l 274 240 l 274 0 l 103 0 z "},"㎟":{"ha":2747,"x_min":94,"x_max":2700,"o":"m 1255 0 l 1255 783 l 1421 783 l 1421 692 q 1495 769 1442 731 q 1622 807 1548 807 q 1812 667 1751 807 q 1837 705 1822 686 q 1881 750 1853 724 q 1952 791 1908 776 q 2048 807 1997 807 q 2288 503 2288 807 l 2288 0 l 2115 0 l 2115 498 q 2091 620 2115 579 q 2010 661 2068 661 q 1898 603 1941 661 q 1855 461 1855 545 l 1855 0 l 1686 0 l 1686 502 q 1580 661 1686 661 q 1467 606 1507 661 q 1427 464 1427 552 l 1427 0 l 1255 0 m 94 0 l 94 783 l 260 783 l 260 692 q 334 769 281 731 q 461 807 387 807 q 651 667 590 807 q 676 705 661 686 q 720 750 692 724 q 791 791 747 776 q 887 807 836 807 q 1127 503 1127 807 l 1127 0 l 954 0 l 954 498 q 930 620 954 579 q 849 661 907 661 q 737 603 780 661 q 694 461 694 545 l 694 0 l 525 0 l 525 502 q 419 661 525 661 q 306 606 346 661 q 266 464 266 552 l 266 0 l 94 0 m 2299 1137 q 2313 1183 2306 1165 q 2342 1239 2321 1202 q 2405 1297 2364 1276 q 2504 1318 2447 1318 q 2646 1267 2591 1318 q 2700 1133 2700 1217 q 2610 949 2700 1043 q 2560 901 2601 940 q 2496 835 2519 861 q 2456 779 2473 808 l 2699 779 l 2699 674 l 2306 674 q 2349 829 2306 764 q 2511 1008 2393 895 q 2576 1134 2576 1069 q 2556 1193 2576 1172 q 2502 1214 2536 1214 q 2403 1107 2431 1214 l 2299 1137 z "},"㎠":{"ha":2275,"x_min":49,"x_max":2228,"o":"m 781 0 l 781 783 l 948 783 l 948 692 q 1021 769 968 731 q 1149 807 1074 807 q 1339 667 1278 807 q 1364 705 1348 686 q 1407 750 1379 724 q 1479 791 1435 776 q 1575 807 1523 807 q 1815 503 1815 807 l 1815 0 l 1641 0 l 1641 498 q 1618 620 1641 579 q 1537 661 1595 661 q 1425 603 1468 661 q 1382 461 1382 545 l 1382 0 l 1213 0 l 1213 502 q 1107 661 1213 661 q 994 606 1034 661 q 954 464 954 552 l 954 0 l 781 0 m 49 391 q 150 693 49 579 q 411 807 251 807 q 608 736 528 807 q 708 575 688 666 l 562 534 q 506 623 545 586 q 412 661 467 661 q 275 583 324 661 q 225 391 225 506 q 278 193 225 263 q 412 122 331 122 q 517 163 472 122 q 581 258 563 205 l 727 216 q 614 48 701 121 q 411 -24 528 -24 q 150 89 251 -24 q 49 391 49 202 m 1827 1137 q 1841 1183 1834 1165 q 1870 1239 1849 1202 q 1933 1297 1892 1276 q 2032 1318 1975 1318 q 2174 1267 2119 1318 q 2228 1133 2228 1217 q 2138 949 2228 1043 q 2088 901 2129 940 q 2024 835 2047 861 q 1984 779 2001 808 l 2227 779 l 2227 674 l 1834 674 q 1877 829 1834 764 q 2039 1008 1921 895 q 2104 1134 2104 1069 q 2084 1193 2104 1172 q 2030 1214 2064 1214 q 1931 1107 1959 1214 l 1827 1137 z "},"㎡":{"ha":1587,"x_min":94,"x_max":1541,"o":"m 94 0 l 94 783 l 260 783 l 260 692 q 334 769 281 731 q 461 807 387 807 q 651 667 590 807 q 676 705 661 686 q 720 750 692 724 q 791 791 747 776 q 887 807 836 807 q 1127 503 1127 807 l 1127 0 l 954 0 l 954 498 q 930 620 954 579 q 849 661 907 661 q 737 603 780 661 q 694 461 694 545 l 694 0 l 525 0 l 525 502 q 419 661 525 661 q 306 606 346 661 q 266 464 266 552 l 266 0 l 94 0 m 1139 1137 q 1154 1183 1146 1165 q 1183 1239 1161 1202 q 1246 1297 1204 1276 q 1344 1318 1287 1318 q 1486 1267 1431 1318 q 1541 1133 1541 1217 q 1450 949 1541 1043 q 1400 901 1442 940 q 1336 835 1359 861 q 1297 779 1313 808 l 1539 779 l 1539 674 l 1146 674 q 1190 829 1146 764 q 1351 1008 1233 895 q 1416 1134 1416 1069 q 1396 1193 1416 1172 q 1343 1214 1377 1214 q 1244 1107 1271 1214 l 1139 1137 z "},"㎢":{"ha":2325,"x_min":103,"x_max":2280,"o":"m 833 0 l 833 783 l 1000 783 l 1000 692 q 1073 769 1020 731 q 1200 807 1126 807 q 1390 667 1329 807 q 1415 705 1400 686 q 1459 750 1431 724 q 1531 791 1487 776 q 1626 807 1575 807 q 1866 503 1866 807 l 1866 0 l 1693 0 l 1693 498 q 1670 620 1693 579 q 1588 661 1647 661 q 1476 603 1519 661 q 1434 461 1434 545 l 1434 0 l 1264 0 l 1264 502 q 1158 661 1264 661 q 1045 606 1085 661 q 1005 464 1005 552 l 1005 0 l 833 0 m 103 0 l 103 1108 l 274 1108 l 274 471 l 552 783 l 768 783 l 479 464 l 785 0 l 585 0 l 368 343 l 274 240 l 274 0 l 103 0 m 1879 1135 q 1893 1182 1885 1164 q 1922 1238 1900 1200 q 1985 1296 1944 1275 q 2083 1317 2026 1317 q 2225 1266 2170 1317 q 2280 1131 2280 1215 q 2189 948 2280 1042 q 2140 899 2181 939 q 2075 833 2098 860 q 2036 777 2052 807 l 2279 777 l 2279 673 l 1885 673 q 1929 828 1885 762 q 2090 1006 1972 894 q 2155 1133 2155 1067 q 2136 1192 2155 1171 q 2082 1213 2116 1213 q 1983 1105 2010 1213 l 1879 1135 z "},"㎣":{"ha":2733,"x_min":94,"x_max":2703,"o":"m 94 0 l 94 783 l 260 783 l 260 692 q 334 769 281 731 q 461 807 387 807 q 651 667 590 807 q 676 705 661 686 q 720 750 692 724 q 791 791 747 776 q 887 807 836 807 q 1127 503 1127 807 l 1127 0 l 954 0 l 954 498 q 930 620 954 579 q 849 661 907 661 q 737 603 780 661 q 694 461 694 545 l 694 0 l 525 0 l 525 502 q 419 661 525 661 q 306 606 346 661 q 266 464 266 552 l 266 0 l 94 0 m 1255 0 l 1255 783 l 1421 783 l 1421 692 q 1495 769 1442 731 q 1622 807 1548 807 q 1812 667 1751 807 q 1837 705 1822 686 q 1881 750 1853 724 q 1952 791 1908 776 q 2048 807 1997 807 q 2288 503 2288 807 l 2288 0 l 2115 0 l 2115 498 q 2091 620 2115 579 q 2010 661 2068 661 q 1898 603 1941 661 q 1855 461 1855 545 l 1855 0 l 1686 0 l 1686 502 q 1580 661 1686 661 q 1467 606 1507 661 q 1427 464 1427 552 l 1427 0 l 1255 0 m 2273 814 l 2371 850 q 2482 764 2409 764 q 2550 788 2523 764 q 2577 859 2577 812 q 2547 924 2577 899 q 2470 949 2517 949 q 2405 947 2426 949 l 2405 1051 q 2467 1048 2454 1048 q 2530 1071 2505 1048 q 2555 1134 2555 1093 q 2534 1192 2555 1169 q 2478 1214 2512 1214 q 2422 1190 2441 1214 q 2389 1124 2403 1166 l 2287 1156 q 2324 1240 2299 1206 q 2380 1291 2349 1275 q 2435 1312 2410 1306 q 2483 1317 2459 1317 q 2627 1268 2573 1317 q 2680 1145 2680 1219 q 2610 1006 2680 1055 q 2703 859 2703 959 q 2644 713 2703 766 q 2483 659 2584 659 q 2353 699 2410 659 q 2273 814 2295 739 z "},"㎤":{"ha":2261,"x_min":49,"x_max":2233,"o":"m 781 0 l 781 783 l 948 783 l 948 692 q 1021 769 968 731 q 1149 807 1074 807 q 1339 667 1278 807 q 1364 705 1348 686 q 1407 750 1379 724 q 1479 791 1435 776 q 1575 807 1523 807 q 1815 503 1815 807 l 1815 0 l 1641 0 l 1641 498 q 1618 620 1641 579 q 1537 661 1595 661 q 1425 603 1468 661 q 1382 461 1382 545 l 1382 0 l 1213 0 l 1213 502 q 1107 661 1213 661 q 994 606 1034 661 q 954 464 954 552 l 954 0 l 781 0 m 49 391 q 150 693 49 579 q 411 807 251 807 q 608 736 528 807 q 708 575 688 666 l 562 534 q 506 623 545 586 q 412 661 467 661 q 275 583 324 661 q 225 391 225 506 q 278 193 225 263 q 412 122 331 122 q 517 163 472 122 q 581 258 563 205 l 727 216 q 614 48 701 121 q 411 -24 528 -24 q 150 89 251 -24 q 49 391 49 202 m 1803 814 l 1900 850 q 2011 764 1938 764 q 2079 788 2052 764 q 2106 859 2106 812 q 2077 924 2106 899 q 1999 949 2047 949 q 1934 947 1956 949 l 1934 1051 q 1997 1048 1983 1048 q 2060 1071 2035 1048 q 2085 1134 2085 1093 q 2063 1192 2085 1169 q 2007 1214 2041 1214 q 1952 1190 1971 1214 q 1918 1124 1933 1166 l 1816 1156 q 1853 1240 1828 1206 q 1909 1291 1879 1275 q 1964 1312 1940 1306 q 2013 1317 1988 1317 q 2156 1268 2102 1317 q 2209 1145 2209 1219 q 2139 1006 2209 1055 q 2233 859 2233 959 q 2173 713 2233 766 q 2013 659 2113 659 q 1882 699 1940 659 q 1803 814 1824 739 z "},"㎥":{"ha":1577,"x_min":94,"x_max":1549,"o":"m 94 0 l 94 783 l 260 783 l 260 692 q 334 769 281 731 q 461 807 387 807 q 651 667 590 807 q 676 705 661 686 q 720 750 692 724 q 791 791 747 776 q 887 807 836 807 q 1127 503 1127 807 l 1127 0 l 954 0 l 954 498 q 930 620 954 579 q 849 661 907 661 q 737 603 780 661 q 694 461 694 545 l 694 0 l 525 0 l 525 502 q 419 661 525 661 q 306 606 346 661 q 266 464 266 552 l 266 0 l 94 0 m 1119 814 l 1217 850 q 1328 764 1255 764 q 1396 788 1369 764 q 1423 859 1423 812 q 1393 924 1423 899 q 1316 949 1363 949 q 1251 947 1272 949 l 1251 1051 q 1313 1048 1299 1048 q 1376 1071 1351 1048 q 1401 1134 1401 1093 q 1379 1192 1401 1169 q 1324 1214 1358 1214 q 1268 1190 1287 1214 q 1234 1124 1249 1166 l 1133 1156 q 1170 1240 1145 1206 q 1225 1291 1195 1275 q 1280 1312 1256 1306 q 1329 1317 1305 1317 q 1472 1268 1419 1317 q 1526 1145 1526 1219 q 1455 1006 1526 1055 q 1549 859 1549 959 q 1489 713 1549 766 q 1329 659 1430 659 q 1198 699 1256 659 q 1119 814 1141 739 z "},"㎦":{"ha":2302,"x_min":103,"x_max":2272,"o":"m 834 0 l 834 783 l 1001 783 l 1001 692 q 1074 769 1021 731 q 1202 807 1127 807 q 1392 667 1331 807 q 1417 705 1401 686 q 1460 750 1432 724 q 1532 791 1488 776 q 1628 807 1576 807 q 1868 503 1868 807 l 1868 0 l 1694 0 l 1694 498 q 1671 620 1694 579 q 1590 661 1648 661 q 1478 603 1520 661 q 1435 461 1435 545 l 1435 0 l 1265 0 l 1265 502 q 1160 661 1265 661 q 1046 606 1086 661 q 1006 464 1006 552 l 1006 0 l 834 0 m 103 0 l 103 1108 l 274 1108 l 274 471 l 552 783 l 768 783 l 479 464 l 785 0 l 585 0 l 368 343 l 274 240 l 274 0 l 103 0 m 1842 814 l 1940 850 q 2051 764 1978 764 q 2119 788 2091 764 q 2146 859 2146 812 q 2116 924 2146 899 q 2039 949 2086 949 q 1973 947 1995 949 l 1973 1051 q 2036 1048 2022 1048 q 2099 1071 2074 1048 q 2124 1134 2124 1093 q 2102 1192 2124 1169 q 2047 1214 2081 1214 q 1991 1190 2010 1214 q 1957 1124 1972 1166 l 1855 1156 q 1893 1240 1868 1206 q 1948 1291 1918 1275 q 2003 1312 1979 1306 q 2052 1317 2028 1317 q 2195 1268 2142 1317 q 2249 1145 2249 1219 q 2178 1006 2249 1055 q 2272 859 2272 959 q 2212 713 2272 766 q 2052 659 2153 659 q 1921 699 1979 659 q 1842 814 1864 739 z "},"㎧":{"ha":2186,"x_min":92,"x_max":2146,"o":"m 1497 73 l 1619 145 q 1831 24 1702 24 q 1933 50 1895 24 q 1971 118 1971 76 q 1924 191 1971 165 q 1780 248 1877 217 q 1756 255 1765 252 q 1592 340 1653 289 q 1530 490 1530 392 q 1617 654 1530 593 q 1832 716 1704 716 q 2013 665 1929 716 q 2140 537 2098 614 l 2028 468 q 1834 578 1948 578 q 1737 553 1771 578 q 1704 487 1704 528 q 1735 426 1704 453 q 1791 389 1766 399 q 1881 358 1816 380 q 1904 350 1896 353 q 2146 117 2146 273 q 2064 -47 2146 20 q 1835 -114 1983 -114 q 1633 -64 1721 -114 q 1497 73 1545 -14 m 92 255 l 92 1038 l 258 1038 l 258 947 l 259 947 q 332 1024 279 986 q 458 1062 384 1062 q 648 924 587 1062 q 673 962 658 943 q 717 1006 689 981 q 789 1046 745 1031 q 884 1062 833 1062 q 1124 758 1124 1062 l 1124 255 l 952 255 l 952 753 q 928 875 952 834 q 846 916 905 916 q 735 859 777 916 q 693 718 693 802 l 693 255 l 524 255 l 524 757 q 418 916 524 916 q 304 862 345 916 q 264 720 264 808 l 264 255 l 92 255 m 998 -125 l 1538 1142 l 1708 1142 l 1168 -125 l 998 -125 z "},"㎨":{"ha":2562,"x_min":92,"x_max":2516,"o":"m 2115 1066 q 2124 1101 2120 1088 q 2144 1145 2128 1114 q 2179 1195 2159 1176 q 2236 1230 2199 1214 q 2319 1246 2273 1246 q 2461 1196 2406 1246 q 2516 1062 2516 1146 q 2425 879 2516 972 q 2385 840 2413 867 q 2342 796 2357 812 q 2306 755 2326 780 q 2273 708 2285 731 l 2515 708 l 2515 604 l 2123 604 q 2165 760 2123 693 q 2326 937 2208 826 q 2391 1063 2391 998 q 2372 1122 2391 1101 q 2318 1143 2352 1143 q 2263 1122 2285 1143 q 2234 1083 2241 1101 q 2220 1036 2227 1065 l 2115 1066 m 1497 73 l 1619 145 q 1831 24 1702 24 q 1933 50 1895 24 q 1971 118 1971 76 q 1924 191 1971 165 q 1780 248 1877 217 q 1756 255 1765 252 q 1592 340 1653 289 q 1530 490 1530 392 q 1617 654 1530 593 q 1832 716 1704 716 q 2013 665 1929 716 q 2140 537 2098 614 l 2028 468 q 1834 578 1948 578 q 1737 553 1771 578 q 1704 487 1704 528 q 1735 426 1704 453 q 1791 389 1766 399 q 1881 358 1816 380 q 1904 350 1896 353 q 2146 117 2146 273 q 2064 -47 2146 20 q 1835 -114 1983 -114 q 1633 -64 1721 -114 q 1497 73 1545 -14 m 92 255 l 92 1038 l 258 1038 l 258 947 l 259 947 q 332 1024 279 986 q 458 1062 384 1062 q 648 924 587 1062 q 673 962 658 943 q 717 1006 689 981 q 789 1046 745 1031 q 884 1062 833 1062 q 1124 758 1124 1062 l 1124 255 l 952 255 l 952 753 q 928 875 952 834 q 846 916 905 916 q 735 859 777 916 q 693 718 693 802 l 693 255 l 524 255 l 524 757 q 418 916 524 916 q 304 862 345 916 q 264 720 264 808 l 264 255 l 92 255 m 996 -125 l 1538 1142 l 1708 1142 l 1165 -125 l 996 -125 z "},"㎩":{"ha":1656,"x_min":121,"x_max":1573,"o":"m 121 0 l 121 1073 l 540 1073 q 802 983 708 1073 q 897 745 897 892 q 800 505 897 593 q 543 416 703 416 l 300 416 l 300 0 l 121 0 m 300 568 l 518 568 q 662 613 610 568 q 713 745 713 658 q 663 875 713 830 q 517 920 613 920 l 300 920 l 300 568 m 1078 220 q 1113 147 1078 176 q 1204 118 1147 118 q 1343 172 1286 118 q 1401 315 1401 227 l 1401 387 q 1251 358 1339 372 q 1078 220 1078 331 m 905 205 q 1233 475 905 426 q 1401 507 1352 492 l 1401 549 q 1360 639 1401 606 q 1252 671 1320 671 q 1029 566 1123 671 l 925 655 q 1071 767 986 727 q 1249 807 1156 807 q 1499 722 1424 807 q 1573 486 1573 637 l 1573 0 l 1407 0 l 1407 98 q 1322 12 1382 47 q 1180 -24 1261 -24 q 978 39 1051 -24 q 905 205 905 103 z "},"㎪":{"ha":2340,"x_min":103,"x_max":2257,"o":"m 821 1 l 821 1074 l 1240 1074 q 1502 984 1408 1074 q 1596 746 1596 894 q 1499 506 1596 594 q 1242 418 1402 418 l 1000 418 l 1000 1 l 821 1 m 1000 570 l 1218 570 q 1362 614 1310 570 q 1413 746 1413 659 q 1363 876 1413 831 q 1217 921 1313 921 l 1000 921 l 1000 570 m 1762 220 q 1796 147 1762 176 q 1888 118 1831 118 q 2027 172 1969 118 q 2085 315 2085 227 l 2085 387 q 1934 358 2022 372 q 1762 220 1762 331 m 1588 205 q 1917 475 1588 426 q 2085 507 2036 492 l 2085 549 q 2044 639 2085 606 q 1935 671 2003 671 q 1713 566 1807 671 l 1609 655 q 1754 767 1670 727 q 1933 807 1839 807 q 2182 722 2108 807 q 2257 486 2257 637 l 2257 0 l 2090 0 l 2090 98 q 2005 12 2066 47 q 1864 -24 1945 -24 q 1662 39 1735 -24 q 1588 205 1588 103 m 103 0 l 103 1108 l 274 1108 l 274 471 l 552 783 l 768 783 l 479 464 l 785 0 l 585 0 l 368 343 l 274 240 l 274 0 l 103 0 z "},"㎫":{"ha":2779,"x_min":121,"x_max":2696,"o":"m 1261 0 l 1261 1073 l 1681 1073 q 1943 983 1849 1073 q 2037 745 2037 892 q 1940 505 2037 593 q 1683 416 1843 416 l 1440 416 l 1440 0 l 1261 0 m 1440 568 l 1659 568 q 1803 613 1751 568 q 1854 745 1854 658 q 1804 875 1854 830 q 1657 920 1754 920 l 1440 920 l 1440 568 m 2201 220 q 2236 147 2201 176 q 2327 118 2271 118 q 2466 172 2409 118 q 2524 315 2524 227 l 2524 387 q 2374 358 2462 372 q 2201 220 2201 331 m 2028 205 q 2356 475 2028 426 q 2524 507 2475 492 l 2524 549 q 2483 639 2524 606 q 2375 671 2443 671 q 2153 566 2246 671 l 2048 655 q 2194 767 2109 727 q 2372 807 2279 807 q 2622 722 2547 807 q 2696 486 2696 637 l 2696 0 l 2530 0 l 2530 98 q 2445 12 2505 47 q 2303 -24 2384 -24 q 2101 39 2174 -24 q 2028 205 2028 103 m 121 0 l 121 1073 l 339 1073 l 528 574 q 579 422 548 518 q 620 298 610 327 l 625 298 q 722 574 693 495 l 906 1073 l 1127 1073 l 1127 0 l 951 0 l 951 487 q 970 818 951 609 l 964 818 l 887 590 l 690 61 l 557 61 l 363 590 l 283 819 l 277 819 q 298 487 298 624 l 298 0 l 121 0 z "},"㎬":{"ha":2601,"x_min":57,"x_max":2519,"o":"m 1084 0 l 1084 1073 l 1503 1073 q 1765 983 1671 1073 q 1860 745 1860 892 q 1763 505 1860 593 q 1506 416 1666 416 l 1263 416 l 1263 0 l 1084 0 m 1263 568 l 1481 568 q 1625 613 1573 568 q 1676 745 1676 658 q 1626 875 1676 830 q 1480 920 1576 920 l 1263 920 l 1263 568 m 2024 220 q 2058 147 2024 176 q 2150 118 2093 118 q 2289 172 2231 118 q 2346 315 2346 227 l 2346 387 q 2196 358 2284 372 q 2024 220 2024 331 m 1850 205 q 2178 475 1850 426 q 2346 507 2298 492 l 2346 549 q 2306 639 2346 606 q 2197 671 2265 671 q 1975 566 2068 671 l 1870 655 q 2016 767 1931 727 q 2195 807 2101 807 q 2444 722 2370 807 q 2519 486 2519 637 l 2519 0 l 2352 0 l 2352 98 q 2267 12 2327 47 q 2125 -24 2207 -24 q 1923 39 1997 -24 q 1850 205 1850 103 m 57 537 q 189 940 57 783 q 541 1097 320 1097 q 694 1070 624 1097 q 810 1000 764 1043 q 884 919 856 958 q 929 841 911 880 l 776 791 q 724 863 747 834 q 651 918 700 891 q 543 944 602 944 q 321 833 401 944 q 241 537 241 722 q 323 239 241 349 q 534 129 404 129 q 711 194 647 129 q 783 359 774 259 q 787 448 787 420 l 524 448 l 524 600 l 960 600 l 960 0 l 837 0 l 821 110 q 529 -24 732 -24 q 191 128 326 -24 q 57 537 57 281 z "},"㎭":{"ha":2098,"x_min":94,"x_max":1997,"o":"m 94 0 l 94 783 l 259 783 l 259 699 q 333 774 285 742 q 448 807 381 807 q 549 789 510 807 l 549 633 q 448 650 498 650 q 313 581 359 650 q 266 399 266 513 l 266 0 l 94 0 m 1294 391 q 1388 694 1294 583 q 1628 806 1482 806 q 1748 772 1697 806 q 1826 694 1799 739 l 1826 1105 l 1997 1105 l 1997 0 l 1831 0 l 1831 100 q 1750 13 1807 49 q 1626 -23 1694 -23 q 1508 -1 1565 -23 q 1402 68 1451 20 q 1323 199 1352 115 q 1294 391 1294 282 m 1470 391 q 1520 192 1470 263 q 1651 121 1569 121 q 1779 193 1729 121 q 1828 391 1828 266 q 1780 585 1828 511 q 1651 659 1732 659 q 1518 586 1565 659 q 1470 391 1470 513 m 723 220 q 758 147 723 176 q 849 118 792 118 q 988 172 930 118 q 1046 315 1046 227 l 1046 387 q 895 358 983 372 q 723 220 723 331 m 549 205 q 878 475 549 426 q 1046 507 997 492 l 1046 549 q 1005 639 1046 606 q 897 671 964 671 q 674 566 768 671 l 570 655 q 715 767 631 727 q 894 807 800 807 q 1143 722 1069 807 q 1218 486 1218 637 l 1218 0 l 1051 0 l 1051 98 q 966 12 1027 47 q 825 -24 906 -24 q 623 39 696 -24 q 549 205 549 103 z "},"㎮":{"ha":3056,"x_min":94,"x_max":3015,"o":"m 94 252 l 94 1034 l 259 1034 l 259 949 q 333 1025 285 993 q 448 1058 381 1058 q 549 1042 513 1058 l 549 884 q 448 901 498 901 q 313 833 359 901 q 266 651 266 765 l 266 252 l 94 252 m 1294 643 q 1388 947 1294 836 q 1628 1058 1482 1058 q 1747 1025 1695 1058 q 1826 947 1799 991 l 1826 1359 l 1998 1359 l 1998 252 l 1831 252 l 1831 353 q 1750 264 1805 301 q 1628 228 1695 228 q 1510 251 1567 228 q 1403 321 1453 274 q 1324 451 1354 368 q 1294 643 1294 534 m 1470 643 q 1520 444 1470 515 q 1651 373 1569 373 q 1779 446 1729 373 q 1828 643 1828 518 q 1780 838 1828 764 q 1651 911 1732 911 q 1518 838 1565 911 q 1470 643 1470 765 m 723 472 q 758 399 723 429 q 849 370 792 370 q 989 424 932 370 q 1046 566 1046 477 l 1046 639 q 895 610 983 624 q 723 472 723 583 m 549 457 q 876 727 549 680 q 1046 760 998 745 l 1046 802 q 1004 891 1046 859 q 895 924 963 924 q 674 818 768 924 l 570 907 q 714 1019 629 979 q 894 1058 799 1058 q 1143 974 1069 1058 q 1218 738 1218 890 l 1218 252 l 1051 252 l 1051 350 q 966 264 1027 300 q 825 228 906 228 q 623 292 696 228 q 549 457 549 355 m 2367 73 l 2489 145 q 2700 24 2572 24 q 2802 50 2764 24 q 2840 118 2840 76 q 2793 191 2840 165 q 2649 248 2747 217 q 2626 255 2634 252 q 2544 287 2577 271 q 2474 329 2511 302 q 2418 395 2437 355 q 2399 488 2399 435 q 2486 654 2399 591 q 2702 716 2573 716 q 2883 665 2798 716 q 3010 536 2968 614 l 2897 467 q 2703 576 2817 576 q 2607 551 2641 576 q 2573 486 2573 526 q 2604 425 2573 452 q 2660 388 2635 397 q 2751 357 2686 378 q 2774 349 2766 351 q 3015 117 3015 271 q 2934 -47 3015 20 q 2705 -115 2852 -115 q 2503 -64 2592 -115 q 2367 73 2414 -14 m 1843 -125 l 2462 1141 l 2630 1141 l 2011 -125 l 1843 -125 z "},"㎯":{"ha":3432,"x_min":94,"x_max":3385,"o":"m 94 252 l 94 1034 l 259 1034 l 259 949 q 333 1025 285 993 q 448 1058 381 1058 q 549 1042 513 1058 l 549 884 q 448 901 498 901 q 313 833 359 901 q 266 651 266 765 l 266 252 l 94 252 m 1294 643 q 1388 947 1294 836 q 1628 1058 1482 1058 q 1747 1025 1695 1058 q 1826 947 1799 991 l 1826 1359 l 1998 1359 l 1998 252 l 1831 252 l 1831 353 q 1750 264 1805 301 q 1628 228 1695 228 q 1510 251 1567 228 q 1403 321 1453 274 q 1324 451 1354 368 q 1294 643 1294 534 m 1470 643 q 1520 444 1470 515 q 1651 373 1569 373 q 1779 446 1729 373 q 1828 643 1828 518 q 1780 838 1828 764 q 1651 911 1732 911 q 1518 838 1565 911 q 1470 643 1470 765 m 723 472 q 758 399 723 429 q 849 370 792 370 q 989 424 932 370 q 1046 566 1046 477 l 1046 639 q 895 610 983 624 q 723 472 723 583 m 549 457 q 876 727 549 680 q 1046 760 998 745 l 1046 802 q 1004 891 1046 859 q 895 924 963 924 q 674 818 768 924 l 570 907 q 714 1019 629 979 q 894 1058 799 1058 q 1143 974 1069 1058 q 1218 738 1218 890 l 1218 252 l 1051 252 l 1051 350 q 966 264 1027 300 q 825 228 906 228 q 623 292 696 228 q 549 457 549 355 m 2367 73 l 2489 145 q 2700 24 2572 24 q 2802 50 2764 24 q 2840 118 2840 76 q 2793 191 2840 165 q 2649 248 2747 217 q 2626 255 2634 252 q 2544 287 2577 271 q 2474 329 2511 302 q 2418 395 2437 355 q 2399 488 2399 435 q 2486 654 2399 591 q 2702 716 2573 716 q 2883 665 2798 716 q 3010 536 2968 614 l 2897 467 q 2703 576 2817 576 q 2607 551 2641 576 q 2573 486 2573 526 q 2604 425 2573 452 q 2660 388 2635 397 q 2751 357 2686 378 q 2774 349 2766 351 q 3015 117 3015 271 q 2934 -47 3015 20 q 2705 -115 2852 -115 q 2503 -64 2592 -115 q 2367 73 2414 -14 m 2984 1066 q 2993 1101 2989 1088 q 3013 1145 2998 1114 q 3048 1195 3029 1176 q 3105 1230 3068 1214 q 3189 1246 3143 1246 q 3330 1196 3276 1246 q 3385 1061 3385 1145 q 3295 878 3385 971 q 3255 838 3282 865 q 3211 795 3227 811 q 3175 754 3196 779 q 3143 707 3155 730 l 3384 707 l 3384 604 l 2992 604 q 3035 760 2992 693 q 3196 937 3078 826 q 3261 1063 3261 998 q 3241 1122 3261 1101 q 3187 1143 3221 1143 q 3132 1122 3155 1143 q 3103 1082 3110 1100 q 3090 1035 3097 1063 l 2984 1066 m 1843 -125 l 2460 1141 l 2629 1141 l 2011 -125 l 1843 -125 z "},"㎰":{"ha":1534,"x_min":102,"x_max":1492,"o":"m 271 392 q 318 195 271 269 q 449 122 365 122 q 579 193 529 122 q 629 392 629 264 q 581 588 629 515 q 449 661 533 661 q 319 586 366 661 q 271 392 271 511 m 102 -320 l 102 783 l 267 783 l 267 681 q 473 807 339 807 q 710 695 616 807 q 804 392 804 583 q 774 201 804 285 q 695 71 745 118 q 589 -1 646 23 q 473 -24 533 -24 q 347 10 397 -24 q 273 91 296 45 l 273 -320 l 102 -320 m 844 160 l 967 232 q 1179 113 1048 113 q 1280 138 1242 113 q 1317 205 1317 163 q 1286 264 1317 239 q 1222 303 1256 290 q 1120 338 1188 316 q 1103 343 1108 342 q 1021 375 1054 359 q 951 417 987 391 q 895 484 914 444 q 876 576 876 524 q 963 742 876 680 q 1179 804 1050 804 q 1360 753 1275 804 q 1488 624 1446 703 l 1374 555 q 1180 665 1294 665 q 1084 640 1118 665 q 1051 574 1051 614 q 1080 513 1051 540 q 1141 475 1109 487 q 1229 444 1172 463 q 1251 437 1244 439 q 1492 203 1492 359 q 1411 40 1492 107 q 1183 -27 1331 -27 q 980 23 1069 -27 q 844 160 891 73 z "},"㎱":{"ha":1508,"x_min":94,"x_max":1468,"o":"m 819 165 l 943 237 q 1154 118 1024 118 q 1255 143 1218 118 q 1293 210 1293 168 q 1262 270 1293 244 q 1198 309 1232 296 q 1096 343 1164 321 q 1078 349 1084 347 q 996 380 1029 365 q 926 422 963 396 q 871 489 890 449 q 852 582 852 529 q 939 747 852 685 q 1154 810 1025 810 q 1336 759 1251 810 q 1463 629 1421 708 l 1350 560 q 1156 670 1270 670 q 1060 645 1093 670 q 1027 579 1027 620 q 1056 519 1027 545 q 1116 480 1085 492 q 1204 449 1147 468 q 1226 442 1219 445 q 1468 209 1468 365 q 1387 45 1468 113 q 1158 -22 1306 -22 q 956 28 1044 -22 q 819 165 867 79 m 94 0 l 94 783 l 260 783 l 260 684 l 262 684 q 337 767 282 727 q 479 807 392 807 q 665 735 595 807 q 734 503 734 663 l 734 0 l 562 0 l 562 480 q 439 661 562 661 q 315 601 365 661 q 266 453 266 541 l 266 0 l 94 0 z "},"㎲":{"ha":1653,"x_min":4,"x_max":1613,"o":"m 4 -302 l 217 784 l 401 784 l 308 293 q 318 170 294 218 q 406 122 342 122 q 548 271 518 122 l 646 784 l 827 784 l 716 212 q 726 150 709 176 q 779 123 743 123 q 846 186 822 123 l 987 126 q 789 -23 913 -23 q 694 5 732 -23 q 650 60 656 34 l 648 64 q 441 -24 581 -24 q 264 45 321 -24 l 260 45 l 189 -302 l 4 -302 m 964 163 l 1088 235 q 1299 115 1169 115 q 1400 140 1363 115 q 1438 208 1438 165 q 1407 267 1438 241 q 1343 306 1377 293 q 1241 340 1309 319 q 1223 346 1229 345 q 1141 378 1175 362 q 1072 420 1108 393 q 1016 486 1035 446 q 997 579 997 526 q 1084 745 997 682 q 1299 807 1171 807 q 1481 756 1396 807 q 1609 627 1567 705 l 1495 557 q 1301 667 1415 667 q 1205 642 1238 667 q 1172 576 1172 617 q 1201 516 1172 543 q 1261 477 1230 490 q 1350 446 1293 465 q 1371 439 1364 442 q 1613 206 1613 362 q 1532 43 1613 110 q 1303 -24 1451 -24 q 1101 26 1190 -24 q 964 163 1012 76 z "},"㎳":{"ha":1902,"x_min":94,"x_max":1860,"o":"m 1211 163 l 1335 235 q 1546 115 1416 115 q 1647 140 1610 115 q 1685 208 1685 165 q 1654 267 1685 241 q 1590 306 1624 293 q 1488 340 1556 319 q 1470 346 1476 345 q 1388 378 1421 362 q 1318 420 1355 393 q 1263 486 1282 446 q 1244 579 1244 526 q 1331 745 1244 682 q 1546 807 1417 807 q 1728 756 1643 807 q 1855 627 1813 705 l 1742 557 q 1548 667 1662 667 q 1452 642 1485 667 q 1419 576 1419 617 q 1448 516 1419 543 q 1508 477 1477 490 q 1596 446 1539 465 q 1618 439 1611 442 q 1860 206 1860 362 q 1779 43 1860 110 q 1550 -24 1698 -24 q 1348 26 1436 -24 q 1211 163 1259 76 m 94 0 l 94 783 l 260 783 l 260 692 q 334 769 281 731 q 461 807 387 807 q 651 667 590 807 q 676 705 661 686 q 720 750 692 724 q 791 791 747 776 q 887 807 836 807 q 1127 503 1127 807 l 1127 0 l 954 0 l 954 498 q 930 620 954 579 q 849 661 907 661 q 737 603 780 661 q 694 461 694 545 l 694 0 l 525 0 l 525 502 q 419 661 525 661 q 306 606 346 661 q 266 464 266 552 l 266 0 l 94 0 z "},"㎴":{"ha":1629,"x_min":102,"x_max":1629,"o":"m 271 392 q 318 195 271 269 q 449 122 365 122 q 579 193 529 122 q 629 392 629 264 q 581 588 629 515 q 449 661 533 661 q 319 586 366 661 q 271 392 271 511 m 102 -320 l 102 783 l 267 783 l 267 681 q 473 807 339 807 q 710 695 616 807 q 804 392 804 583 q 774 201 804 285 q 695 71 745 118 q 589 -1 646 23 q 473 -24 533 -24 q 347 10 397 -24 q 273 91 296 45 l 273 -320 l 102 -320 m 736 1073 l 930 1073 l 1111 453 q 1180 187 1173 212 l 1185 186 q 1255 453 1218 311 l 1435 1073 l 1629 1073 l 1283 0 l 1082 0 l 736 1073 z "},"㎵":{"ha":1603,"x_min":94,"x_max":1602,"o":"m 709 1073 l 903 1073 l 1084 453 q 1153 187 1146 212 l 1158 186 q 1227 453 1191 311 l 1408 1073 l 1602 1073 l 1256 0 l 1055 0 l 709 1073 m 94 0 l 94 783 l 260 783 l 260 684 l 262 684 q 337 767 282 727 q 479 807 392 807 q 665 735 595 807 q 734 503 734 663 l 734 0 l 562 0 l 562 480 q 439 661 562 661 q 315 601 365 661 q 266 453 266 541 l 266 0 l 94 0 z "},"㎶":{"ha":1721,"x_min":4,"x_max":1721,"o":"m 4 -302 l 217 784 l 401 784 l 308 293 q 318 170 294 218 q 406 122 342 122 q 548 271 518 122 l 646 784 l 827 784 l 716 212 q 726 150 709 176 q 779 123 743 123 q 846 186 822 123 l 987 126 q 789 -23 913 -23 q 694 5 732 -23 q 650 60 656 34 l 648 64 q 441 -24 581 -24 q 264 45 321 -24 l 260 45 l 189 -302 l 4 -302 m 829 1073 l 1023 1073 l 1203 453 q 1272 187 1265 212 l 1278 186 q 1347 453 1310 311 l 1527 1073 l 1721 1073 l 1375 0 l 1175 0 l 829 1073 z "},"㎷":{"ha":1963,"x_min":94,"x_max":1963,"o":"m 1070 1073 l 1264 1073 l 1444 453 q 1514 187 1507 212 l 1519 186 q 1588 453 1552 311 l 1769 1073 l 1963 1073 l 1617 0 l 1416 0 l 1070 1073 m 94 0 l 94 783 l 260 783 l 260 692 q 334 769 281 731 q 461 807 387 807 q 651 667 590 807 q 676 705 661 686 q 720 750 692 724 q 791 791 747 776 q 887 807 836 807 q 1127 503 1127 807 l 1127 0 l 954 0 l 954 498 q 930 620 954 579 q 849 661 907 661 q 737 603 780 661 q 694 461 694 545 l 694 0 l 525 0 l 525 502 q 419 661 525 661 q 306 606 346 661 q 266 464 266 552 l 266 0 l 94 0 z "},"㎸":{"ha":1611,"x_min":103,"x_max":1611,"o":"m 103 0 l 103 1108 l 274 1108 l 274 471 l 552 783 l 768 783 l 479 464 l 785 0 l 585 0 l 368 343 l 274 240 l 274 0 l 103 0 m 719 1073 l 913 1073 l 1093 453 q 1162 187 1156 212 l 1168 186 q 1237 453 1200 311 l 1417 1073 l 1611 1073 l 1265 0 l 1065 0 l 719 1073 z "},"㎹":{"ha":2072,"x_min":121,"x_max":2072,"o":"m 1180 1073 l 1374 1073 l 1554 453 q 1624 187 1617 212 l 1629 186 q 1698 453 1662 311 l 1879 1073 l 2072 1073 l 1727 0 l 1526 0 l 1180 1073 m 121 0 l 121 1073 l 339 1073 l 528 574 q 579 422 548 518 q 620 298 610 327 l 625 298 q 722 574 693 495 l 906 1073 l 1127 1073 l 1127 0 l 951 0 l 951 487 q 970 818 951 609 l 964 818 l 887 590 l 690 61 l 557 61 l 363 590 l 283 819 l 277 819 q 298 487 298 624 l 298 0 l 121 0 z "},"㎺":{"ha":2010,"x_min":102,"x_max":1994,"o":"m 271 392 q 318 195 271 269 q 449 122 365 122 q 579 193 529 122 q 629 392 629 264 q 581 588 629 515 q 449 661 533 661 q 319 586 366 661 q 271 392 271 511 m 102 -320 l 102 783 l 267 783 l 267 681 q 473 807 339 807 q 710 695 616 807 q 804 392 804 583 q 774 201 804 285 q 695 71 745 118 q 589 -1 646 23 q 473 -24 533 -24 q 347 10 397 -24 q 273 91 296 45 l 273 -320 l 102 -320 m 751 1073 l 940 1073 l 1050 481 q 1096 194 1076 330 l 1103 194 q 1156 481 1143 419 l 1282 1073 l 1462 1073 l 1590 481 q 1619 328 1599 437 q 1643 194 1638 218 l 1649 194 q 1673 338 1656 236 q 1697 481 1690 439 l 1805 1073 l 1994 1073 l 1752 0 l 1548 0 l 1426 583 q 1375 856 1378 837 l 1370 856 q 1320 583 1370 852 l 1198 0 l 994 0 l 751 1073 z "},"㎻":{"ha":1984,"x_min":94,"x_max":1968,"o":"m 726 1073 l 914 1073 l 1024 481 q 1070 194 1050 330 l 1077 194 q 1130 481 1118 419 l 1256 1073 l 1436 1073 l 1564 481 q 1593 328 1573 437 q 1617 194 1613 218 l 1624 194 q 1647 338 1630 236 q 1671 481 1664 439 l 1780 1073 l 1968 1073 l 1727 0 l 1522 0 l 1400 583 q 1350 856 1352 837 l 1344 856 q 1294 583 1344 852 l 1172 0 l 968 0 l 726 1073 m 94 0 l 94 783 l 260 783 l 260 684 l 262 684 q 337 767 282 727 q 479 807 392 807 q 665 735 595 807 q 734 503 734 663 l 734 0 l 562 0 l 562 480 q 439 661 562 661 q 315 601 365 661 q 266 453 266 541 l 266 0 l 94 0 z "},"㎼":{"ha":2101,"x_min":4,"x_max":2085,"o":"m 842 1073 l 1031 1073 l 1141 481 q 1187 194 1166 330 l 1194 194 q 1246 481 1234 419 l 1373 1073 l 1553 1073 l 1681 481 q 1710 328 1690 437 q 1733 194 1729 218 l 1740 194 q 1764 338 1747 236 q 1788 481 1781 439 l 1896 1073 l 2085 1073 l 1843 0 l 1638 0 l 1516 583 q 1466 856 1469 837 l 1461 856 q 1411 583 1461 852 l 1289 0 l 1085 0 l 842 1073 m 4 -302 l 217 784 l 401 784 l 308 293 q 318 170 294 218 q 406 122 342 122 q 548 271 518 122 l 646 784 l 827 784 l 716 212 q 726 150 709 176 q 779 123 743 123 q 846 186 822 123 l 987 126 q 789 -23 913 -23 q 694 5 732 -23 q 650 60 656 34 l 648 64 q 441 -24 581 -24 q 264 45 321 -24 l 260 45 l 189 -302 l 4 -302 z "},"㎽":{"ha":2386,"x_min":94,"x_max":2370,"o":"m 1127 1073 l 1316 1073 l 1426 481 q 1472 194 1451 330 l 1478 194 q 1531 481 1519 419 l 1657 1073 l 1838 1073 l 1965 481 q 1994 328 1975 437 q 2018 194 2014 218 l 2025 194 q 2049 338 2032 236 q 2072 481 2066 439 l 2181 1073 l 2370 1073 l 2128 0 l 1923 0 l 1801 583 q 1751 856 1754 837 l 1746 856 q 1695 583 1746 852 l 1573 0 l 1370 0 l 1127 1073 m 94 0 l 94 783 l 260 783 l 260 692 q 334 769 281 731 q 461 807 387 807 q 651 667 590 807 q 676 705 661 686 q 720 750 692 724 q 791 791 747 776 q 887 807 836 807 q 1127 503 1127 807 l 1127 0 l 954 0 l 954 498 q 930 620 954 579 q 849 661 907 661 q 737 603 780 661 q 694 461 694 545 l 694 0 l 525 0 l 525 502 q 419 661 525 661 q 306 606 346 661 q 266 464 266 552 l 266 0 l 94 0 z "},"㎾":{"ha":2028,"x_min":103,"x_max":2011,"o":"m 769 1073 l 958 1073 l 1067 481 q 1114 194 1093 330 l 1120 194 q 1173 481 1161 419 l 1299 1073 l 1480 1073 l 1607 481 q 1636 328 1617 437 q 1660 194 1656 218 l 1667 194 q 1691 338 1674 236 q 1714 481 1708 439 l 1823 1073 l 2011 1073 l 1770 0 l 1565 0 l 1443 583 q 1393 856 1396 837 l 1388 856 q 1337 583 1388 852 l 1215 0 l 1012 0 l 769 1073 m 103 0 l 103 1108 l 274 1108 l 274 471 l 552 783 l 768 783 l 479 464 l 785 0 l 585 0 l 368 343 l 274 240 l 274 0 l 103 0 z "},"㎿":{"ha":2429,"x_min":121,"x_max":2413,"o":"m 121 0 l 121 1073 l 339 1073 l 528 574 q 579 422 548 518 q 620 298 610 327 l 625 298 q 722 574 693 495 l 906 1073 l 1127 1073 l 1127 0 l 951 0 l 951 487 q 970 818 951 609 l 964 818 l 887 590 l 690 61 l 557 61 l 363 590 l 283 819 l 277 819 q 298 487 298 624 l 298 0 l 121 0 m 1171 1073 l 1359 1073 l 1469 481 q 1515 194 1495 330 l 1522 194 q 1575 481 1563 419 l 1701 1073 l 1881 1073 l 2009 481 q 2038 328 2018 437 q 2062 194 2058 218 l 2068 194 q 2092 338 2075 236 q 2116 481 2109 439 l 2224 1073 l 2413 1073 l 2171 0 l 1967 0 l 1845 583 q 1794 856 1797 837 l 1789 856 q 1739 583 1789 852 l 1617 0 l 1413 0 l 1171 1073 z "},"㏀":{"ha":1841,"x_min":103,"x_max":1784,"o":"m 817 620 q 947 962 817 826 q 1301 1097 1077 1097 q 1653 962 1523 1097 q 1784 620 1784 826 q 1705 362 1784 475 q 1488 199 1626 250 l 1488 153 l 1762 153 l 1762 0 l 1354 0 l 1354 298 q 1533 420 1470 330 q 1595 620 1595 510 q 1514 847 1595 753 q 1301 941 1432 941 q 1084 848 1164 941 q 1005 620 1005 754 q 1065 421 1005 511 q 1245 298 1124 331 l 1245 0 l 838 0 l 838 153 l 1111 153 l 1111 199 q 895 363 972 251 q 817 620 817 475 m 103 0 l 103 1108 l 274 1108 l 274 471 l 552 783 l 768 783 l 479 464 l 785 0 l 585 0 l 368 343 l 274 240 l 274 0 l 103 0 z "},"㏁":{"ha":2272,"x_min":121,"x_max":2215,"o":"m 1248 620 q 1378 962 1248 826 q 1732 1097 1508 1097 q 2085 962 1954 1097 q 2215 620 2215 826 q 2136 362 2215 475 q 1919 199 2058 250 l 1919 153 l 2193 153 l 2193 0 l 1785 0 l 1785 298 q 1964 420 1902 330 q 2026 620 2026 510 q 1945 847 2026 753 q 1732 941 1864 941 q 1516 848 1595 941 q 1436 620 1436 754 q 1496 421 1436 511 q 1676 298 1556 331 l 1676 0 l 1270 0 l 1270 153 l 1542 153 l 1542 199 q 1326 363 1404 251 q 1248 620 1248 475 m 121 0 l 121 1073 l 339 1073 l 528 574 q 579 422 548 518 q 620 298 610 327 l 625 298 q 722 574 693 495 l 906 1073 l 1127 1073 l 1127 0 l 951 0 l 951 487 q 970 818 951 609 l 964 818 l 887 590 l 690 61 l 557 61 l 363 590 l 283 819 l 277 819 q 298 487 298 624 l 298 0 l 121 0 z "},"㏂":{"ha":2435,"x_min":47,"x_max":2365,"o":"m 221 220 q 256 147 221 176 q 347 118 290 118 q 486 172 429 118 q 544 315 544 227 l 544 387 q 393 358 481 372 q 221 220 221 331 m 47 205 q 376 475 47 426 q 544 507 495 492 l 544 549 q 503 639 544 606 q 395 671 463 671 q 172 566 266 671 l 68 655 q 214 767 129 727 q 392 807 298 807 q 642 722 567 807 q 716 486 716 637 l 716 0 l 549 0 l 549 98 q 465 12 525 47 q 323 -24 404 -24 q 121 39 194 -24 q 47 205 47 103 m 1051 0 l 1051 783 l 1218 783 l 1218 692 q 1291 769 1238 731 q 1419 807 1344 807 q 1609 667 1548 807 q 1634 705 1618 686 q 1677 750 1649 724 q 1749 791 1705 776 q 1845 807 1793 807 q 2085 503 2085 807 l 2085 0 l 1911 0 l 1911 498 q 1888 620 1911 579 q 1807 661 1865 661 q 1695 603 1737 661 q 1652 461 1652 545 l 1652 0 l 1482 0 l 1482 502 q 1377 661 1482 661 q 1263 606 1303 661 q 1223 464 1223 552 l 1223 0 l 1051 0 m 788 -1 l 788 191 l 985 191 l 985 -1 l 788 -1 m 2169 -1 l 2169 191 l 2365 191 l 2365 -1 l 2169 -1 z "},"㏃":{"ha":1781,"x_min":121,"x_max":1681,"o":"m 1154 392 q 1203 193 1154 264 q 1333 122 1252 122 q 1463 195 1415 122 q 1512 392 1512 267 q 1465 586 1512 511 q 1335 661 1417 661 q 1202 586 1249 661 q 1154 392 1154 511 m 978 392 q 1072 695 978 583 q 1310 807 1165 807 q 1431 771 1378 807 q 1515 681 1484 735 l 1515 783 l 1681 783 l 1681 -320 l 1510 -320 l 1510 92 q 1432 9 1484 43 q 1310 -24 1381 -24 q 1194 -1 1251 -24 q 1087 71 1137 23 q 1008 201 1038 118 q 978 392 978 285 m 121 0 l 121 1073 l 528 1073 q 784 997 699 1073 q 869 789 869 921 q 833 654 869 711 q 736 567 796 598 q 856 475 804 543 q 907 312 907 408 q 821 89 907 178 q 581 0 735 0 l 121 0 m 300 152 l 549 152 q 672 194 621 152 q 723 312 723 236 q 676 430 723 384 q 545 476 629 476 l 300 476 l 300 152 m 300 627 l 510 627 q 636 664 587 627 q 685 776 685 701 q 644 881 685 842 q 515 920 602 920 l 300 920 l 300 627 z "},"㏄":{"ha":1478,"x_min":49,"x_max":1453,"o":"m 49 391 q 150 693 49 579 q 411 807 251 807 q 608 736 528 807 q 708 575 688 666 l 562 534 q 506 623 545 586 q 412 661 467 661 q 275 583 324 661 q 225 391 225 506 q 278 193 225 263 q 412 122 331 122 q 517 163 472 122 q 581 258 563 205 l 727 216 q 614 48 701 121 q 411 -24 528 -24 q 150 89 251 -24 q 49 391 49 202 m 774 391 q 876 693 774 579 q 1137 807 977 807 q 1333 736 1253 807 q 1434 575 1413 666 l 1287 534 q 1232 623 1271 586 q 1138 661 1192 661 q 1000 583 1050 661 q 951 391 951 506 q 1004 193 951 263 q 1138 122 1057 122 q 1243 163 1198 122 q 1306 258 1289 205 l 1453 216 q 1340 48 1427 121 q 1137 -24 1253 -24 q 876 89 977 -24 q 774 391 774 202 z "},"㏅":{"ha":1587,"x_min":49,"x_max":1488,"o":"m 49 391 q 150 693 49 579 q 411 807 251 807 q 608 736 528 807 q 708 575 688 666 l 562 534 q 506 623 545 586 q 412 661 467 661 q 275 583 324 661 q 225 391 225 506 q 278 193 225 263 q 412 122 331 122 q 517 163 472 122 q 581 258 563 205 l 727 216 q 614 48 701 121 q 411 -24 528 -24 q 150 89 251 -24 q 49 391 49 202 m 785 392 q 880 696 785 585 q 1119 807 974 807 q 1239 774 1188 807 q 1317 696 1290 741 l 1317 1108 l 1488 1108 l 1488 0 l 1322 0 l 1322 102 q 1242 13 1298 50 q 1118 -24 1185 -24 q 1000 -1 1057 -24 q 893 69 943 22 q 814 200 844 117 q 785 392 785 283 m 962 392 q 1011 193 962 264 q 1142 122 1061 122 q 1270 195 1221 122 q 1320 392 1320 267 q 1272 587 1320 513 q 1142 661 1223 661 q 1009 587 1057 661 q 962 392 962 514 z "},"㏆":{"ha":2871,"x_min":57,"x_max":2780,"o":"m 57 537 q 190 946 57 795 q 533 1097 323 1097 q 766 1023 669 1097 q 910 838 863 948 l 757 788 q 530 944 670 944 q 319 833 397 944 q 241 537 241 723 q 320 239 241 349 q 530 129 399 129 q 682 180 616 129 q 777 307 747 232 l 937 256 q 885 162 917 208 q 805 73 853 117 q 686 2 757 28 q 533 -24 616 -24 q 192 125 327 -24 q 57 537 57 275 m 1446 0 l 1446 1108 l 1617 1108 l 1617 471 l 1893 783 l 2109 783 l 1822 464 l 2128 0 l 1926 0 l 1710 343 l 1617 240 l 1617 0 l 1446 0 m 2269 406 q 2316 220 2269 286 q 2440 153 2363 153 q 2562 218 2516 153 q 2608 407 2608 283 q 2562 594 2608 528 q 2441 661 2516 661 q 2316 591 2363 661 q 2269 406 2269 522 m 2094 404 q 2185 697 2094 587 q 2418 807 2276 807 q 2540 771 2490 807 q 2610 692 2589 735 l 2610 783 l 2780 783 l 2780 109 q 2694 -219 2780 -113 q 2429 -326 2608 -326 q 2123 -174 2231 -326 l 2237 -95 q 2432 -187 2315 -187 q 2555 -130 2507 -187 q 2608 19 2604 -73 q 2611 109 2611 73 q 2534 36 2585 65 q 2424 7 2482 7 q 2185 116 2276 7 q 2094 404 2094 225 m 845 -125 l 1261 1141 l 1428 1141 l 1012 -125 l 845 -125 z "},"㏇":{"ha":2058,"x_min":57,"x_max":1988,"o":"m 1184 391 q 1240 189 1184 255 q 1370 122 1295 122 q 1499 189 1443 122 q 1554 391 1554 255 q 1499 595 1554 529 q 1370 661 1443 661 q 1240 595 1297 661 q 1184 391 1184 529 m 1008 391 q 1100 686 1008 566 q 1370 807 1192 807 q 1638 686 1546 807 q 1731 391 1731 566 q 1721 282 1731 336 q 1685 172 1710 228 q 1619 73 1659 115 q 1516 3 1580 30 q 1370 -24 1451 -24 q 1225 2 1290 -24 q 1121 70 1161 28 q 1055 168 1081 111 q 1018 279 1028 224 q 1008 391 1008 334 m 57 537 q 190 946 57 795 q 533 1097 323 1097 q 766 1023 669 1097 q 910 838 863 948 l 757 788 q 530 944 670 944 q 319 833 397 944 q 241 537 241 723 q 320 239 241 349 q 530 129 399 129 q 682 180 616 129 q 777 307 747 232 l 937 256 q 885 162 917 208 q 805 73 853 117 q 686 2 757 28 q 533 -24 616 -24 q 192 125 327 -24 q 57 537 57 275 m 1792 -1 l 1792 191 l 1988 191 l 1988 -1 l 1792 -1 z "},"㏈":{"ha":1725,"x_min":49,"x_max":1666,"o":"m 49 392 q 143 696 49 585 q 382 807 237 807 q 503 774 452 807 q 581 696 553 741 l 581 1108 l 751 1108 l 751 0 l 586 0 l 586 102 q 505 13 562 50 q 381 -24 449 -24 q 263 -1 320 -24 q 157 69 206 22 q 78 200 107 117 q 49 392 49 283 m 225 392 q 275 193 225 264 q 406 122 324 122 q 534 195 484 122 q 583 392 583 267 q 535 587 583 513 q 406 661 487 661 q 273 587 320 661 q 225 392 225 514 m 879 0 l 879 1073 l 1286 1073 q 1542 997 1457 1073 q 1628 789 1628 921 q 1591 654 1628 711 q 1495 567 1554 598 q 1614 475 1563 543 q 1666 312 1666 408 q 1579 89 1666 178 q 1339 0 1493 0 l 879 0 m 1058 152 l 1308 152 q 1430 194 1379 152 q 1481 312 1481 236 q 1434 430 1481 384 q 1303 476 1388 476 l 1058 476 l 1058 152 m 1058 627 l 1268 627 q 1394 664 1345 627 q 1443 776 1443 701 q 1402 881 1443 842 q 1274 920 1360 920 l 1058 920 l 1058 627 z "},"㏉":{"ha":1756,"x_min":57,"x_max":1747,"o":"m 57 537 q 189 940 57 783 q 541 1097 320 1097 q 694 1070 624 1097 q 810 1000 764 1043 q 884 919 856 958 q 929 841 911 880 l 776 791 q 724 863 747 834 q 651 918 700 891 q 543 944 602 944 q 321 833 401 944 q 241 537 241 722 q 323 239 241 349 q 534 129 404 129 q 711 194 647 129 q 783 359 774 259 q 787 448 787 420 l 524 448 l 524 600 l 960 600 l 960 0 l 837 0 l 821 110 q 529 -24 732 -24 q 191 128 326 -24 q 57 537 57 281 m 1006 783 l 1195 783 l 1329 380 q 1381 199 1363 269 l 1386 199 q 1436 380 1393 224 l 1560 783 l 1747 783 l 1423 -103 q 1311 -271 1379 -222 q 1141 -320 1242 -320 l 1088 -320 l 1088 -176 l 1112 -176 q 1212 -150 1173 -176 q 1274 -58 1251 -123 l 1299 19 l 1006 783 z "},"㏊":{"ha":1587,"x_min":102,"x_max":1503,"o":"m 1008 220 q 1042 147 1008 176 q 1134 118 1077 118 q 1273 172 1215 118 q 1331 315 1331 227 l 1331 387 q 1180 358 1268 372 q 1008 220 1008 331 m 834 205 q 1162 475 834 426 q 1331 507 1282 492 l 1331 549 q 1290 639 1331 606 q 1181 671 1249 671 q 959 566 1053 671 l 854 655 q 1000 767 916 727 q 1179 807 1085 807 q 1428 722 1354 807 q 1503 486 1503 637 l 1503 0 l 1336 0 l 1336 98 q 1251 12 1312 47 q 1109 -24 1191 -24 q 907 39 981 -24 q 834 205 834 103 m 102 0 l 102 1108 l 271 1108 l 271 703 l 275 703 q 361 777 307 747 q 477 807 416 807 q 665 734 590 807 q 739 503 739 662 l 739 0 l 568 0 l 568 481 q 446 661 568 661 q 321 597 372 661 q 271 448 271 533 l 271 0 l 102 0 z "},"㏏":{"ha":1331,"x_min":103,"x_max":1291,"o":"m 103 0 l 103 1108 l 274 1108 l 274 471 l 552 783 l 768 783 l 479 464 l 785 0 l 585 0 l 368 343 l 274 240 l 274 0 l 103 0 m 819 636 l 819 783 l 940 783 l 940 1015 l 1111 1015 l 1111 783 l 1290 783 l 1290 636 l 1111 636 l 1111 251 q 1133 171 1111 195 q 1202 146 1156 146 l 1291 146 l 1291 0 l 1180 0 q 940 239 940 0 l 940 636 l 819 636 z "},"㏐":{"ha":1548,"x_min":109,"x_max":1465,"o":"m 109 0 l 109 1108 l 279 1108 l 279 0 l 109 0 m 431 0 l 431 783 l 598 783 l 598 692 q 671 769 618 731 q 799 807 724 807 q 989 667 928 807 q 1014 705 998 686 q 1057 750 1029 724 q 1129 791 1085 776 q 1225 807 1173 807 q 1465 503 1465 807 l 1465 0 l 1291 0 l 1291 498 q 1268 620 1291 579 q 1187 661 1245 661 q 1075 603 1118 661 q 1032 461 1032 545 l 1032 0 l 863 0 l 863 502 q 757 661 863 661 q 644 606 684 661 q 604 464 604 552 l 604 0 l 431 0 z "},"㏓":{"ha":1126,"x_min":109,"x_max":1116,"o":"m 358 0 l 636 401 l 372 783 l 579 783 l 680 613 q 734 518 718 545 l 739 518 q 792 613 761 557 l 892 783 l 1101 783 l 837 401 l 1116 0 l 913 0 l 798 189 q 768 237 787 206 q 739 286 749 269 l 734 286 q 675 189 728 277 l 560 0 l 358 0 m 109 0 l 109 1108 l 279 1108 l 279 0 l 109 0 z "}}}
